<svg clip-rule="evenodd" fill-rule="evenodd" height="2.833in" image-rendering="optimizeQuality" shape-rendering="geometricPrecision" text-rendering="geometricPrecision" viewBox="0 0 2.83333 2.83333" width="2.833in" xmlns="http://www.w3.org/2000/svg" xmlns:xlink="http://www.w3.org/1999/xlink"><linearGradient id="id0" gradientUnits="userSpaceOnUse" x1="0" x2="2.833" y1="1.417" y2="1.417"><stop offset="0" stop-color="#26a9e0"/><stop offset=".0901961" stop-color="#2297d3"/><stop offset=".231373" stop-color="#1e84c6"/><stop offset=".368627" stop-color="#1c79be"/><stop offset=".521569" stop-color="#1b75bb"/><stop offset=".960784" stop-color="#2b388f"/><stop offset="1" stop-color="#2b388f"/></linearGradient><circle cx="1.417" cy="1.417" fill="url(#id0)" r="1.417"/><g id="Layer_x0020_1"><g id="_377336136" fill="#fff"><path id="_377338416" d="m1.42405 1.71956c-.00526378 0-.0103701-.00208661-.0141496-.0058622l-.0446654-.0446732.11635-.116354c.0554134-.0554134.0554213-.145543.00000394-.200953-.0267795-.0267835-.0626181-.0415118-.100484-.0415118-.0378543 0-.0736969.0147402-.100472.0415118l-.116343.116346-.0446811-.0446929c-.00441339-.00440157-.00651181-.010622-.0056811-.0167992.0256063-.190083.109654-.332445.321205-.544016.114433-.114429.270945-.204831.431803-.255102l.359386.359374c-.0495157.159142-.138909.314681-.255555.431331-.211567.211547-.353925.295614-.544024.321217-.00091339.00012598-.00179921.0001811-.00269291.00018504zm.486772-1.12478c.0761614-.0202323.152524-.0312126.225118-.0312087.037685-.00000394.0742323.0029685.10861.00884252.00837008.00142913.0149134.00798031.0163583.0163386.0175.102587.00856299.218457-.0219606.334142l-.328126-.328114zm-.0683976.687508h-.0925079c-.0110354 0-.0199961-.00895669-.0199961-.0199921l.00000394-.059126c-.00330709-.00126378-.00659449-.00262205-.00982677-.00406693l-.041811.0417953c-.00376378.00374803-.00884252.0058622-.0141535.00585827-.00530315.00000394-.0103858-.0021063-.0141417-.00585827l-.0654213-.0654134c-.00781496-.00780709-.0078189-.0204685 0-.0282717l.041811-.041811c-.00144488-.00323228-.00280315-.00652756-.00406299-.00982677l-.059126.00000394c-.0110394 0-.0199961-.00895669-.0199961-.0199961v-.0925157c.00000394-.0110354.0089685-.0199921.02-.0199921h.0591181c.00126378-.0033189.00261024-.0066063.00406693-.00983071l-.0418071-.0418071c-.00782283-.00780709-.0078189-.0204724-.00000394-.0282717l.0654213-.0654173c.0078189-.00782283.0204803-.00782283.0282835 0l.041811.041811c.00323228-.00144094.00652756-.00280315.00983071-.00406693l-.00000394-.059122c0-.0110354.00897244-.0199961.0199961-.0199961h.0924961c.0110354 0 .0199961.00896063.0199961.0199961v.059122c.00330709.00126378.00659843.00261024.00983071.00406693l.041811-.041811c.00781496-.0078189.0204803-.00782283.0282874 0l.0654094.0654134c.00782283.00780315.0078189.0204685 0 .0282756l-.041811.0418031c.00144882.00323622.00280315.0065315.00407087.00983465h.0591181c.0110433 0 .0199961.00895669.0199961.0199921l.00000394.0925157c-.00000394.0110394-.00897244.0199961-.0199961.0199961h-.059126c-.00126378.00331102-.0026063.0066063-.00406693.00984646l.041811.0417874c.00782283.00780315.00782283.0204724 0 .0282756l-.0654094.0654134c-.00782283.00781496-.0204882.0078189-.0282874 0l-.041811-.041811c-.00323228.00144488-.00652756.0028189-.00983071.00407087v.0591181c.00001575.0110669-.00894094.0200079-.0199764.0200079zm-.0725118-.0399882h.0524961v-.0534961c0-.00890157.00590157-.0167323.0144449-.0192047.0103425-.00298425.0203386-.00711811.0297126-.0122992.00779134-.00427559.0174803-.00294882.0237992.00337402l.0378386.0378189.0371457-.0371417-.0378386-.0378228c-.00629134-.00629134-.00766535-.0159961-.00335433-.0237795.00514961-.00935827.00928346-.0193622.0122677-.0297008.00249213-.00855906.0103031-.0144488.0192205-.0144528l.0535118-.00000394v-.0525276h-.0535039c-.00890945 0-.0167283-.0058937-.0192165-.0144567-.00295669-.0102756-.00711024-.020252-.0122992-.0297087-.00429528-.00780315-.00291732-.0174803.00337402-.0237756l.0378386-.0378346-.0371457-.0371457-.0378386.0378189c-.00630315.00630315-.0160236.00766929-.0237795.00337795-.00941339-.0051811-.0194016-.00931496-.0297126-.0122913-.00855512-.00247244-.0144567-.0103071-.0144567-.0192008v-.0535118h-.0525039v.0535118c0 .00889764-.00590157.0167283-.0144409.0192008-.0103307.00298819-.0203386.00712205-.0297283.0122913-.00776772.00429134-.0174685.00292913-.0237874-.00337402l-.0378346-.0378228-.0371417.0371457.0378307.0378386c.00629134.00629921.00767323.0159921.0033622.0237992-.00514173.00931496-.0092874.0193268-.0122992.0297126-.00249213.0085315-.0103071.0144252-.0192047.0144252h-.0534961v.0525276l.0535-.00000394c.00891732.00000394.0167283.00588976.0192205.0144567.00295669.0102598.00711024.0202559.0123031.0297283.00429134.00780315.00289764.0174803-.00338189.0237717l-.0378346.0378228.0371457.0371457.0378228-.0378228c.00630315-.0063189.0159685-.00767717.0237835-.00338976.00941339.00517717.0193937.00930315.0297244.0122874.00855512.00247638.0144567.0103031.0144567.0192047v.0535079zm.0262598-.114535c-.0262953 0-.0510118-.0102323-.0696102-.0288268-.0383937-.0383937-.0383937-.100835-.00001181-.139217.0186024-.0185866.0433189-.0288307.0696142-.0288307.0263031 0 .0510197.0102323.0696102.0288268.0383937.0383937.0383937.100831.00001575.139209-.0186063.0186063-.0433189.0288386-.0696181.0288386zm0-.156874c-.0156063 0-.0302992.00608268-.0413504.0171181-.0227874.0227835-.0227874.0598701.00001575.0826575.0110394.0110394.0257362.0171102.0413425.0171102s.0302953-.00608661.0413425-.0171181c.0227874-.0227874.0227874-.059874-.00001181-.0826614-.0110394-.0110394-.0257402-.0171063-.0413386-.0171063zm-.139673.453441c-.00511417-.00000394-.0102362-.00195669-.0141496-.0058622l-.227508-.227531c-.00781496-.00780315-.0078189-.0204646 0-.0282677.00782283-.00782283.0204724-.00782283.0282874 0l.227531.227535c.00782283.00779921.00782283.0204606 0 .0282638-.00391339.00390551-.00903543.0058622-.0141614.0058622z"/><path id="_377338512" d="m1.54993 1.9159c-.00558268 0-.0110118-.0023622-.0148425-.00662598-.00502362-.00558268-.00651575-.0135079-.0038189-.0205354.00040945-.00106693.0316969-.0840827.0331024-.159413.149575-.0485118.274252-.148102.386803-.255945-.0120315.138488-.0827087.35828-.396071.441846-.00172441.00043701-.00345276.00067323-.00517323.00067323z"/><path id="_377337528" d="m.938008 1.30396c-.0048622 0-.00964961-.00178346-.0133858-.0051378-.00558661-.00502756-.00787008-.012748-.00594094-.0200118.083311-.312457.302398-.383437.440492-.39589-.107717.112465-.207413.23722-.25561.386657-.0750709.00164567-.157354.0326575-.158409.0330669-.00232677.00088189-.00474409.00131496-.00714567.00131496z"/><g><path id="_377336640" d="m1.01409 1.61826-.0446772-.0446811c-.0078189-.0078189-.0078189-.0204803 0-.0282835l.110205-.110193c.00290157.00606693.00683071.0116732.0117047.0165472l.044685.0446929-.121917.121917z"/><path id="_377336952" d="m1.27387 1.86976c-.00512205 0-.0102362-.00195669-.0141339-.00585827l-.044689-.044685.121902-.121906.0446654.0446732c.00486614.00486614.0104843.00881102.0165787.0117205l-.110193.110193c-.00390157.00390551-.00901969.0058622-.0141299.0058622z"/></g><path id="_377336424" d="m.801657 2.05164c-.00512205 0-.0102323-.00195669-.0141339-.0058622-.0078189-.0078189-.0078189-.0204843 0-.0282874l.175134-.17513c.0078189-.00782283.0204646-.00782283.0282717 0 .00780315.0078189.0078189.0204803 0 .0282835l-.175122.17515c-.00391732.00389764-.00902756.00584646-.0141496.00584646z"/><path id="_377336808" d="m.583551 2.01869c-.00512205 0-.0102362-.00195669-.0141339-.0058622-.0078189-.0078189-.0078189-.0204803 0-.0282835l.175134-.175118c.0078189-.0078189.0204646-.0078189.0282835 0 .00780315.0078189.00780315.0204803 0 .0282874l-.17513.175114c-.00392126.00392126-.0090315.0058622-.0141535.0058622z"/><path id="_377335560" d="m.834618 2.26976c-.00512205 0-.0102323-.00195669-.0141299-.0058622-.00782283-.0078189-.00782283-.0204843 0-.0282874l.17513-.17513c.0078189-.00782283.0204685-.00782283.0282717 0 .00780315.0078189.0078189.0204803 0 .0282835l-.175138.17515c-.00391732.00390551-.00901969.00584646-.0141339.00584646z"/><path id="_377336256" d="m1.11122 1.82409c-.0273346 0-.0529685-.0105984-.072185-.0297992-.0398071-.039811-.0398071-.104579-.00001575-.14439l.269898-.269898c.0192205-.0192205.0448661-.0297992.0721929-.0297992.0273386-.00000394.0529685.0105787.0721969.0297953.0397953.039811.0397953.104579 0 .144394l-.269898.269898c-.0192165.0192008-.0448504.0297992-.072189.0297992z"/><path id="_377336160" d="m.861807 1.82517c-.00512205 0-.0102323-.00195669-.0141299-.0058622-.00782283-.0078189-.00782283-.0204803 0-.0282835l.076811-.0767992c.0078189-.0078189.0204843-.0078189.0282717 0 .0078189.0078189.0078189.0204803 0 .0282874l-.076815.0767953c-.00390945.00390551-.00901575.0058622-.0141378.0058622z"/><path id="_377335824" d="m1.02813 1.9915c-.00512205 0-.0102323-.00195669-.0141299-.00585827-.00782283-.00782283-.00782283-.0204843 0-.0282874l.076811-.076815c.00780315-.0078189.0204685-.0078189.0282717 0 .00780315.0078189.0078189.0204843 0 .0282874l-.076815.076815c-.00390551.00391339-.00901575.00585827-.0141378.00585827z"/></g></g></svg>