<svg clip-rule="evenodd" fill-rule="evenodd" height="850" image-rendering="optimizeQuality" shape-rendering="geometricPrecision" text-rendering="geometricPrecision" viewBox="0 0 850 850" width="850" xmlns="http://www.w3.org/2000/svg" xmlns:xlink="http://www.w3.org/1999/xlink"><linearGradient id="id0" gradientUnits="userSpaceOnUse" x1="-.001" x2="850.001" y1="425" y2="425"><stop offset="0" stop-color="#26a9e0"/><stop offset=".0901961" stop-color="#2297d3"/><stop offset=".231373" stop-color="#1e84c6"/><stop offset=".368627" stop-color="#1c79be"/><stop offset=".521569" stop-color="#1b75bb"/><stop offset=".960784" stop-color="#2b388f"/><stop offset="1" stop-color="#2b388f"/></linearGradient><circle cx="425" cy="425" fill="url(#id0)" r="425.001"/><g id="Layer_x0020_1"><g id="_420958928" fill="#fefefe"><path id="_420958592" d="m485.853 616.967-245.574-245.569c-3.12284-3.12402-3.12284-8.19095 0-11.315l54.241-54.241 233.225 233.216c-1.57559 3.30118-2.3941 6.95079-2.34213 10.676l.223229 15.8244-15.8244-.223229c-.125197-.0011811-.230315-.0011811-.356693-.0011811-6.35316 0-12.4288 2.52874-16.9276 7.01457-4.59331 4.58032-7.13977 10.8378-7.04883 17.3244l.383859 27.2941zm52.2024-88.7186c-4.03583-4.9878-7.46694-8.96221-8.49095-9.98623l-223.731-223.734 54.241-54.241c3.12402-3.12048 8.19095-3.12048 11.315 0l245.55 245.555-27.2705-.383859c-.125197-.0011811-.230315-.0011811-.355512-.0011811-6.35434 0-12.4299 2.52992-16.9299 7.01575-4.59331 4.57914-7.13859 10.8378-7.04764 17.3232l.223229 15.8244-15.8244-.223229c-.124016-.0011811-.230315-.0011811-.354331-.0011811-3.99213 0-7.8756.998032-11.3256 2.85236z"/><path id="_420959024" d="m672.943 680.945c-.682678 0-1.3689-.0874017-2.04449-.262205l-86.067-22.7776 73.0678-73.0961 22.7799 86.0788c.728741 2.75315-.0661418 5.68701-2.07874 7.70198-1.52126 1.53543-3.56575 2.35512-5.65749 2.35512zm-105.995-27.7725-58.9583-15.6024c-3.47008-.921261-5.90197-4.03701-5.95276-7.6193l-.570473-40.5036c-.0295276-2.16142.812599-4.2437 2.34685-5.76851 1.5-1.5 3.53622-2.34567 5.65158-2.34567h.112205l32.2772.453544-.453544-32.2772c-.0307087-2.16142.812599-4.24489 2.34567-5.76851 1.5-1.50118 3.53622-2.34567 5.65276-2.34567h.111024l32.2772.453544-.453544-32.2772c-.0295276-2.16142.812599-4.24489 2.34567-5.76851 1.50118-1.50118 3.53622-2.34685 5.65276-2.34685h.111024l40.5036.570473c3.58229.0507874 6.69922 2.48268 7.6193 5.95276l15.5977 58.9406-86.2158 86.2524z"/><path id="_420958664" d="m224.277 355.395-38.8441-38.8441c-10.565-10.565-16.3795-24.6614-16.3795-39.6933 0-15.0307 5.81575-29.1225 16.3795-39.6874l51.73-51.7312c10.565-10.565 24.6579-16.3843 39.6933-16.3843 15.0343 0 29.1272 5.81693 39.6874 16.3843l38.8441 38.8465c-2.39646 1.14331-4.64292 2.70591-6.62599 4.68898l-119.796 119.796c-1.98307 1.98307-3.54449 4.22835-4.68898 6.62481z"/><path id="_420958376" d="m672.943 680.945h-393.002c-4.41851 0-7.99725-3.57874-7.99725-7.99843s3.57874-7.99843 7.99725-7.99843h393.002c4.41969 0 7.99843 3.57874 7.99843 7.99843s-3.58229 7.99843-7.99843 7.99843z"/></g></g></svg>