<svg clip-rule="evenodd" fill-rule="evenodd" height="850" image-rendering="optimizeQuality" shape-rendering="geometricPrecision" text-rendering="geometricPrecision" viewBox="0 0 850 850" width="850" xmlns="http://www.w3.org/2000/svg" xmlns:xlink="http://www.w3.org/1999/xlink"><linearGradient id="id0" gradientUnits="userSpaceOnUse" x1="-.001" x2="850.001" y1="425" y2="425"><stop offset="0" stop-color="#26a9e0"/><stop offset=".0901961" stop-color="#2297d3"/><stop offset=".231373" stop-color="#1e84c6"/><stop offset=".368627" stop-color="#1c79be"/><stop offset=".521569" stop-color="#1b75bb"/><stop offset=".960784" stop-color="#2b388f"/><stop offset="1" stop-color="#2b388f"/></linearGradient><circle cx="425" cy="425" fill="url(#id0)" r="425.001"/><g id="Layer_x0020_1"><g id="_422905216" fill="#fefefe"><path id="_422906512" d="m657.224 271.77c-.220866 0-.438189-.00826772-.662599-.0248032-20.1792-1.66299-39.1878-10.4764-53.5241-24.8055-14.3209-14.3209-23.1295-33.3107-24.7996-53.4697-.304725-3.65315 1.91103-7.04528 5.38229-8.23347 21.6047-7.3819 51.4583-16.187 71.0245-16.187 9.37442 0 15.9591 2.02559 20.1248 6.19253 3.92126 3.92126 15.8575 15.8492-9.98269 91.1328-1.12205 3.24567-4.1752 5.39528-7.56261 5.39528z"/><path id="_422907136" d="m429.617 524.193c-2.06693 0-4.11733-.794883-5.66339-2.34685l-95.7946-95.7993c-2.68819-2.68819-3.11103-6.8882-1.02992-10.0583 47.1827-71.6776 100.769-144.794 172.786-194.039 9.90237-6.76654 34.5626-18.3803 62.2985-29.0079.00236221.614174.0283465 1.23307.080315 1.85315 1.99016 23.9421 12.4406 46.4717 29.4319 63.4595 17.015 17.0103 39.5835 27.5681 63.5906 29.4414 1.07953.0838583.907087.0744095 1.75748.0732284-11.4685 29.3788-23.9528 54.9461-29.5642 63.0957-49.5119 71.817-122.262 125.111-193.503 172.004-1.34055.890552-2.87362 1.32402-4.39016 1.32402zm5.16615-62.9162c-12.3118 0-23.8831-4.79174-32.5878-13.4953-8.70355-8.70355-13.4953-20.2784-13.4953-32.5878 0-12.3083 4.79174-23.8831 13.5-32.5866 8.70119-8.70355 20.276-13.4953 32.5878-13.4953 12.3083 0 23.8784 4.79174 32.5819 13.5 8.70828 8.70119 13.5012 20.276 13.5012 32.5866 0 12.3118-4.79292 23.8843-13.5012 32.5878-8.70355 8.6941-20.2784 13.4906-32.5866 13.4906zm0-76.1753c-8.03741 0-15.5917 3.12874-21.2705 8.81221-5.68347 5.68347-8.81339 13.2378-8.81339 21.2752 0 8.03859 3.12992 15.5929 8.81339 21.2764 5.67875 5.68347 13.2378 8.81221 21.2705 8.81221 8.03268 0 15.587-3.12874 21.2705-8.81221 5.68347-5.68347 8.81221-13.2378 8.81221-21.2764 0-8.03741-3.12874-15.5917-8.81221-21.2705-5.68347-5.68583-13.2331-8.81694-21.2705-8.81694zm94.9253-14.1201c-13.5496 0-26.2878-5.27481-35.8583-14.8524-9.58229-9.57993-14.8536-22.3122-14.8536-35.863s5.27599-26.2831 14.8536-35.863c9.57521-9.57875 22.3087-14.8536 35.8583-14.8536s26.2878 5.27599 35.8618 14.8536c9.58347 9.57993 14.8536 22.3169 14.8536 35.863s-5.27481 26.2831-14.8536 35.863c-9.57639 9.57757-22.3122 14.8524-35.8618 14.8524zm0-85.4363c-9.27639 0-17.987 3.61181-24.5492 10.1669-6.55512 6.55867-10.1669 15.2788-10.1669 24.5492 0 9.27048 3.61181 17.9917 10.1669 24.5492 6.55867 6.55867 15.2752 10.1705 24.5492 10.1705 9.27402 0 17.9917-3.613 24.554-10.1705 6.55394-6.55867 10.1669-15.2752 10.1669-24.5492 0-9.27402-3.613-17.9917-10.1669-24.5492-6.55867-6.55512-15.2799-10.1669-24.554-10.1669z"/><path id="_422906824" d="m366.376 556.175c-4.30867 0-8.17914-1.59213-11.1921-4.59922l-56.7532-56.7544c-3.26339-3.26339-7.77993-10.5118-1.42087-22.4197l19.0996-35.8122c.238583.261024.484252.518504.735827.770079l95.7946 95.7993c.252756.252756.511418.500788.774804.740552l-35.8134 19.1008c-3.9626 2.10945-7.73859 3.17481-11.2252 3.17481z"/><path id="_422906224" d="m277.385 603.762c-7.19528 0-14.7662-.488977-22.7162-1.47165-3.64134-.445276-6.51142-3.31654-6.96142-6.96142-4.45394-36.1831 1.25315-64.6831 16.9736-84.7158 4.91693-6.26575 10.3087-11.0173 15.5469-14.615 1.52126 3.61654 3.79134 7.03701 6.88938 10.135l56.7532 56.7544c2.9752 2.9752 6.42048 5.27481 10.1693 6.84095-3.60237 5.25473-8.36457 10.6642-14.6504 15.5941-15.6331 12.2693-36.43 18.4394-62.0044 18.4394z"/><path id="_422906152" d="m414.284 614.007c-2.12835 0-4.22953-.369685-6.26575-1.19173-13.102-5.27245-14.6717-23.6173-16.5437-49.0819l49.4351-26.3658c.863387-.46063 1.69252-.969686 2.48268-1.5248 37.2083-24.6189 74.3835-50.6162 108.586-79.8178-4.33819 17.1933-11.3138 34.0489-20.863 50.3646-10.8413 18.5162-39.2835 48.3662-86.9587 91.2615-8.79332 7.90276-19.689 16.3559-29.8725 16.3559z"/><path id="_422906248" d="m286.207 458.659c-25.4658-1.87323-43.8154-3.44646-49.0831-16.5496-4.7504-11.7992 5.6126-25.5118 15.1665-36.1335 42.9083-47.6871 72.7619-76.128 91.2615-86.954 16.2555-9.51379 33.026-16.4705 50.1142-20.8087-29.3055 34.3264-55.3701 71.6611-79.9064 108.986-.50315.764174-.956694 1.54961-1.36181 2.3504l-26.191 49.1091z"/><path id="_422906344" d="m264.934 680.958c-2.04567 0-4.09607-.783072-5.65867-2.34685-3.12402-3.12402-3.12402-8.18741 0-11.3114l27.1748-27.1748c3.12402-3.12402 8.19213-3.12402 11.3162 0 3.1252 3.1252 3.1252 8.18741 0 11.3126l-27.1736 27.1736c-1.5626 1.5626-3.61181 2.34685-5.65867 2.34685z"/><path id="_422905768" d="m177.049 593.066c-2.04567 0-4.09607-.783072-5.65867-2.34685-3.12402-3.12402-3.12402-8.18741 0-11.3114l27.1748-27.1748c3.1252-3.12402 8.19213-3.12402 11.3162 0 3.1252 3.12402 3.1252 8.18741 0 11.3114l-27.1736 27.1748c-1.5626 1.56378-3.613 2.34685-5.65867 2.34685z"/><path id="_422905744" d="m342.417 653.004c-2.04567 0-4.09607-.78189-5.65394-2.34567-3.12402-3.12166-3.12402-8.18741 0-11.3126l25.5803-25.5815c3.12402-3.1252 8.19095-3.1252 11.3114 0 3.12402 3.12048 3.12402 8.18623 0 11.3114l-25.5792 25.5827c-1.5626 1.56142-3.613 2.34567-5.65867 2.34567z"/><path id="_422906320" d="m205.003 515.584c-2.04567 0-4.09607-.783072-5.65867-2.34685-3.12402-3.12402-3.12402-8.19213 0-11.3114l25.5792-25.5792c3.12166-3.1252 8.18741-3.1252 11.3126 0 3.12402 3.12402 3.12402 8.19213 0 11.3114l-25.5803 25.5792c-1.55669 1.56851-3.60709 2.34685-5.65276 2.34685z"/></g></g></svg>