<svg clip-rule="evenodd" fill-rule="evenodd" height="2.833in" image-rendering="optimizeQuality" shape-rendering="geometricPrecision" text-rendering="geometricPrecision" viewBox="0 0 2.83333 2.83333" width="2.833in" xmlns="http://www.w3.org/2000/svg" xmlns:xlink="http://www.w3.org/1999/xlink"><linearGradient id="id0" gradientUnits="userSpaceOnUse" x1="0" x2="2.833" y1="1.417" y2="1.417"><stop offset="0" stop-color="#26a9e0"/><stop offset=".0901961" stop-color="#2297d3"/><stop offset=".231373" stop-color="#1e84c6"/><stop offset=".368627" stop-color="#1c79be"/><stop offset=".521569" stop-color="#1b75bb"/><stop offset=".960784" stop-color="#2b388f"/><stop offset="1" stop-color="#2b388f"/></linearGradient><circle cx="1.417" cy="1.417" fill="url(#id0)" r="1.417"/><g id="Layer_x0020_1"><g id="_257084640" fill="#fff"><path id="_257085744" d="m1.65204 1.79951c-.165098 0-.32028-.0642835-.437012-.181012-.116732-.11672-.181031-.271917-.181031-.437 0-.165087.0642835-.32028.181012-.437012.116732-.116732.271929-.181012.437012-.181012.165087 0 .320268.0642874.437012.181012.240972.240976.240972.633055 0 .874012-.116724.116728-.271921.181012-.436992.181012zm0-.173197c-.118827 0-.23052-.0462717-.314531-.130299-.0840118-.084-.130283-.195705-.130283-.314516 0-.118815.0462717-.23052.130283-.314531.0840118-.0840118.195705-.130283.314531-.130283.118815 0 .23052.0462717.314516.130283.0840276.0840118.130299.195717.130299.314531 0 .118815-.0462717.23052-.130299.314516-.0840118.0840276-.195717.130299-.314516.130299z"/><path id="_257085720" d="m.970961 1.62415.102173-.102181c.0285709.0483937.0634331.0935.104185.134248.0407441.0407402.0858425.0755984.134228.104161l-.102161.102173-.238425-.238402z"/><path id="_257085792" d="m.732079 2.26985c-.0451339 0-.0874724-.0174843-.119205-.0492165-.0657283-.0657087-.0657362-.172697 0-.238417l.0293937-.0293858.238402.238402-.0293937.0293858c-.0317165.0317638-.0740551.0492323-.119197.0492323z"/><path id="_257085288" d="m.793256 1.69118.0369016-.0369016c.0127323-.0127362.029689-.0197362.0477559-.0197362.018063 0 .0350236.00701181.0477559.0197362l.253587.253563c.0127323.0127323.0197323.0296929.0197323.0477559 0 .0180669-.00701181.0350236-.0197323.0477559l-.036937.036937c-.00452756-.0234724-.0159331-.0451496-.0331496-.0623661l-.253598-.253614c-.0172008-.0172047-.0388661-.0285945-.062315-.0331299z"/><path id="_257085024" d="m.973728 2.18085c-.0180669 0-.0350236-.00701181-.0477559-.0197323l-.253587-.253587c-.0263307-.0263346-.0263307-.069189-.00001575-.0955118l.0499921-.0499764c.0127323-.0127362.029689-.019748.0477559-.019748s.0350236.00701181.0477402.0197205l.253598.253614c.0127205.0127205.0197323.0296732.0197323.0477402 0 .018063-.00701181.0350197-.0197323.0477559l-.0499921.0499764c-.0127126.012752-.0296654.019748-.0477362.019748z"/></g></g></svg>