<svg clip-rule="evenodd" fill-rule="evenodd" height="850" image-rendering="optimizeQuality" shape-rendering="geometricPrecision" text-rendering="geometricPrecision" viewBox="0 0 850 850" width="850" xmlns="http://www.w3.org/2000/svg" xmlns:xlink="http://www.w3.org/1999/xlink"><linearGradient id="id0" gradientUnits="userSpaceOnUse" x1="-.001" x2="850.001" y1="425" y2="425"><stop offset="0" stop-color="#26a9e0"/><stop offset=".0901961" stop-color="#2297d3"/><stop offset=".231373" stop-color="#1e84c6"/><stop offset=".368627" stop-color="#1c79be"/><stop offset=".521569" stop-color="#1b75bb"/><stop offset=".960784" stop-color="#2b388f"/><stop offset="1" stop-color="#2b388f"/></linearGradient><circle cx="425" cy="425" fill="url(#id0)" r="425.001"/><g id="Layer_x0020_1"><g id="_422330728" fill="#fefefe"><path id="_422330896" d="m657.127 482.004h-464.254c-4.35237 0-7.87678-3.52441-7.87678-7.87678s3.52441-7.87678 7.87678-7.87678h464.254c4.35237 0 7.87678 3.52441 7.87678 7.87678s-3.52441 7.87678-7.87678 7.87678z"/><path id="_422330992" d="m510.37 677.063h-170.739c-4.35237 0-7.87796-3.52441-7.87796-7.87678s3.52559-7.87678 7.87796-7.87678h170.734c4.35237 0 7.87678 3.52441 7.87678 7.87678s-3.52205 7.87678-7.87205 7.87678z"/><path id="_422331448" d="m437.907 414.2h-25.8142c-7.63465 0-13.8461-5.60315-15.828-14.2725l-3.42166-14.974c-11.2453-3.96851-21.776-10.0559-30.867-17.85l-14.7118 4.53308c-8.39883 2.59725-16.4929-.0200788-20.2713-6.5752l-12.9071-22.3547c-3.87284-6.71575-2.17087-14.7 4.44213-20.8441l11.2654-10.4575c-1.09134-5.863-1.64528-11.8453-1.64528-17.8335 0-5.98465.553938-11.9669 1.64528-17.8335l-11.2654-10.4563c-6.61772-6.14528-8.31497-14.1343-4.44213-20.8441l12.9071-22.3547c3.78189-6.55158 11.8807-9.16891 20.2713-6.57284l14.7071 4.52835c9.09568-7.78938 19.6264-13.8791 30.867-17.8453l3.4252-14.9788c1.97717-8.6693 8.19331-14.2725 15.828-14.2725l25.8154-.00472441c7.75513 0 13.8177 5.46851 15.828 14.2725l3.42284 14.974c11.2441 3.96851 21.7807 10.0559 30.8717 17.8465l14.7071-4.53426c8.40591-2.58544 16.4917.0248032 20.2713 6.56812l12.9059 22.3618c3.87402 6.70394 2.17441 14.6917-4.43859 20.8418l-11.2701 10.4575c1.09488 5.87008 1.64528 11.8476 1.64528 17.8323 0 5.98583-.553938 11.9681-1.64528 17.8382l11.2654 10.4575c6.61772 6.1441 8.31969 14.1284 4.44213 20.8488l-12.9071 22.3512c-3.79134 6.54804-11.8642 9.16891-20.2784 6.57284l-14.6988-4.52953c-9.09568 7.79056-19.6276 13.8839-30.8764 17.8512l-3.42284 14.9728c-1.99961 8.81103-8.0693 14.2795-15.8221 14.2795zm-12.9071-70.1162c-27.8528 0-50.5111-22.6595-50.5111-50.5123s22.6583-50.5111 50.5111-50.5111 50.5146 22.6583 50.5146 50.5111-22.6618 50.5123-50.5146 50.5123zm0-85.2686c-19.1634 0-34.7575 15.5894-34.7575 34.7575 0 19.1693 15.5941 34.7587 34.7575 34.7587 19.1669 0 34.7611-15.5941 34.7611-34.7587 0-19.1634-15.5941-34.7575-34.7611-34.7575z"/><path id="_422330968" d="m333.854 438.553h-84.7312c-4.35237 0-7.87678-3.52441-7.87678-7.87678s3.52441-7.87678 7.87678-7.87678h84.7312c4.35237 0 7.87678 3.52441 7.87678 7.87678s-3.52914 7.87678-7.87678 7.87678z"/><path id="_422331088" d="m598.444 438.553h-84.7265c-4.35237 0-7.87678-3.52441-7.87678-7.87678s3.52441-7.87678 7.87678-7.87678h84.7265c4.35237 0 7.87678 3.52441 7.87678 7.87678s-3.52441 7.87678-7.87678 7.87678z"/><path id="_422331616" d="m657.127 589.219h-464.254c-4.35237 0-7.87678-3.52441-7.87678-7.87678v-59.315-268.279c0-4.35237 3.52441-7.87678 7.87678-7.87678h63.8375 39.926 17.4496v15.7524h-16.4587-40.917l-55.9595-.0011811v268.282h448.499v-268.279h-61.2898-35.5914-14.8406v-15.7547h15.8362l103.758-.00236221c4.35237 0 7.87678 3.52441 7.87678 7.87678v268.544l.00472441-.261024c0-4.35355 4.34764 59.3103-.00472441 59.3103.00472441 4.35709-3.51969 7.8815-7.87205 7.8815z"/><path id="_422330776" d="m477.308 677.063h-104.614c-4.35237 0-7.87678-3.52441-7.87678-7.87678v-63.9674h120.367v63.9686c0 4.35237-3.52323 7.8756-7.87678 7.8756z"/></g></g></svg>