<svg clip-rule="evenodd" fill-rule="evenodd" height="2.833in" image-rendering="optimizeQuality" shape-rendering="geometricPrecision" text-rendering="geometricPrecision" viewBox="0 0 2.83333 2.83333" width="2.833in" xmlns="http://www.w3.org/2000/svg" xmlns:xlink="http://www.w3.org/1999/xlink"><linearGradient id="id0" gradientUnits="userSpaceOnUse" x1="0" x2="2.833" y1="1.417" y2="1.417"><stop offset="0" stop-color="#26a9e0"/><stop offset=".0901961" stop-color="#2297d3"/><stop offset=".231373" stop-color="#1e84c6"/><stop offset=".368627" stop-color="#1c79be"/><stop offset=".521569" stop-color="#1b75bb"/><stop offset=".960784" stop-color="#2b388f"/><stop offset="1" stop-color="#2b388f"/></linearGradient><circle cx="1.417" cy="1.417" fill="url(#id0)" r="1.417"/><g id="Layer_x0020_1" fill="#fff"><path d="m1.59771 2.14188c-.124276 0-.241898-.0273307-.310528-.0529173-.0201535-.00751181-.0438307-.011315-.0703898-.011315-.0434252 0-.0884449.0102008-.124492.0212598l-.225866-.391217.0875709-.0505669c.0957756-.0654843.199177-.0986811.307287-.0986811.10815 0 .180512.0339173.183543.0353622.0733583.0289567.191315.0743425.210409.0784016.0503071.0106811.0842362.0430551.080685.0769606-.00166929.0159134-.0144331.0529449-.0967677.0529449-.0449449 0-.102512-.0111575-.171067-.0331575-.0204488-.00655512-.0328031-.00791339-.0395984-.00791339-.00774803 0-.0100236.00170472-.0100551.00172047-.00412598.00957087.0230709.0603189.0697638.0896102.0482756.0302638.105154.0456102.169094.0455945.0730709 0 .128528-.0203622.129079-.0205669l.276-.108248c.0188189-.00737795.036748-.0111417.0532717-.0111417.0379843 0 .0668465.0202126.0753189.0527244.00930709.035748-.00873622.0871535-.0700276.121402-.0391772.0219173-.108689.0626417-.21726.13222-.0802913.0514331-.183248.0775236-.305972.0775236z"/><path d="m.892425 2.26998c-.00691732 0-.0136378-.00359449-.0173465-.0100118l-.262969-.455469c-.00551181-.00955118-.00225197-.0217874.00731496-.027315l.163374-.0943346c.00459843-.00266929.0100709-.00337795.0151811-.002.00512598.00137402.00950394.00472441.0121535.00931496l.262969.45548c.00551181.00955512.00225197.0217913-.0073189.0273189l-.163374.0943189c-.00314961.00183858-.00659055.00269685-.00998425.00269685z"/><path d="m1.06691 1.22948v-.0130354c0-.0110394-.00896063-.02-.02-.02-.00687008 0-.0129291.0034685-.0165315.00874803-.0180472-.0148898-.0335906-.0327087-.0459291-.0527008.0293386-.0322717.0693425-.0514213.111488-.0514213h.0234449c.00574803 0 .0112087.00247244.0150039.00677559l.0115512.0131024v.131878c-.0282953-.00257874-.0550079-.0107283-.0790276-.0233465zm.119028-.108504.0115709-.0131299c.0037874-.00430315.00926378-.00677559.015-.00677559h.0222205c.0421417 0 .0821417.0191496.111476.0514134-.0123346.0199961-.027878.037815-.0459252.0527087-.00360236-.00527559-.00966142-.00874016-.0165276-.00874016-.0110394 0-.02.00896063-.02.02v.0130236c-.0236732.0124409-.0499646.0205433-.077815.0232402v-.13174z"/><path d="m1.16533 1.09626c-.0473307 0-.0832638-.0419016-.099874-.086252-.0171654-.00840551-.0283858-.0258465-.0283858-.045748 0-.0121535.00430315-.0235984.011748-.0325748-.0302362-.0587992.00426772-.12022.0641339-.113303.0410512-.0335551.0965472.00514567.128484.00875591.0593031.00670079.0557244.0627047.0386496.102547.00851575.00923622.0135.0214843.0135.034563 0 .0199173-.0112205.0373622-.0283858.045748-.0166063.044374-.0525354.0862638-.0998701.0862638zm-.0392047-.18172c-.0217717.014937-.0326772.0354252-.042378.0395984-.00983071.00422835-.00835827.018563.00191339.0208622.00698819.00157087.0126102.00675197.0147362.0135945.0276811.089248.102201.0892244.129906 0 .00549606-.0177047.023315-.00957087.023315-.0243307 0-.00331496-.00148425-.00640157-.00397244-.00845669-.0566339-.0002126-.0980787-.0140787-.12352-.0412677z"/><path d="m1.18133 1.52382h-.00001575l-.0433898-.00001575c-.0312756 0-.0568346-.0210315-.062126-.051122l-.0151654-.0865c-.0257795-.00738976-.050622-.0176969-.074126-.0307362l-.0726811.0510551c-.0236969.0166693-.0572913.0137087-.0786063-.00762598l-.0306693-.0306654c-.022126-.022126-.0253307-.0550551-.0077874-.0800827l.0504449-.0719016c-.0130394-.0235118-.0233583-.0483622-.0307677-.0741496l-.0874173-.0152756c-.0295512-.00516535-.0501929-.0302362-.0502087-.0609724v-.0433898c0-.0312913.0210315-.0568465.051122-.062126l.0864882-.0151654c.0073937-.0257638.0176969-.050622.0307362-.0741339l-.0510551-.0726654c-.0172323-.0245591-.0141102-.056878.00762598-.0786102l.030685-.0306654c.0217047-.0217205.0558976-.024752.0800669-.00777953l.0719291.0504449c.0235118-.0130394.0483465-.0233504.074126-.030752l.0152756-.0874409c.00516535-.0295433.0302362-.0501772.0609882-.0501772l.043378-.00001181c.0312913 0 .0568465.0210118.062126.0511142l.0151654.0864961c.0257795.00738976.050626.0176969.0741378.0307362l.0726654-.0510551c.0237362-.0166496.0572913-.0136811.0786063.00761024l.0306811.0306929c.022126.022126.0253189.0550551.00777953.0800669l-.0504449.0719173c.0130394.0235.0233583.0483465.0307677.0741339l.0874331.0152756c.0295433.00516535.0501772.0302362.0502087.0609724l-.00001575.0434016c0 .0312874-.0210276.0568307-.051122.062122l-.0865.0151811c-.00740157.0257795-.0176929.0506417-.0307323.074126l.0510669.0726654c.0172362.0245433.0141024.0568622-.0076378.0786102l-.030689.0306811c-.0217087.0217047-.055874.0247244-.0800591.00779134l-.0719134-.0504488c-.0235039.0130394-.0483465.0233622-.0741378.0307677l-.0152756.0874173c-.00515354.0295197-.0302205.0501614-.0609606.050189zm-.016-.734835c-.13915 0-.252366.113217-.252366.252366 0 .13915.113217.252366.252366.252366.139161 0 .25237-.113217.25237-.252366.00001575-.139157-.113205-.252366-.25237-.252366z"/><path d="m1.74061 1.06309h-.121331c-.0110394 0-.02-.00896063-.02-.02 0-.0110394.0089685-.02.02-.02h.121331c.0110394 0 .02.00896063.02.02 0 .0110394-.00895669.02-.02.02z"/><path d="m2.02332 1.36392h-.205035c-.0110394 0-.02-.00896063-.02-.0199961v-.223154c0-.0110394.0089685-.02.02-.02.0110276 0 .02.00896063.02.02v.203154h.185028c.0110394 0 .02.00896063.02.02 0 .0110354-.00894488.0199961-.0199921.0199961zm-.205035-.378492c-.0110394 0-.02-.00896063-.02-.02v-.222209c0-.0110394.0089685-.02.02-.02h.205035c.0110394 0 .02.00896063.02.02 0 .0110394-.0089685.02-.02.02h-.18502v.202209c-.00001575.0110551-.00897638.02-.0200157.02z"/><path d="m2.11361.853504c-.0608189 0-.110303-.0494685-.110303-.110291 0-.0608228.0494843-.110295.110303-.110295.0608189 0 .110291.0494882.110291.110295 0 .0608071-.0494724.110291-.110291.110291z"/><path d="m2.11361 1.45422c-.0608189 0-.110303-.0494882-.110303-.110303 0-.0608189.0494843-.110295.110303-.110295.0608189 0 .110291.0494685.110291.110295 0 .0608228-.0494724.110303-.110291.110303z"/><path d="m1.81828 1.14077c-.0538465 0-.0976693-.0438228-.0976693-.0976693s.0438228-.0976693.0976693-.0976693c.0538622 0 .0976772.0438228.0976772.0976693s-.0438189.0976693-.0976772.0976693z"/></g></svg>