<svg id="Layer_1" enable-background="new 0 0 512 512" height="300" viewBox="0 0 512 512" width="300" xmlns="http://www.w3.org/2000/svg" version="1.1" xmlns:xlink="http://www.w3.org/1999/xlink" xmlns:svgjs="http://svgjs.dev/svgjs"><g width="100%" height="100%" transform="matrix(1,0,0,1,0,0)"><g><path d="m321.7 84.1h-131.4c-58.6 0-106.2 47.6-106.2 106.2v131.4c0 58.6 47.6 106.2 106.2 106.2h131.4c58.6 0 106.2-47.6 106.2-106.2v-131.4c0-58.5-47.7-106.2-106.2-106.2zm67.9 237.6c0 37.4-30.5 67.9-67.9 67.9h-131.4c-37.4 0-67.9-30.5-67.9-67.9v-131.4c0-37.4 30.5-67.9 67.9-67.9h131.4c37.4 0 67.9 30.5 67.9 67.9z" fill="#ffffff" fill-opacity="1" data-original-color="#000000ff" stroke="none" stroke-opacity="1"/><path d="m256 168.1c-48.4 0-87.9 39.4-87.9 87.9s39.4 87.9 87.9 87.9 87.9-39.4 87.9-87.9-39.5-87.9-87.9-87.9zm0 141.3c-29.4 0-53.4-23.9-53.4-53.4 0-29.4 23.9-53.4 53.4-53.4 29.4 0 53.4 23.9 53.4 53.4 0 29.4-24 53.4-53.4 53.4z" fill="#ffffff" fill-opacity="1" data-original-color="#000000ff" stroke="none" stroke-opacity="1"/><ellipse cx="348.3" cy="163" rx="14.9" ry="14.9" transform="matrix(.987 -.16 .16 .987 -21.617 57.896)" fill="#ffffff" fill-opacity="1" data-original-color="#000000ff" stroke="none" stroke-opacity="1"/></g></g></svg>