<svg clip-rule="evenodd" fill-rule="evenodd" height="2.833in" image-rendering="optimizeQuality" shape-rendering="geometricPrecision" text-rendering="geometricPrecision" viewBox="0 0 2.83333 2.83333" width="2.833in" xmlns="http://www.w3.org/2000/svg" xmlns:xlink="http://www.w3.org/1999/xlink"><linearGradient id="id0" gradientUnits="userSpaceOnUse" x1="0" x2="2.833" y1="1.417" y2="1.417"><stop offset="0" stop-color="#26a9e0"/><stop offset=".0901961" stop-color="#2297d3"/><stop offset=".231373" stop-color="#1e84c6"/><stop offset=".368627" stop-color="#1c79be"/><stop offset=".521569" stop-color="#1b75bb"/><stop offset=".960784" stop-color="#2b388f"/><stop offset="1" stop-color="#2b388f"/></linearGradient><circle cx="1.417" cy="1.417" fill="url(#id0)" r="1.417"/><g id="Layer_x0020_1" fill="#fff"><path d="m.797091 1.58532c.0370591-.0748346.114791-.125929.201173-.125929h.0764843l.0494567.118031-.279177.00000394c-.0163031 0-.0325197.00274016-.047937.0078937zm.32102-.125933h.0152008c.0177598.0507638.0789646.0890472.142366.0890472.0634134 0 .124602-.0382795.142362-.0890472h.0149685l-.0492756.118031-.216165.00000394-.0494567-.118035zm.358224 0h.0023189.0744291c.0862638 0 .163972.0510079.201079.125732-.0152126-.0050315-.0312087-.00770472-.0472835-.00770472l-.279807.00000394.0492638-.118031z"/><path d="m1.27569 1.42677c-.121969 0-.21811-.1205-.255803-.232453-.00207087-.00616535-.0010315-.0129567.00281496-.0182047.0242874-.0331299.0317402-.130098.0325591-.164661.00019291-.00819291.00535827-.0154409.0130354-.0182756.00769291-.00283071.0163307-.00070866.0217992.00537402.0362126.0402441.101602.0606496.194319.0606496.100445 0 .195626-.0249213.196571-.025189.00634646-.00165354.0130787-.00013386.0180787.00408268.00498819.00423622.00758268.0106496.00696063.0171614-.00838583.0865079.0167283.140409.0177992.142654.00238976.005.00259843.010748.00056693.0158976-.0415354.105996-.134567.212965-.248701.212965zm-.214791-.236299c.0351299.0962087.115622.196291.214776.196291.092748 0 .170618-.0892402.208457-.180075-.00715354-.0182559-.0215079-.0634134-.0196654-.127787-.0366811.00784646-.106307.0202598-.180059.0202598-.0822165 0-.14639-.015374-.19152-.0457953-.0034252.0408031-.0117835.101437-.0319882.137106z"/><path d="m1.56108 1.14979c-.00053937 0-.00109843-.00001575-.00165354-.00006693-.00709449-.00058268-.0132441-.00488583-.016315-.0111535h-.00745276c-.0110354 0-.0199961-.00895669-.0199961-.0199921v-.024563c0-.133547-.10865-.242193-.242193-.242193-.133559 0-.242213.10865-.242213.242193v.024563c0 .0110354-.00895669.0199921-.0199921.0199921h-.0124016c-.0075 0-.0143583-.00417717-.0177756-.0108425-.0394331-.0766614-.0788661-.181921-.0427559-.248126.017315-.031752.0490866-.0508031.0944724-.0567087.0922559-.0888504.191543-.135768.287531-.135768.100642 0 .193087.0531535.247335.142197.0579646.0951575.0621575.210913.011185.309638-.00344488.00669685-.0103346.0108307-.0177756.0108307zm-.0254213-.0112205h-.0501811c-.0104094 0-.0190906-.00799606-.019937-.0183819-.00107874-.0135394-.00144094-.0273543-.00105512-.0412638-.0366693.00784646-.106315.0202559-.180075.0202559 0 0-.00001575 0-.00002756 0-.0822717 0-.146457-.0153976-.191583-.0458622-.00176378.0207283-.00480315.0467559-.00992913.0718268-.00220866.0108031-.0127205.0177441-.023563.0155945-.00209843-.00043307-.00405906-.00116535-.00583071-.00216929h-.0422126c-.0110394 0-.0199961-.00895669-.0199961-.0199921v-.024563c0-.15561.126591-.282181.282201-.282181s.282201.126587.282201.282181v.024563c-.00000787.0110394-.00897638.0199921-.0200118.0199921z"/><path d="m1.06958 1.27728h-.0702992c-.0201299 0-.0365197-.0163819-.0365197-.0365197v-.106071c0-.0199094.0162047-.0361142.0361142-.0361142l.0649449.00000394c.0110354 0 .0199921.00895669.0199921.0199961 0 .0110354-.00895669.0199921-.0199921.0199921h-.0189252c-.0046811.0131969-.0100551.0245157-.0162008.0328976-.00535827.00731102-.00680709.0167717-.00392126.0253622.00452362.013437.00965354.0269646.0153622.0404646h.0294606c.0110394 0 .0199961.00895669.0199961.0199961 0 .0110354-.0089685.0199921-.0200118.0199921z"/><path d="m1.54534 1.27728h-.0635512c-.0110354 0-.0199961-.00895669-.0199961-.0199921 0-.0094685.00659449-.0174055.0154331-.0194724.0059685-.0179252.0134961-.0407874.013248-.0414094-.00116535-.00292913-.00577165-.0376378-.00842126-.0581299-.00941339-.00162205-.0165787-.00983071-.0165787-.0197008 0-.0110394.0089685-.0199961.0199921-.0199961h.0602638c.0199252 0 .036126.0162047.036126.0361142v.106071c0 .0201339-.0163858.0365157-.0365157.0365157z"/><path d="m1.35847 1.30598c-.0153701 0-.0317992-.00048819-.0493465-.00156693-.0110276-.00068504-.0193976-.0101654-.0187205-.0211929.00068504-.0110276.0103622-.0193543.0211929-.0187205.143791.00888583.204205-.0242874.204803-.0246181.00959449-.00542913.0217992-.00205512.0272402.00755512.00544488.0096063.00205906.021815-.00755118.0272559-.00251181.00142126-.0568425.0312874-.177618.0312874z"/><path d="m1.2723 1.33807c-.0321732 0-.0583465-.0261693-.0583465-.0583465 0-.0321732.0261693-.0583465.0583465-.0583465.0321732 0 .0583425.0261732.0583425.0583465 0 .0321772-.0261693.0583465-.0583425.0583465z"/><path d="m1.84833 2.26976h-1.1453c-.0455709 0-.0826614-.0370866-.0826614-.0826614 0-.0455827.0370748-.0826693.0826614-.0826693h1.1453c.0455748 0 .0826614.0370866.0826614.0826693 0 .0455906-.0370866.0826614-.0826614.0826614z"/><path d="m.768354 2.06443-.0320157-.336339c-.00253937-.0267598.00651575-.053.0255079-.0738819.0209528-.0230315.0520512-.0367913.0831811-.0367913l.86185-.00001181c.0309803 0 .0619173.0136929.0827559.0366142.0188976.0207717.0279213.0468898.0253819.0735236l-.0320197.336886h-.432169v-.0606299c.053748-.0274567.0906299-.083374.0906339-.14774.00000787-.117732-.130614-.191484-.130614-.134992v.114972l-.0703425.00000394v-.114969c0-.0141693-.0144567-.0238858-.027563-.0185118-.141031.0578622-.127992.24485-.0124252.302319v.0595472h-.432161zm.542492 0h-.0703425v-.0460079l.0351732.00342913.0351693-.00375197v.0463307zm-.0864134-.0930157c.0128386.00261024.0298465.0141969.0649646.00974016.0153071-.00235039.0268268-.00752756.0363661-.00924016.0829803-.0353661.106657-.156291.0250866-.216807v.100957c0 .0110394-.00895669.0199961-.0199921.0199961h-.110335c-.0110512 0-.0199921-.009-.0199921-.0200118v-.100957c-.0812126.0602598-.0580945.180311.0239016.216323z"/><path d="m1.73008 1.0937c-.00296063 0-.00592913-.00064961-.00868898-.00198425-.00683465-.00329134-.0112205-.0101732-.0112874-.0177756l-.00126772-.105287h-.0221614c-.0236024 0-.0428228-.0192008-.0428228-.0428071v-.319469c0-.0236063.0192205-.0428071.0428228-.0428071h.483465c.0236024 0 .0428228.0192008.0428228.0428071v.319453c0 .0236063-.0192205.0428071-.0428228.0428071h-.272138l-.155677.120854c-.00355118.00277559-.00788189.00420866-.0122441.00420866zm.391406-.413858h-.259902c-.0110394 0-.0199961-.00896063-.0199961-.0199961 0-.0110354.0089685-.0199921.0199961-.0199921h.259902c.0110354 0 .0199921.00895669.0199921.0199921 0 .0110354-.00895276.0199961-.0199921.0199961zm-.342488 0h-.0436535c-.0110354 0-.0199921-.00896063-.0199921-.0199961 0-.0110354.0089685-.0199921.0199921-.0199921h.0436535c.0110354 0 .0199921.00895669.0199921.0199921 0 .0110354-.00895669.0199961-.0199921.0199961zm.342472.0708425h-.0436378c-.0110354 0-.0199961-.00896063-.0199961-.0199961 0-.0110354.0089685-.0199961.0199961-.0199961h.0436378c.0110354 0 .0199921.00896063.0199921.0199961 0 .0110354-.00895276.0199961-.0199921.0199961zm-.126228 0h-.259913c-.0110354 0-.0199921-.00896063-.0199921-.0199961 0-.0110354.0089685-.0199961.0199921-.0199961h.259913c.0110354 0 .0199921.00896063.0199921.0199961 0 .0110354-.00895276.0199961-.0199921.0199961zm.126244.0708386h-.259902c-.0110394 0-.0199961-.00895669-.0199961-.0199921 0-.0110394.0089685-.0199961.0199961-.0199961h.259902c.0110354 0 .0199921.00895669.0199921.0199961 0 .0110354-.00895276.0199921-.0199921.0199921zm-.342488 0h-.0436535c-.0110354 0-.0199921-.00895669-.0199921-.0199921 0-.0110394.0089685-.0199961.0199921-.0199961h.0436535c.0110354 0 .0199921.00895669.0199921.0199961 0 .0110354-.00895669.0199921-.0199921.0199921zm.342472.0708307h-.0436378c-.0110354 0-.0199961-.00895669-.0199961-.0199921 0-.0110394.0089685-.0199961.0199961-.0199961h.0436378c.0110354 0 .0199921.00895669.0199921.0199961 0 .0110354-.00895276.0199921-.0199921.0199921zm-.126228 0h-.259913c-.0110354 0-.0199921-.00895669-.0199921-.0199921 0-.0110394.0089685-.0199961.0199921-.0199961h.259913c.0110354 0 .0199921.00895669.0199921.0199961 0 .0110354-.00895276.0199921-.0199921.0199921z"/></g></svg>