<svg id="Layer_6" enable-background="new 0 0 64 64" height="512" viewBox="0 0 64 64" width="512" xmlns="http://www.w3.org/2000/svg"><g><g><g><path d="m47.4 15.75c1.01 4.49 3.6 16.43 3.6 21.25 0 .34-.05.68-.15 1.03-.28-.02-.56-.03-.85-.03-1.46 0-2.85.26-4.15.74.71-.79 1.08-1.38 1.15-1.74 0-3.75-1.92-13.26-3.2-19.04-4.1-.2-8.06-1.3-11.66-3.23-.05-.02-.09-.05-.14-.07-3.64 1.97-7.65 3.1-11.8 3.3-1.28 5.78-3.2 15.27-3.21 18.95.26 1.32 4.06 5.36 13.16 10.59.56.33 1.2.5 1.85.5s1.29-.17 1.85-.5c2.28-1.3 4.21-2.54 5.84-3.67-1.02 1.72-1.63 3.72-1.68 5.86h-.01c-.82.5-1.56.94-2.18 1.29-1.16.67-2.48 1.02-3.82 1.02-1.35 0-2.68-.36-3.85-1.03-4.4-2.53-15.15-9.2-15.15-13.97 0-4.82 2.59-16.76 3.6-21.25.23-1.03 1.14-1.75 2.19-1.75 2.35 0 4.67-.35 6.9-1.02 2.23-.68 4.35-1.68 6.31-2.98 1.96 1.3 4.08 2.3 6.31 2.98 2.23.67 4.55 1.02 6.9 1.02 1.05 0 1.96.72 2.19 1.75z" fill="#a0d468"/></g><g><path d="m43.8 17.96c-4.1-.2-8.06-1.3-11.66-3.23-.05-.02-.09-.05-.14-.07-3.64 1.97-7.65 3.1-11.8 3.3-1.28 5.78-3.2 15.27-3.21 18.95.26 1.32 4.06 5.36 13.16 10.59.56.33 1.2.5 1.85.5s1.29-.17 1.85-.5c2.28-1.3 4.21-2.54 5.84-3.67h.01c1.4-2.33 3.57-4.14 6.15-5.09.71-.79 1.08-1.38 1.15-1.74 0-3.75-1.92-13.26-3.2-19.04z" fill="#e6e9ed"/></g><g><path d="m50.85 38.03c6.23.43 11.15 5.63 11.15 11.97 0 6.63-5.37 12-12 12s-12-5.37-12-12c0-.1 0-.21.01-.31.05-2.14.66-4.14 1.68-5.86h.01c1.4-2.33 3.57-4.14 6.15-5.09 1.3-.48 2.69-.74 4.15-.74.29 0 .57.01.85.03z" fill="#fcd770"/></g></g><g><path d="m54 46.905c0-1.84-1.284-3.378-3-3.789v-2.116h-2v2.117c-1.716.411-3 1.948-3 3.789 0 1.684 1.073 3.173 2.67 3.705l2.026.676c.78.26 1.303.987 1.303 1.809.001 1.05-.854 1.904-1.905 1.904h-.188c-1.051 0-1.906-.854-1.906-1.905v-1.095h-2v1.095c0 1.84 1.284 3.378 3 3.789v2.116h2v-2.117c1.716-.411 3-1.948 3-3.789 0-1.684-1.073-3.173-2.67-3.705l-2.026-.676c-.781-.259-1.304-.986-1.304-1.808 0-1.051.855-1.905 1.906-1.905h.188c1.051 0 1.906.854 1.906 1.905v.095z"/><path d="m51.987 37.168c.003-.055.013-.113.013-.168 0-4.885-2.535-16.645-3.624-21.473-.336-1.488-1.637-2.527-3.165-2.527-4.52 0-8.896-1.325-12.656-3.832l-.555-.37-.555.37c-3.759 2.507-8.136 3.832-12.656 3.832-1.528 0-2.829 1.039-3.165 2.527-1.089 4.828-3.624 16.588-3.624 21.473 0 5.08 9.808 11.477 15.655 14.838 1.322.76 2.824 1.162 4.345 1.162 1.52 0 3.014-.397 4.322-1.148.23-.133.495-.288.758-.442.705 6.507 6.228 11.59 12.92 11.59 7.168 0 13-5.832 13-13 0-6.491-4.787-11.87-11.013-12.832zm-16.661 12.949c-2.011 1.155-4.636 1.16-6.674-.014-9.038-5.195-14.652-10.215-14.652-13.103 0-4.815 2.736-17.316 3.575-21.033.129-.57.628-.967 1.214-.967 4.695 0 9.249-1.314 13.211-3.809 3.962 2.495 8.516 3.809 13.211 3.809.586 0 1.085.397 1.214.967.839 3.717 3.575 16.218 3.575 21.033-.688 0-1.358.069-2.017.173l.017-.173c0-4.216-2.255-14.867-3.224-19.251l-.165-.744-.762-.039c-4.017-.202-7.843-1.272-11.374-3.182l-.475-.257-.476.257c-3.531 1.909-7.357 2.979-11.374 3.182l-.761.039-.165.744c-.969 4.382-3.224 15.021-3.23 19.161l.018.191c.36 1.858 4.781 6.178 13.638 11.27.716.411 1.529.629 2.35.629.822 0 1.635-.218 2.351-.63 1.094-.629 2.145-1.26 3.146-1.89-.238.843-.39 1.719-.452 2.621-.633.382-1.225.732-1.719 1.016zm3.676-7.017c-1.693 1.165-3.59 2.353-5.648 3.536-.111.064-.235.098-.354.144v-22.78h-2v22.781c-.119-.047-.242-.08-.354-.144-8.93-5.134-12.323-8.92-12.651-9.851.05-3.891 2.147-13.873 3.021-17.871 3.488-.267 6.835-1.154 9.984-2.634v5.719h2v-5.719c3.149 1.479 6.496 2.367 9.984 2.634.872 3.994 2.963 13.964 3.015 17.938-.054.124-.247.467-.766 1.065-2.588 1.025-4.765 2.854-6.231 5.182zm10.998 17.9c-6.065 0-11-4.935-11-11s4.935-11 11-11 11 4.935 11 11-4.935 11-11 11z"/><path d="m3 32c0-15.99 13.009-29 29-29 13.049 0 24.556 8.782 27.982 21.355l1.93-.525c-3.663-13.442-15.963-22.83-29.912-22.83-17.093 0-31 13.906-31 31s13.907 31 31 31v-2c-15.991 0-29-13.01-29-29z"/><path d="m7 32c0-13.785 11.215-25 25-25s25 11.215 25 25v2.414l5.707-5.707-1.414-1.414-2.392 2.392c-1.177-13.809-12.793-24.685-26.901-24.685-14.888 0-27 12.112-27 27s12.112 27 27 27v-2c-13.785 0-25-11.215-25-25z"/><path d="m34 57h2v2h-2z"/></g></g></svg>