<svg id="_x33_0" enable-background="new 0 0 62 62" height="512" viewBox="0 0 62 62" width="512" xmlns="http://www.w3.org/2000/svg"><g><g><g><path d="m7 53v7c0 .55-.45 1-1 1h-2c-.55 0-1-.45-1-1v-46c0-.55.45-1 1-1h1 1c.55 0 1 .45 1 1v1 18 4 6 6z" fill="#969faa"/></g><g><circle cx="5" cy="5" fill="#fcd770" r="4"/></g><g><path d="m61 49v3c0 .55-.45 1-1 1h-53v-4z" fill="#ff826e"/></g><g><path d="m7 37h54v6h-54z" fill="#ff826e"/></g><g><path d="m27 25h34v6h-34z" fill="#ff826e"/></g><g><path d="m61 16v3h-34v-4h33c.55 0 1 .45 1 1z" fill="#ff826e"/></g><g><path d="m7 43h54v6h-54z" fill="#e6e9ed"/></g><g><path d="m61 31v6h-54v-4h19c.55 0 1-.45 1-1v-1z" fill="#e6e9ed"/></g><g><path d="m27 19h34v6h-34z" fill="#e6e9ed"/></g><g><path d="m27 25v6 1c0 .55-.45 1-1 1h-19v-18h20v4z" fill="#75b1f2"/></g></g><g><path d="m60 14h-52c0-1.103-.897-2-2-2v-2.101c2.279-.465 4-2.485 4-4.899 0-2.757-2.243-5-5-5s-5 2.243-5 5c0 2.414 1.721 4.434 4 4.899v2.101c-1.103 0-2 .897-2 2v46c0 1.103.897 2 2 2h2c1.103 0 2-.897 2-2v-6h52c1.103 0 2-.897 2-2v-36c0-1.103-.897-2-2-2zm-58-9c0-1.654 1.346-3 3-3s3 1.346 3 3-1.346 3-3 3-3-1.346-3-3zm58 13h-32v-2h32zm-52 24v-4h52v4zm52 2v4h-52v-4zm-52-8v-2h18c1.103 0 2-.897 2-2h32v4zm20-6v-4h32v4zm0-6v-4h32v4zm-2-8v16h-18v-16zm-22 44v-46h2l.001 46zm4-8v-2h52v2z"/><path d="m10 18h2v2h-2z"/><path d="m16 18h2v2h-2z"/><path d="m22 18h2v2h-2z"/><path d="m10 23h2v2h-2z"/><path d="m16 23h2v2h-2z"/><path d="m22 23h2v2h-2z"/><path d="m10 28h2v2h-2z"/><path d="m16 28h2v2h-2z"/><path d="m22 28h2v2h-2z"/></g></g></svg>