<svg id="Layer_5" enable-background="new 0 0 64 64" height="512" viewBox="0 0 64 64" width="512" xmlns="http://www.w3.org/2000/svg"><g><g><g><path d="m30 56h19v4h-17v-2c0-1.11-.9-2-2-2z" fill="#aab2bd"/></g><g><path d="m56 48v4c0 2.21-1.79 4-4 4h-3-19-4-2c-.45-3.19-2.1-6.03-4.54-8z" fill="#ccd1d9"/></g><g><path d="m19.46 48c2.44 1.97 4.09 4.81 4.54 8h-8v-7c0-.83-.34-1.58-.88-2.12s-1.29-.88-2.12-.88h1 2l.5.21c1.08.46 2.07 1.07 2.96 1.79z" fill="#fcd770"/></g><g><path d="m26 56v4 2h-10c-3.31 0-6-2.69-6-6v-7c0-1.66 1.34-3 3-3 .83 0 1.58.34 2.12.88s.88 1.29.88 2.12v7h8z" fill="#fcd770"/></g><g><path d="m28 26.44v2.06c0 .5-.04.99-.11 1.48-.16 1.13-.5 2.23-1.01 3.24-.73-.75-1.75-1.22-2.88-1.22v-1.95c0-1.12-.45-2.13-1.18-2.87-.74-.73-1.74-1.18-2.86-1.18-.63 0-1.25.15-1.81.43l-2.68 1.33c-2.94 1.47-6.18 2.24-9.47 2.24v2c-1.13 0-2.15.47-2.88 1.22-.73-1.45-1.12-3.07-1.12-4.72 0-4.69 3.81-8.5 8.5-8.5h2.45c.69 0 1.35-.2 1.92-.58 1.39-.93 3.02-1.42 4.69-1.42 4.66 0 8.44 3.78 8.44 8.44z" fill="#b27946"/></g><g><path d="m56 48h-36.54c-.89-.72-1.88-1.33-2.96-1.79l-.5-.21c3.73 0 6.86-2.55 7.75-6h.25c1.1 0 2.1-.45 2.83-1.17.72-.73 1.17-1.73 1.17-2.83 0-1.08-.43-2.06-1.12-2.78.51-1.01.85-2.11 1.01-3.24l.11.02h7.42 16.58c1.16 0 2.21.49 2.93 1.29.67.71 1.07 1.67 1.07 2.71z" fill="#69d6f4"/></g><g><path d="m54.95 31.27-.02.02c-.72-.8-1.77-1.29-2.93-1.29h-16.58c-3.32-2.93-5.42-7.22-5.42-12 0-8.84 7.16-16 16-16s16 7.16 16 16c0 5.52-2.8 10.39-7.05 13.27z" fill="#4fc1e9"/></g><g><circle cx="47" cy="39" fill="#e6e9ed" r="5"/></g><g><path d="m32 58v2h-4-2v-4h4c1.1 0 2 .89 2 2z" fill="#f0d0b4"/></g><g><path d="m26.83 38.83c-.73.72-1.73 1.17-2.83 1.17h-.25c.16-.64.25-1.31.25-2v-6c1.13 0 2.15.47 2.88 1.22.69.72 1.12 1.7 1.12 2.78 0 1.1-.45 2.1-1.17 2.83z" fill="#f0d0b4"/></g><g><path d="m24 32v6c0 .69-.09 1.36-.25 2-.89 3.45-4.02 6-7.75 6h-2c-3.73 0-6.86-2.55-7.75-6-.16-.64-.25-1.31-.25-2v-6-2c3.29 0 6.53-.77 9.47-2.24l2.68-1.33c.56-.28 1.18-.43 1.81-.43 1.12 0 2.12.45 2.86 1.18.73.74 1.18 1.75 1.18 2.87z" fill="#f0d0b4"/></g><g><path d="m6.25 40h-.25c-1.1 0-2.1-.45-2.83-1.17-.72-.73-1.17-1.73-1.17-2.83 0-1.08.43-2.06 1.12-2.78.73-.75 1.75-1.22 2.88-1.22v6c0 .69.09 1.36.25 2z" fill="#f0d0b4"/></g><g><path d="m11 38h8c0 1.1-.45 2.1-1.17 2.83-.73.72-1.73 1.17-2.83 1.17-2.21 0-4-1.79-4-4z" fill="#ff826e"/></g></g><g><path d="m11 34c.552 0 1 .449 1 1h2c0-1.654-1.346-3-3-3s-3 1.346-3 3h2c0-.551.448-1 1-1z"/><path d="m19 34c.552 0 1 .449 1 1h2c0-1.654-1.346-3-3-3s-3 1.346-3 3h2c0-.551.448-1 1-1z"/><path d="m20.001 38v-1h-10v1c0 2.757 2.243 5 5 5s5-2.243 5-5zm-7.829 1h5.658c-.413 1.164-1.525 2-2.829 2s-2.416-.836-2.829-2z"/><circle cx="34" cy="52" r="1"/><circle cx="38" cy="52" r="1"/><circle cx="42" cy="52" r="1"/><path d="m47 45c3.309 0 6-2.691 6-6s-2.691-6-6-6-6 2.691-6 6 2.691 6 6 6zm0-10c2.206 0 4 1.794 4 4s-1.794 4-4 4-4-1.794-4-4 1.794-4 4-4z"/><path d="m48 39.414v-2.414h-2v1.586l-1.707 1.707 1.414 1.414z"/><path d="m31 33h8v2h-8z"/><path d="m31 37h8v2h-8z"/><path d="m31 41h8v2h-8z"/><path d="m63 18c0-9.374-7.626-17-17-17s-17 7.626-17 17c0 4.057 1.471 7.945 4.067 11h-4.096c.007-.167.029-.333.029-.5v-2.056c0-5.208-4.236-9.444-9.444-9.444-1.87 0-3.682.548-5.238 1.586-.406.271-.879.414-1.367.414h-2.45c-5.238 0-9.5 4.262-9.5 9.5 0 1.569.345 3.13.968 4.568-.602.826-.969 1.834-.969 2.932 0 2.588 1.984 4.698 4.507 4.95.801 2.299 2.507 4.172 4.692 5.196-.009.008-.019.014-.027.022-.756.757-1.172 1.761-1.172 2.83v7.001c0 3.86 3.141 7 7 7l10.999.001v-2.001h1.001v.001h26v-2h-4v-2h2c2.757 0 5-2.243 5-5v-18c0-.909-.262-1.751-.688-2.486 4.205-3.21 6.688-8.19 6.688-13.514zm-12.321 11h-9.359c-.32-.621-.615-1.284-.872-2h11.103c-.257.716-.552 1.379-.872 2zm-10.831-4c-.471-1.85-.753-3.886-.821-6h13.947c-.068 2.114-.35 4.15-.821 6zm-8.794-6h5.974c.064 2.09.319 4.123.758 6h-5.028c-.977-1.847-1.563-3.886-1.704-6zm14.946-16c2.232 0 4.254 2.387 5.546 6h-11.092c1.292-3.613 3.314-6 5.546-6zm6.159 8c.462 1.821.746 3.858.816 6h-13.951c.07-2.142.354-4.179.816-6zm8.79 6h-5.975c-.063-2.139-.322-4.16-.752-6h5.034c.961 1.812 1.55 3.845 1.693 6zm-23.923 0h-5.975c.143-2.155.732-4.188 1.693-6h5.034c-.43 1.84-.689 3.861-.752 6zm17.947 2h5.992c-.141 2.122-.728 4.161-1.698 6h-5.052c.439-1.877.694-3.91.758-6zm2.999-10h-4.308c-.658-2.023-1.528-3.762-2.566-5.089 2.759 1.002 5.137 2.785 6.874 5.089zm-17.07-5.089c-1.038 1.327-1.908 3.066-2.566 5.089h-4.308c1.737-2.304 4.115-4.087 6.874-5.089zm-6.892 23.089h4.338c.226.699.475 1.37.753 2h-3.276c-.667-.617-1.278-1.283-1.815-2zm17.99 4c1.654 0 3 1.346 3 3v13h-35.208c-.245-.188-.497-.367-.755-.539 2.549-.918 4.563-2.95 5.456-5.511 2.523-.252 4.507-2.362 4.507-4.95 0-1.097-.366-2.104-.968-2.93.289-.669.525-1.359.684-2.07zm-35.326 16.422c3.037 1.509 5.277 4.299 6.095 7.577l-5.77-.001.001-6c0-.56-.117-1.092-.326-1.576zm8.326-9.422v-4.816c1.161.414 2 1.514 2 2.816 0 1.317-.859 2.427-2.042 2.829.025-.274.042-.549.042-.829zm-14.499-17h2.45c.884 0 1.74-.259 2.477-.75 1.227-.818 2.654-1.25 4.129-1.25 4.104 0 7.444 3.339 7.444 7.444v2.056c0 1.076-.192 2.152-.55 3.169-.449-.255-.929-.461-1.451-.568v-1.056c.001-1.348-.524-2.615-1.477-3.568-.953-.952-2.219-1.477-3.567-1.477-.78 0-1.562.185-2.257.533l-2.673 1.336c-2.788 1.394-5.909 2.131-9.026 2.131h-1v2.101c-.521.106-1.001.312-1.45.567-.358-1.015-.549-2.091-.549-3.168 0-4.136 3.364-7.5 7.5-7.5zm-7.501 15c0-1.302.839-2.402 2-2.816v4.816c0 .28.017.555.042.829-1.183-.402-2.042-1.512-2.042-2.829zm4 2v-7.023c3.091-.142 6.155-.936 8.921-2.319l2.674-1.337c1.143-.573 2.606-.337 3.514.57.575.576.891 1.34.891 2.154v7.955c0 3.86-3.141 7-7 7h-2c-3.859 0-7-3.14-7-7zm17.999 23-8.999-.001c-2.757 0-5-2.243-5-5v-7.001c0-.534.208-1.036.586-1.414.378-.377.88-.585 1.413-.585h.001v.001h.019c1.094.011 1.981.902 1.981 1.998l-.001 6.586-1.707 1.709 1.416 1.413 1.706-1.708 8.585.002zm2-4 2.999-.001h.001.001v.001h.006c.265.002.513.104.7.291.188.189.293.44.293.708v1h-4zm21.001 2h-15.001v-1.001c0-.347-.069-.681-.181-.999h15.182zm4-4h-21.986c-.005 0-.01-.001-.015-.001h-.001l-3.713.001h-1.446c-.469-2.23-1.502-4.289-2.952-6h33.113v3c0 1.654-1.346 3-3 3zm2.981-24.99c-.615-.461-1.331-.784-2.117-.922.293-.655.553-1.357.789-2.087h4.341c-.848 1.128-1.857 2.143-3.013 3.009z"/></g></g></svg>