<svg id="Layer_30" enable-background="new 0 0 496 496" height="512" viewBox="0 0 496 496" width="512" xmlns="http://www.w3.org/2000/svg"><g><g><g><path d="m488 72v208c0 8.84-7.16 16-16 16h-53.39-42.61v22.11c0 2.73-1.11 5.2-2.9 6.99s-4.26 2.9-6.99 2.9c-3.74 0-7.17-2.12-8.84-5.47l-13.27-26.53h-26.61-53.39-73.01c.66-2.56 1.01-5.24 1.01-8l9.75-6.5c6.29-4.2 10.81-10.43 12.91-17.5h.01 81.33v-160h-128v28.13c-11.44-7.66-25.2-12.13-40-12.13h-24v-48z" fill="#e6e9ed"/></g><g><path d="m488 24v48h-384v-48c0-8.84 7.16-16 16-16h352c8.84 0 16 7.16 16 16z" fill="#b4dd7f"/></g><g><path d="m328 104h128v32h-128z" fill="#ef7385"/></g><g><path d="m296 104v160h-81.33c.87-2.92 1.33-6 1.33-9.13v-1.62c0-8.48-3.37-16.62-9.37-22.62l-6.63-6.63v-32c0-24.96-12.7-46.95-32-59.87v-28.13z" fill="#69d6f4"/></g><g><path d="m472 296v40l-18.85 6.28c-2.05 7.87-5.17 15.31-9.19 22.16l8.89 17.79-22.62 22.62-17.79-8.89c-6.85 4.02-14.29 7.14-22.16 9.19l-6.28 18.85h-32l-6.28-18.85c-7.87-2.05-15.31-5.17-22.16-9.19l-27.56 12.04v-48c0-8.84-7.16-16-16-16h-16v-48h53.39c-3.46 7.27-5.39 15.41-5.39 24 0 30.93 25.07 56 56 56s56-25.07 56-56c0-8.59-1.93-16.73-5.39-24z" fill="#fcd770"/></g><g><path d="m216 253.25v1.62c0 3.13-.46 6.21-1.33 9.13h-.01c-2.1 7.07-6.62 13.3-12.91 17.5l-9.75 6.5c0 2.76-.35 5.44-1.01 8-1.34 5.21-3.96 9.9-7.5 13.73-5.28 5.71-12.61 9.49-20.83 10.16l-.03.1-26.63-7.99v-11.06c0-3.03 1.71-5.8 4.42-7.15l5.47-2.73c13.55-6.78 22.11-20.63 22.11-35.78v-7.28h8c6.62 0 12.62-2.69 16.97-7.03 4.34-4.35 7.03-10.35 7.03-16.97l6.63 6.63c6 6 9.37 14.14 9.37 22.62z" fill="#b27946"/></g><g><path d="m88 300.94v11.06l-26.36 7.91c-16.57-1.21-29.64-15.03-29.64-31.91l-9.75-6.5c-8.9-5.94-14.25-15.93-14.25-26.63v-1.62c0-8.48 3.37-16.62 9.37-22.62l6.63-6.63c0 13.25 10.75 24 24 24h8v7.28c0 15.15 8.56 29 22.11 35.78l5.47 2.73c2.71 1.35 4.42 4.12 4.42 7.15z" fill="#b27946"/></g><g><path d="m200 192v32c0-13.25-10.75-24-24-24h-7.77-.23c-20.14 0-39.11-9.48-51.2-25.6l-4.8-6.4-4.8 6.4c-6.04 8.06-13.81 14.46-22.58 18.84-8.77 4.39-18.55 6.76-28.62 6.76h-8c-6.62 0-12.62 2.69-16.97 7.03-4.34 4.35-7.03 10.35-7.03 16.97v-32c0-39.76 32.24-72 72-72h8 24c14.8 0 28.56 4.47 40 12.13 19.3 12.92 32 34.91 32 59.87z" fill="#b27946"/></g><g><path d="m170.39 322.32c12.94 3.88 23.92 11.59 31.87 21.68h-2.26-16c-8.84 0-16 7.16-16 16v96h-32v-8c0-13.25-10.75-24-24-24h-8v32h-32v16h-16c-26.51 0-48-21.49-48-48v-40.38c0-28.26 18.54-53.18 45.61-61.3l8.03-2.41 26.36-7.91c0 6.62 2.69 12.62 7.03 16.97 4.35 4.34 10.35 7.03 16.97 7.03 13.25 0 24-10.75 24-24l26.63 7.99z" fill="#ef7385"/></g><g><path d="m200 456v16c0 8.84-7.16 16-16 16h-8-88c-8.84 0-16-7.16-16-16v-16h32 32 32z" fill="#969faa"/></g><g><path d="m296 456v16c0 8.84-7.16 16-16 16h-96c8.84 0 16-7.16 16-16v-16z" fill="#aab2bd"/></g><g><path d="m200 344v112h-32v-96c0-8.84 7.16-16 16-16z" fill="#aab2bd"/></g><g><path d="m296 408v48h-96v-112h2.26 61.74 16c8.84 0 16 7.16 16 16z" fill="#ccd1d9"/></g><g><circle cx="248" cy="392" fill="#69d6f4" r="16"/></g><g><path d="m136 448v8h-32v-32h8c13.25 0 24 10.75 24 24z" fill="#f0d0b4"/></g><g><path d="m176 200c13.25 0 24 10.75 24 24 0 6.62-2.69 12.62-7.03 16.97-4.35 4.34-10.35 7.03-16.97 7.03h-8v-48h.23z" fill="#f0d0b4"/></g><g><path d="m56 200c10.07 0 19.85-2.37 28.62-6.76 8.77-4.38 16.54-10.78 22.58-18.84l4.8-6.4 4.8 6.4c12.09 16.12 31.06 25.6 51.2 25.6v48 7.28c0 15.15-8.56 29-22.11 35.78l-5.47 2.73c-2.71 1.35-4.42 4.12-4.42 7.15v11.06c0 13.25-10.75 24-24 24-6.62 0-12.62-2.69-16.97-7.03-4.34-4.35-7.03-10.35-7.03-16.97v-11.06c0-3.03-1.71-5.8-4.42-7.15l-5.47-2.73c-13.55-6.78-22.11-20.63-22.11-35.78v-7.28z" fill="#f0d0b4"/></g><g><path d="m56 200v48h-8c-13.25 0-24-10.75-24-24 0-6.62 2.69-12.62 7.03-16.97 4.35-4.34 10.35-7.03 16.97-7.03z" fill="#f0d0b4"/></g></g><g><path d="m248 368c-13.233 0-24 10.767-24 24s10.767 24 24 24 24-10.767 24-24-10.767-24-24-24zm0 32c-4.411 0-8-3.589-8-8s3.589-8 8-8 8 3.589 8 8-3.589 8-8 8z"/><path d="m128 246.112c-3.05 6.099-9.181 9.888-16 9.888s-12.95-3.79-16-9.889l-.846-1.691-14.309 7.16.843 1.686c5.779 11.555 17.393 18.734 30.312 18.734 12.92 0 24.534-7.178 30.311-18.732l.845-1.689-14.311-7.156z"/><path d="m472 0h-352c-13.233 0-24 10.766-24 24v88c-44.112 0-80 35.888-80 80v28.687l-4.283 4.284c-7.556 7.553-11.717 17.598-11.717 28.284v1.619c0 13.404 6.659 25.846 17.813 33.282l6.437 4.291c1.22 10.861 6.858 20.5 15.102 26.995-9.848 4.99-18.398 12.169-25.116 21.197-9.313 12.516-14.236 27.379-14.236 42.979v40.382c0 30.879 25.121 56 56 56h9.376c3.303 9.311 12.195 16 22.624 16h87.999 8.001 96c13.233 0 24-10.767 24-24v-16-8-34.765l19.126-8.355c5.229 2.771 10.697 5.047 16.335 6.801l6.773 20.319h43.531l6.773-20.319c5.554-1.728 10.941-3.962 16.1-6.677l19.167 9.583 30.781-30.781-9.583-19.167c2.715-5.158 4.949-10.546 6.677-16.1l20.32-6.773v-39.142c9.311-3.303 16-12.195 16-22.624v-256c0-13.234-10.767-24-24-24zm-352 16h352c4.411 0 8 3.589 8 8v40h-368v-40c0-4.411 3.589-8 8-8zm-24 112h32c35.29 0 64 28.71 64 64v4.305c-4.711-2.732-10.174-4.305-16-4.305h-7.766-.234c-17.532 0-34.28-8.374-44.8-22.4l-11.2-14.933-11.2 14.933c-10.52 14.026-27.268 22.4-44.8 22.4h-8c-5.826 0-11.289 1.573-16 4.305v-4.305c0-35.29 28.71-64 64-64zm116.284 96.971-4.284-4.284v-28.687c0-26.116-12.582-49.346-32-63.956v-16.044h112v144h-64.035c.01-.376.035-.749.035-1.126v-1.619c0-10.686-4.161-20.731-11.716-28.284zm-4.284 28.284v1.619c0 8.042-3.995 15.508-10.688 19.97l-13.312 8.875v4.281c0 12.027-9.101 22.246-20.907 23.775l-19.093-5.727v-5.104l5.467-2.733c16.15-8.076 26.257-24.203 26.521-42.211h.012c11.922 0 22.336-6.559 27.841-16.253 2.702 3.951 4.159 8.616 4.159 13.508zm-2.009 82.745c-6.051-6.872-13.277-12.466-21.367-16.567 5.165-4.073 9.312-9.374 11.99-15.433h59.386v32zm-13.991 16v96h-16v-88c0-4.411 3.589-8 8-8zm-49.689-68.1-5.466 2.732c-5.455 2.728-8.845 8.211-8.845 14.312v11.056c0 8.822-7.178 16-16 16s-16-7.178-16-16v-11.056c0-6.101-3.39-11.584-8.844-14.311l-5.467-2.733c-10.911-5.456-17.689-16.422-17.689-28.622v-47.73c18.702-2.118 36.096-11.58 48-26.294 11.904 14.714 29.298 24.176 48 26.294v47.73c0 12.2-6.778 23.166-17.689 28.622zm33.689-75.9c8.822 0 16 7.178 16 16s-7.178 16-16 16zm-128 32c-8.822 0-16-7.178-16-16s7.178-16 16-16zm-21.312 34.844c-6.693-4.462-10.688-11.928-10.688-19.97v-1.619c0-4.891 1.457-9.557 4.16-13.508 5.505 9.694 15.918 16.253 27.84 16.253h.013c.264 18.008 10.37 34.135 26.521 42.211l5.466 2.733v5.104l-19.148 5.744c-11.798-1.548-20.852-11.741-20.852-23.792v-4.281zm-10.688 149.156v-40.382c0-24.922 16.038-46.478 39.908-53.638l25.784-7.736c4.282 12.634 16.246 21.756 30.308 21.756s26.026-9.122 30.308-21.755l25.784 7.736c4.831 1.449 9.389 3.514 13.587 6.134-12.149 1.171-21.679 11.435-21.679 23.885v88h-16c0-17.645-14.355-32-32-32h-48v-48h-16v52.686l-13.657 13.656 11.314 11.314 13.656-13.656h36.687v16h-32v16h-8c-22.056 0-40-17.944-40-40zm112 24h-16v-16c8.822 0 16 7.178 16 16zm47.999 32h-87.999c-4.411 0-8-3.589-8-8v-8h112v8c0 4.411-3.589 8-8 8zm112.001-8c0 4.411-3.589 8-8 8h-73.376c.888-2.504 1.376-5.195 1.376-8v-8h80zm-80-24v-96h72c4.411 0 8 3.589 8 8v88zm238.507-111.935-1.096 4.197c-1.841 7.05-4.65 13.824-8.351 20.134l-2.194 3.743 8.252 16.506-14.473 14.473-16.506-8.252-3.743 2.194c-6.31 3.7-13.084 6.51-20.134 8.351l-4.197 1.096-5.831 17.493h-20.469l-5.831-17.493-4.197-1.096c-7.05-1.841-13.824-4.65-20.134-8.351l-3.515-2.06-20.088 8.775v-35.775c0-13.233-10.767-24-24-24h-8v-32h34.035c-1.337 5.185-2.035 10.53-2.035 16 0 35.29 28.71 64 64 64s64-28.71 64-64c0-5.47-.698-10.815-2.035-16h34.035v26.234zm-33.242-32.065c1.811 5.111 2.735 10.471 2.735 16 0 26.468-21.532 48-48 48s-48-21.532-48-48c0-5.529.924-10.889 2.735-16h16.321l11.057 22.113c3.051 6.099 9.182 9.887 15.999 9.887 9.864 0 17.889-8.024 17.889-17.889v-14.111zm58.735-16h-104v30.111c0 1.041-.848 1.889-1.889 1.889-.72 0-1.367-.4-1.689-1.043l-15.478-30.957h-142.537c6.03-4.079 10.722-9.629 13.74-16h83.853v-176h-144v22.7c-9.807-4.298-20.626-6.7-32-6.7h-16v-32h368v200c0 4.411-3.589 8-8 8z"/><path d="m128 32h16v16h-16z"/><path d="m160 32h16v16h-16z"/><path d="m192 32h16v16h-16z"/><path d="m320 144h144v-48h-144zm64-16h-16v-16h16zm16-16h16v16h-16zm48 16h-16v-16h16zm-112-16h16v16h-16z"/><path d="m320 160h144v16h-144z"/><path d="m448 192h16v16h-16z"/><path d="m320 192h112v16h-112z"/><path d="m320 224h32v16h-32z"/><path d="m368 224h96v16h-96z"/></g></g></svg>