<svg id="_x33_0" enable-background="new 0 0 64 64" height="512" viewBox="0 0 64 64" width="512" xmlns="http://www.w3.org/2000/svg"><g><g><g><path d="m62 50v4c0-2.22-6.03-4.16-15-5.2v-4c8.97 1.04 15 2.98 15 5.2z" fill="#ffeaa7"/></g><g><path d="m17 44.8v4.2c-5.99.69-10.66 1.79-13.11 3.1-1.22-.65-1.89-1.36-1.89-2.1 0-2.22 6.03-4.16 15-5.2z" fill="#ffeaa7"/></g><g><path d="m3.89 52.1c2.45 1.31 7.12 2.41 13.11 3.1v-.2-3l8 5-8 5v-2.8c-8.97-1.04-15-2.98-15-5.2v-4c0 .74.67 1.45 1.89 2.1z" fill="#ffeaa7"/></g><g><path d="m59 58-8 4v-2s-19.01.02-20 0v-4c.99.02 20 0 20 0v-2z" fill="#ffeaa7"/></g><g><path d="m8 32v8h-2c-2.21 0-4-1.79-4-4v-26c0 1.1.45 2.1 1.17 2.83.73.72 1.73 1.17 2.83 1.17h2v6z" fill="#fcd770"/></g><g><path d="m62 10v26c0 2.21-1.79 4-4 4h-2v-8-18h2c1.1 0 2.1-.45 2.83-1.17.72-.73 1.17-1.73 1.17-2.83z" fill="#fcd770"/></g><g><path d="m24 22h-1c-.55 0-1-.45-1-1v-1-1.67l-1.03-1.72c-.64-1.05-.97-2.26-.97-3.49 0-1.21.41-2.34 1.12-3.25.7-.9 1.7-1.57 2.88-1.87.24-.72.57-1.39.97-2h-.01-18.96c-2.21 0-4 1.79-4 4 0 1.1.45 2.1 1.17 2.83.73.72 1.73 1.17 2.83 1.17h2v6 12h20l.24.06.67-2.68c-2.88-1.2-4.91-4.05-4.91-7.38z" fill="#e6e9ed"/></g><g><path d="m56 14v18h-20l-.24.06-.67-2.68c.97-.4 1.84-.99 2.57-1.72 1.44-1.45 2.34-3.45 2.34-5.66h1c.55 0 1-.45 1-1v-2.67l1.03-1.72c.64-1.05.97-2.26.97-3.49 0-1.25-.44-2.43-1.2-3.35h-.01c.68-1.15 1.08-2.44 1.19-3.77h14.02c2.21 0 4 1.79 4 4 0 1.1-.45 2.1-1.17 2.83-.73.72-1.73 1.17-2.83 1.17z" fill="#e6e9ed"/></g><g><path d="m32 37 5 3 1.02-6.71 2.48.35c1.62.23 3.13.99 4.28 2.14 1.42 1.42 2.22 3.35 2.22 5.35v3.67 4 1.2h-6-18-6v-1-4.2-3.67c0-2 .8-3.93 2.22-5.35 1.15-1.15 2.66-1.91 4.28-2.14l2.48-.35 1.02 6.71z" fill="#ff826e"/></g><g><path d="m35.76 32.06.24.94-4 4-4-4 .24-.94.67-2.68c.95.4 2 .62 3.09.62s2.14-.22 3.09-.62z" fill="#f0d0b4"/></g><g><path d="m25.98 33.29 2.02-.29 4 4-5 3z" fill="#fc6e51"/></g><g><path d="m38.02 33.29-1.02 6.71-5-3 4-4z" fill="#fc6e51"/></g><g><path d="m42 2c1.1 0 2 .9 2 2v1.32c0 .23-.01.46-.02.68-.11 1.33-.51 2.62-1.19 3.77-.08.16-.18.31-.28.46-.79 1.18-1.84 2.12-3.05 2.77s-2.58 1-3.99 1c-1.37 0-2.68-.39-3.8-1.08-1.12-.7-2.05-1.7-2.67-2.92-1.89.63-3.37 2.11-4 4h-2c-.55 0-1 .45-1 1v3.33l-1.03-1.72c-.64-1.05-.97-2.26-.97-3.49 0-1.21.41-2.34 1.12-3.25.7-.9 1.7-1.57 2.88-1.87.24-.72.57-1.39.97-2 .59-.92 1.35-1.71 2.22-2.34 1.46-1.06 3.25-1.66 5.13-1.66z" fill="#b27946"/></g><g><path d="m42.8 9.77c.76.92 1.2 2.1 1.2 3.35 0 1.23-.33 2.44-.97 3.49l-1.03 1.72v-3.33c0-.55-.45-1-1-1h-5.53c1.41 0 2.78-.35 3.99-1s2.26-1.59 3.05-2.77c.1-.15.2-.3.28-.46z" fill="#b27946"/></g><g><path d="m24 22h16c0 2.21-.9 4.21-2.34 5.66-.73.73-1.6 1.32-2.57 1.72-.95.4-2 .62-3.09.62s-2.14-.22-3.09-.62c-2.88-1.2-4.91-4.05-4.91-7.38z" fill="#f0d0b4"/></g><g><path d="m35.47 14h-10.47c.63-1.89 2.11-3.37 4-4 .62 1.22 1.55 2.22 2.67 2.92 1.12.69 2.43 1.08 3.8 1.08z" fill="#f0d0b4"/></g><g><path d="m22 18.33v-3.33c0-.55.45-1 1-1h2 10.47 5.53c.55 0 1 .45 1 1v3.33 2.67c0 .55-.45 1-1 1h-1-16-1c-.55 0-1-.45-1-1v-1z" fill="#69d6f4"/></g></g><g><path d="m34 23.764c-.381.762-1.147 1.236-2 1.236s-1.619-.474-2-1.236l-.105-.211-1.789.895.105.211c.722 1.444 2.174 2.341 3.789 2.341s3.067-.897 3.789-2.342l.105-.211-1.789-.895z"/><path d="m37 17h2v2h-2z"/><path d="m29 17h6v2h-6z"/><path d="m25 17h2v2h-2z"/><path d="m58 41c2.757 0 5-2.243 5-5v-26c0-2.757-2.243-5-5-5h-13v-1c0-1.654-1.346-3-3-3h-9.675c-3.179 0-6.076 1.533-7.881 4h-18.444c-2.757 0-5 2.243-5 5v26c0 2.757 2.243 5 5 5h3v-8h12.911c-1.274.418-2.451 1.126-3.402 2.076-1.618 1.619-2.509 3.771-2.509 6.059v2.783c-7.047.876-15 2.629-15 6.082v4c0 3.453 7.954 5.208 15 6.084v3.721l10.887-6.805-9.599-6h30.712v-1.064c9.776 1.249 13 3.255 13 4.064h2v-4c0-3.453-7.953-5.206-15-6.082v-2.783c0-2.288-.891-4.439-2.509-6.059-.951-.95-2.128-1.658-3.402-2.076h12.911v8zm3-5c0 1.654-1.346 3-3 3h-1v-24h1c1.125 0 2.164-.374 3-1.002zm-18-22.877c0 .397-.054.789-.134 1.174-.259-.685-.88-1.184-1.63-1.273.538-.415 1.038-.883 1.482-1.412.181.481.282.992.282 1.511zm-2 1.877.001 6h-18.001v-6zm-4.123 19.135-.642 4.24-2.622-1.574 2.741-2.741zm-9.231-.074 2.741 2.741-2.622 1.574-.642-4.24zm7.247-1.368-2.893 2.893-2.893-2.893.506-2.025c.762.211 1.56.332 2.387.332s1.625-.121 2.386-.331zm-2.893-3.693c-3.519 0-6.432-2.613-6.92-6h13.84c-.488 3.387-3.401 6-6.92 6zm-5.367-16c.499-.723 1.153-1.333 1.939-1.738.428.66.949 1.237 1.529 1.738zm5.692-10h9.675c.551 0 1 .449 1 1v1.317c0 1.557-.457 3.065-1.32 4.361-1.387 2.08-3.708 3.322-6.208 3.322-2.377 0-4.515-1.321-5.578-3.447l-.388-.776-.823.274c-1.94.647-3.523 2.099-4.358 3.949h-1.325c-.855 0-1.58.541-1.866 1.297-.08-.385-.134-.777-.134-1.174 0-1.968 1.333-3.675 3.243-4.153l.532-.133.174-.521c1.06-3.18 4.024-5.316 7.376-5.316zm-25.325 36h-1c-1.654 0-3-1.346-3-3v-22.002c.836.628 1.875 1.002 3 1.002h1zm-1-26c-1.654 0-3-1.346-3-3s1.346-3 3-3h17.314c-.026.063-.056.122-.081.186-2.518.865-4.233 3.234-4.233 5.937 0 1.409.383 2.792 1.108 4l.892 1.487v2.39c0 1.103.897 2 2 2h.059c.333 2.996 2.14 5.552 4.679 6.924l-.269 1.076h-18.469v-18zm10 32.936v2.184c-5.351.67-9.577 1.67-12.074 2.855-.639-.395-.926-.738-.926-.975 0-.808 3.224-2.815 13-4.064zm2 7.869 5.113 3.195-5.113 3.195v-1.889l-.885-.103c-10.665-1.232-14.115-3.364-14.115-4.203v-1.271c2.979 1.825 8.777 2.871 13.885 3.462l1.115.128zm-2-2.805v3.068c-4.413-.563-7.479-1.28-9.527-1.973 2.313-.785 5.589-1.457 9.527-1.961v.06zm45-1v1.271c-2.808-1.721-8.121-2.748-13-3.355v-1.98c9.776 1.249 13 3.256 13 4.064zm-15-8.865v7.865h-4v-6h-2v6h-16v-6h-2v6h-4v-7.865c0-1.754.683-3.403 1.923-4.645.999-.998 2.318-1.657 3.715-1.856l1.504-.215 1.092 7.206 4.766-2.859v4.234h2v-4.234l4.765 2.859 1.092-7.206 1.505.215c1.397.199 2.716.858 3.714 1.856 1.241 1.241 1.924 2.891 1.924 4.645zm-9.469-10.135-.269-1.076c2.54-1.372 4.346-3.928 4.679-6.924h.059c1.103 0 2-.897 2-2v-2.39l.892-1.486c.725-1.209 1.108-2.592 1.108-4.001 0-1.221-.378-2.406-1.041-3.423.425-.855.72-1.761.883-2.7h13.158c1.654 0 3 1.346 3 3s-1.346 3-3 3h-3v18z"/><path d="m11 27h2v2h-2z"/><path d="m15 27h2v2h-2z"/><path d="m11 23h8v2h-8z"/><path d="m11 19h8v2h-8z"/><path d="m51 21h2v2h-2z"/><path d="m47 21h2v2h-2z"/><path d="m47 17h6v2h-6z"/><path d="m47 13h6v2h-6z"/><path d="m50 55.001c-3.932.004-18.146.017-18.98-.001l-1.02-.02v6l.98.02c.865.017 15.048.003 19.02.001v2.617l11.236-5.618-11.236-5.618zm2 1.998v-1.381l4.764 2.382-4.764 2.382v-1.383l-1.001.001c-.169-.001-14.945.015-18.999.005v-2c4.047.012 18.316-.004 19.001-.005z"/></g></g></svg>