<svg id="_x33_0" enable-background="new 0 0 64 64" height="512" viewBox="0 0 64 64" width="512" xmlns="http://www.w3.org/2000/svg"><g><g><g><path d="m39 48v7l-6.06 3.5c-.6-1.03-.94-2.22-.94-3.5 0-3.87 3.13-7 7-7z" fill="#fcd770"/></g><g><path d="m46 55c0 1.28-.34 2.47-.94 3.5l-6.06-3.5v-7c3.87 0 7 3.13 7 7z" fill="#69d6f4"/></g><g><path d="m39 55 6.06 3.5c-1.21 2.1-3.47 3.5-6.06 3.5s-4.85-1.4-6.06-3.5z" fill="#b4dd7f"/></g><g><path d="m16 8h-1c-2.76 0-5 2.24-5 5v1c-1.1 0-2 .9-2 2v.17c0 .53.21 1.04.59 1.42l1.41 1.41v5l-2.53-1.9c-1.72-1.29-3.09-2.95-4.03-4.82-.93-1.88-1.44-3.96-1.44-6.12 0-.94.3-1.84.83-2.56.53-.73 1.27-1.3 2.17-1.6.58-2.91 3.13-5 6.1-5h8.9c1.1 0 2.1.45 2.83 1.17.72.73 1.17 1.73 1.17 2.83 0 1.48-.8 2.77-2 3.46-.59.34-1.27.54-2 .54h-2c-.55 0-1.05-.22-1.41-.59-.37-.36-.59-.86-.59-1.41z" fill="#656d78"/></g><g><path d="m26 20h6v8h-6z" fill="#ffeaa7"/></g><g><path d="m56 2h6v26h-6z" fill="#ffeaa7"/></g><g><path d="m36 14h6v14h-6z" fill="#ffeaa7"/></g><g><path d="m52 8v20h-4.78-.05-1.17v-20z" fill="#ffeaa7"/></g><g><path d="m16 50v4h-8v-4.25c.64.16 1.31.25 2 .25h4z" fill="#b4dd7f"/></g><g><path d="m20.35 30.54c2.38.3 4.61 1.3 6.42 2.88l3.8 3.33c.92.8 2.11 1.25 3.33 1.25 1.35 0 2.63-.53 3.58-1.48l5.52-5.52 4 4c-1.88 1.88-4.31 4.31-6.17 6.17-1.81 1.81-4.27 2.83-6.83 2.83-2.19 0-4.3-.74-6-2.09v-2.91c0-.55-.45-1-1-1h-9v-3l.93-4.63v-.01z" fill="#b4dd7f"/></g><g><path d="m14 44v6h-4c-.69 0-1.36-.09-2-.25-3.45-.89-6-4.02-6-7.75v-4.53c0-3.01 1.92-5.66 4.71-6.62l4.29 5.15 3-3 4 2v3h-1c-.55 0-1 .45-1 1v5z" fill="#b4dd7f"/></g><g><path d="m18.93 30.37-.93 4.63-4-2 2-3 2.93.36z" fill="#a0d468"/></g><g><path d="m14 33-3 3-4.29-5.15c.19-.07.39-.13.59-.18l2.7-.67z" fill="#a0d468"/></g><g><path d="m16 54h8v8h-8-8v-8z" fill="#d3a06c"/></g><g><path d="m19.12 49.12c.54-.54.88-1.29.88-2.12 0-1.66-1.34-3-3-3h-1v-5c0-.55.45-1 1-1h1 9c.55 0 1 .45 1 1v2.91 11.09c0 .55-.45 1-1 1h-3-8v-4h1c.83 0 1.58-.34 2.12-.88z" fill="#969faa"/></g><g><circle cx="22" cy="46" fill="#69d6f4" r="2"/></g><g><path d="m50 30.82c0 .76-.29 1.47-.83 2.01s-1.29 1.29-2.17 2.17l-4-4 2.17-2.17c.53-.53 1.25-.83 2-.83h.05c1.54 0 2.78 1.24 2.78 2.78z" fill="#f0d0b4"/></g><g><path d="m16 44h1c1.66 0 3 1.34 3 3 0 .83-.34 1.58-.88 2.12s-1.29.88-2.12.88h-1-2v-6z" fill="#f0d0b4"/></g><g><path d="m22 22v.36c0 2.01-1.63 3.64-3.64 3.64-.24 0-.48-.02-.71-.07l-1.65-.33v4.4l-2 3-4-3v-6-5l-1.41-1.41c-.38-.38-.59-.89-.59-1.42v-.17c0-1.1.9-2 2-2v-1c0-2.76 2.24-5 5-5h1c0 .55.22 1.05.59 1.41.36.37.86.59 1.41.59h2c.73 0 1.41-.2 2-.54v1.71c0 1.81.72 3.55 2 4.83l-2 2z" fill="#f0d0b4"/></g></g><g><circle cx="18" cy="14" r="1"/><path d="m55 1v26h-2v-20h-8v20h-2v-14h-8v14h-2v-8h-8v10h18.586l-6.81 6.81c-.768.767-1.788 1.19-2.874 1.19-.984 0-1.935-.357-2.675-1.005l-3.802-3.327c-1.96-1.715-4.363-2.793-6.948-3.116l-3.477-.435v-2.297l.449.09c.299.06.605.09.911.09 2.558 0 4.64-2.082 4.64-4.64v-3.946l2.414-2.414-.707-.707c-1.101-1.101-1.707-2.564-1.707-4.122v-1.197c1.207-.913 2-2.347 2-3.974 0-2.757-2.243-5-5-5h-8.901c-3.242 0-6.08 2.181-6.949 5.261-1.905.868-3.15 2.772-3.15 4.901 0 4.595 2.194 8.983 5.87 11.74l2.13 1.598v4.719l-1.94.485c-3.568.892-6.06 4.084-6.06 7.761v4.535c0 3.909 2.51 7.235 6 8.475v12.525h18v-8h2c1.103 0 2-.897 2-2v-9.253c1.533.813 3.254 1.253 5 1.253 2.847 0 5.522-1.108 7.535-3.121l8.346-8.346c.722-.721 1.119-1.684 1.119-2.758 0-.633-.171-1.233-.462-1.775h12.462v-28zm-24 26h-4v-6h4zm16-18h4v18h-3.828-.001-.171zm-10 6h4v12h-4zm-19.265 16.225-.459 2.295-1.816-.908 1.029-1.543zm4.895-15.269-1.63 1.63v3.414h-2c-1.103 0-2-.897-2-2h-2c0 2.206 1.794 4 4 4h1.913c-.288 1.146-1.318 2-2.552 2-.174 0-.348-.017-.518-.051l-4.646-.929-.393 1.961 2.196.439v3.277l-1.246 1.869-2.754-2.066v-10.914l-1.707-1.707c-.189-.189-.293-.441-.293-.708v-.171c0-.551.449-1 1-1h1v-2c0-2.206 1.794-4 4-4h.184c.414 1.161 1.514 2 2.816 2h2c.342 0 .677-.035 1-.101v.272c0 1.754.573 3.42 1.63 4.785zm-14.56 5.347c-3.174-2.382-5.07-6.172-5.07-10.141 0-1.46.931-2.751 2.316-3.213l.55-.184.114-.569c.487-2.431 2.64-4.196 5.119-4.196h8.901c1.654 0 3 1.346 3 3s-1.346 3-3 3h-2c-.551 0-1-.449-1-1s.449-1 1-1h1v-2h-1c-1.302 0-2.402.839-2.816 2h-.184c-3.309 0-6 2.691-6 6v.171c-1.164.413-2 1.525-2 2.829v.171c0 .801.312 1.555.879 2.122l1.121 1.121v2.586zm1.711 9.783 2.697 2.023-1.41 1.41-2.59-3.107zm.219 19.914h5v2h-6v-2.059c.329.037.662.059 1 .059zm7-6c1.103 0 2 .897 2 2s-.897 2-2 2h-2v-4zm6 16h-6v-4h-2v4h-6v-6h14zm4-8h-10v-2c1.614 0 3-.966 3.632-2.346.412.214.873.346 1.368.346 1.654 0 3-1.346 3-3s-1.346-3-3-3c-.92 0-1.735.425-2.286 1.08-.714-.665-1.664-1.08-2.714-1.08v-4h10zm-6-7c0-.551.449-1 1-1s1 .449 1 1-.449 1-1 1-1-.449-1-1zm19.121-5.535c-1.635 1.635-3.808 2.535-6.121 2.535-1.788 0-3.543-.569-5-1.599v-2.401c0-1.103-.897-2-2-2h-10c-1.103 0-2 .897-2 2v4h-5c-.551 0-1-.449-1-1v-3h-2v3c0 1.654 1.346 3 3 3h3v4h-3c-3.86 0-7-3.14-7-7v-4.535c0-2.349 1.363-4.423 3.417-5.403l4.515 5.419 3.265-3.265 4.526 2.263 1.001-5.007.504.063c2.188.274 4.221 1.186 5.879 2.637l3.803 3.328c1.106.968 2.523 1.5 3.993 1.5 1.62 0 3.143-.631 4.288-1.776l4.81-4.81 2.585 2.586zm8.359-10.945c.335.335.52.782.52 1.3 0 .494-.189.955-.532 1.298l-1.468 1.468-2.586-2.586 1.465-1.465c.345-.345.804-.535 1.346-.535.474 0 .92.185 1.255.52zm12.52-2.52h-4v-24h4z"/><path d="m39 47c-4.411 0-8 3.589-8 8s3.589 8 8 8 8-3.589 8-8-3.589-8-8-8zm-1 2.09v5.332l-4.618 2.666c-.243-.651-.382-1.353-.382-2.088 0-2.967 2.167-5.431 5-5.91zm1 11.91c-1.857 0-3.519-.848-4.621-2.177l4.621-2.668 4.621 2.668c-1.102 1.329-2.764 2.177-4.621 2.177zm5.618-3.911-4.618-2.667v-5.332c2.833.478 5 2.942 5 5.91 0 .735-.139 1.437-.382 2.089z"/><path d="m49 61h2v2h-2z"/><path d="m53 61h10v2h-10z"/><path d="m49 57h2v2h-2z"/><path d="m53 57h10v2h-10z"/><path d="m49 53h2v2h-2z"/><path d="m53 53h10v2h-10z"/><path d="m49 49h2v2h-2z"/><path d="m53 49h10v2h-10z"/><path d="m47 45h14v2h-14z"/><path d="m47 41h14v2h-14z"/><path d="m49 37h4v2h-4z"/><path d="m55 37h6v2h-6z"/></g></g></svg>