<svg id="_x33_0" enable-background="new 0 0 496 496" height="512" viewBox="0 0 496 496" width="512" xmlns="http://www.w3.org/2000/svg"><g><g><g><path d="m155.2 408 4.8 24-32 24-32-24 8-40h32v8c0 4.42 3.58 8 8 8z" fill="#ff826e"/></g><g><path d="m136 312 6.4 32h-28.8l6.4-32z" fill="#ff826e"/></g><g><path d="m144 288-8 24h-16l-8-24 16-8z" fill="#fc6e51"/></g><g><path d="m58 392h46l-8 40 32 24 32-24-4.8-24h44.8v80h-144v-96-.05c.66.04 1.33.05 2 .05z" fill="#fcd770"/></g><g><path d="m249.02 279.89v64.11h-9.02c-4.42 0-8 3.58-8 8v24h-32c0-17.67-14.33-32-32-32h-16-9.6l-6.4-32 8-24 16 8 8-40h24c21.59 0 42.09 8.71 57.02 23.89z" fill="#fcd770"/></g><g><path d="m113.6 344h28.8 9.6v32h-8c-4.42 0-8 3.58-8 8v8h-32-46c-.67 0-1.34-.01-2-.05-26.68-1.04-48-23.01-48-49.95v-32.34c0-25.86 19.72-47.45 45.47-49.79l34.67-3.16 7.86 39.29 16-8 8 24z" fill="#fcd770"/></g><g><path d="m168 256-8 40-16-8-16-8-16 8-16 8-7.86-39.29 7.86-.71 32 16 32-16z" fill="#ffc729"/></g><g><path d="m376 120 98.63 53.11c-18.92 35.07-55.99 58.89-98.63 58.89-25.21 0-48.48-8.33-67.2-22.4z" fill="#69d6f4"/></g><g><path d="m488 120c0 19.22-4.84 37.31-13.37 53.11l-98.63-53.11 93.2-62.13c11.88 17.78 18.8 39.15 18.8 62.13z" fill="#ff826e"/></g><g><path d="m469.2 57.87-93.2 62.13-58.71-95.39c17.07-10.53 37.18-16.61 58.71-16.61 38.88 0 73.12 19.8 93.2 49.87z" fill="#b4dd7f"/></g><g><path d="m200 112-6.72-1.34c-10.85-2.17-21.26-5.92-30.91-11.09s-18.55-11.75-26.37-19.57v24l-4.92-.98c-14.82-2.97-28.16-10.4-38.38-21.05l-.01.01-28.92 17.36c-4.82 2.89-7.77 8.1-7.77 13.72v14.94h-8c-3.86 0-7.5.91-10.73 2.54v-.01l-5.07-10.13c-5.39-10.79-8.2-22.68-8.2-34.73 0-21.45 8.69-40.87 22.75-54.92 14.05-14.06 33.47-22.75 54.92-22.75h52.66c42.9 0 77.67 34.77 77.67 77.67 0 6.03-.7 12.01-2.08 17.84s-3.42 11.49-6.12 16.89l-5.07 10.13v.01c-3.23-1.63-6.87-2.54-10.73-2.54h-8z" fill="#b27946"/></g><g><path d="m317.29 24.61 58.71 95.39-67.2 89.6c-27.2-20.42-44.8-52.95-44.8-89.6 0-40.33 21.31-75.68 53.29-95.39z" fill="#fcd770"/></g><g><path d="m408 384v16c0 4.42-3.58 8-8 8h-120-16-64-44.8-11.2c-4.42 0-8-3.58-8-8v-8-8c0-4.42 3.58-8 8-8h8 48 32 32 32 32 32 32 8c4.42 0 8 3.58 8 8z" fill="#aab2bd"/></g><g><path d="m312 440c0 4.42-1.79 8.42-4.68 11.32-2.9 2.89-6.9 4.68-11.32 4.68h-48c-8.84 0-16-7.16-16-16s3.58-16.84 9.37-22.63 13.79-9.37 22.63-9.37h16c17.67 0 32 14.33 32 32z" fill="#f0d0b4"/></g><g><path d="m200 376h-48v-32h16c17.67 0 32 14.33 32 32z" fill="#f0d0b4"/></g><g><path d="m218.73 130.54c7.87 3.93 13.27 12.07 13.27 21.46 0 6.62-2.69 12.62-7.03 16.97-4.35 4.34-10.35 7.03-16.97 7.03h-8.08c.06-1.02.08-2.05.08-3.08v-44.92h8c3.86 0 7.5.91 10.73 2.54z" fill="#f0d0b4"/></g><g><path d="m200 128v44.92c0 1.03-.02 2.06-.08 3.08-1.19 24.77-16.72 46.72-39.92 56v24l-32 16-32-16v-24c-23.2-9.28-38.73-31.23-39.92-56-.06-1.02-.08-2.05-.08-3.08v-44.92-14.94c0-5.62 2.95-10.83 7.77-13.72l28.92-17.36.01-.01c10.22 10.65 23.56 18.08 38.38 21.05l4.92.98v-24c7.82 7.82 16.72 14.4 26.37 19.57s20.06 8.92 30.91 11.09l6.72 1.34z" fill="#f0d0b4"/></g><g><path d="m56.08 176h-8.08c-6.62 0-12.62-2.69-16.97-7.03-4.34-4.35-7.03-10.35-7.03-16.97 0-9.39 5.4-17.53 13.27-21.46 3.23-1.63 6.87-2.54 10.73-2.54h8v44.92c0 1.03.02 2.06.08 3.08z" fill="#f0d0b4"/></g><g><path d="m392 304v72h-32v-72c0-4.42 3.58-8 8-8h16c4.42 0 8 3.58 8 8z" fill="#ff826e"/></g><g><path d="m328 336v40h-32v-40c0-4.42 3.58-8 8-8h16c4.42 0 8 3.58 8 8z" fill="#ff826e"/></g><g><path d="m249.02 344h6.98c4.42 0 8 3.58 8 8v24h-32v-24c0-4.42 3.58-8 8-8z" fill="#ff826e"/></g></g><g><circle cx="96" cy="128" r="8"/><circle cx="160" cy="128" r="8"/><path d="m128 208c12.919 0 24.534-7.178 30.31-18.732l.845-1.689-14.31-7.157-.845 1.69c-3.05 6.1-9.181 9.889-16 9.889s-12.95-3.789-16-9.89l-.845-1.689-14.31 7.157.844 1.688c5.777 11.555 17.392 18.733 30.311 18.733z"/><path d="m139.578 160.845-10.261-5.131 6.444-25.774-15.522-3.88-9.556 38.226 21.739 10.869z"/><path d="m376 0c-66.168 0-120 53.832-120 120 0 54.864 36.954 101.864 88.434 115.807l-31.841 25.472-24.056-24.056-39.191 32.066c-15.859-13.592-36.366-21.289-57.346-21.289h-24v-10.806c21.143-10.362 35.599-30.185 39.144-53.194h.856c17.645 0 32-14.355 32-32 0-9.613-4.267-18.243-10.999-24.114l1.955-3.91c5.917-11.833 9.044-25.08 9.044-38.31 0-47.237-38.429-85.666-85.666-85.666h-52.669c-47.236 0-85.665 38.429-85.665 85.666 0 13.23 3.127 26.478 9.044 38.312l1.955 3.909c-6.732 5.87-10.999 14.5-10.999 24.113 0 17.645 14.355 32 32 32h.856c3.545 23.008 18.002 42.832 39.144 53.194v11.5l-35.251 3.205c-14.449 1.313-27.794 7.937-37.578 18.65-9.783 10.713-15.171 24.603-15.171 39.112v32.339c0 28.57 20.77 52.365 48 57.119v96.881h160v-80h24.022c-5.034 6.69-8.022 15.002-8.022 24 0 13.234 10.766 24 24 24h48c13.234 0 24-10.766 24-24 0-8.998-2.988-17.31-8.022-24h88.022c8.822 0 16-7.178 16-16v-16c0-8.822-7.178-16-16-16v-64c0-8.822-7.178-16-16-16h-16c-8.822 0-16 7.178-16 16v64h-16v-32c0-8.822-7.178-16-16-16h-16c-8.822 0-16 7.178-16 16v32h-16v-16c0-8.822-7.178-16-16-16h-16c-8.822 0-16 7.178-16 16v16h-16.805c-3.716-18.236-19.878-32-39.195-32h-19.042l-4.697-23.486 4.411-13.234 17.118 8.559 8.768-43.839h17.442c16.214 0 32.08 5.622 44.725 15.616l-41.791 34.193 10.132 12.383 82.396-67.415 23.944 23.944 72.594-58.076v31.355h16v-18.411c25.634-5.215 49-18.765 66.377-38.644 19.102-21.852 29.623-49.888 29.623-78.945 0-66.168-53.832-120-120-120zm-168 168v-32c8.822 0 16 7.178 16 16s-7.178 16-16 16zm-176-16c0-8.822 7.178-16 16-16v32c-8.822 0-16-7.178-16-16zm16-38.941v6.941c-2.298 0-4.538.249-6.7.711l-1.945-3.89c-4.812-9.623-7.355-20.397-7.355-31.155 0-38.414 31.252-69.666 69.666-69.666h52.669c38.413 0 69.665 31.252 69.665 69.666 0 10.759-2.543 21.532-7.354 31.155l-1.945 3.89c-2.162-.463-4.402-.711-6.7-.711v-8-3.156c0-20.742-10.304-39.995-27.563-51.5l-8.875 13.313c10.898 7.266 18.057 18.697 19.941 31.429-18.9-4.424-36.075-13.971-49.847-27.742l-13.657-13.657v33.38c-17.783-4.906-32.505-16.966-40.845-33.645l-14.311 7.155c2.202 4.404 4.765 8.544 7.642 12.401l-20.834 12.501c-7.187 4.313-11.652 12.198-11.652 20.58zm16 59.86v-59.86c0-2.794 1.488-5.422 3.884-6.86l23.641-14.185c10.587 9.416 23.594 15.968 37.988 18.847l14.487 2.897v-16.342c14.1 10.409 30.321 17.607 47.713 21.085l.287.057v54.361c0 22.88-13.727 43.155-34.971 51.653l-5.029 2.012v24.472l-24 12-24-12v-24.472l-5.029-2.012c-21.244-8.498-34.971-28.773-34.971-51.653zm37.791 111.242-3.627-18.135 19.948 9.974zm-85.791 57.839v-32.339c0-21.866 16.421-39.848 38.197-41.827l27.511-2.501 8.501 42.507 17.118-8.559 4.411 13.234-4.696 23.485h-43.042v-20.687c0-9.433-3.673-18.3-10.343-24.97l-11.313 11.313c3.648 3.648 5.657 8.498 5.657 13.657v22.539c-5.086 1.715-9.75 4.584-13.657 8.491l11.313 11.313c3.648-3.648 8.498-5.657 13.657-5.657h84.686v16c-8.822 0-16 7.178-16 16h-70c-23.159.001-42-18.84-42-41.999zm132.642 74 2.525 12.625-23.167 17.375-23.167-17.375 5.725-28.625h17.442c0 8.822 7.178 16 16 16zm43.358 64h-128v-80h30.242l-7.075 35.375 40.833 30.625 40.833-30.625-3.874-19.375h27.041zm112-40c0 4.411-3.589 8-8 8h-48c-4.411 0-8-3.589-8-8 0-13.234 10.766-24 24-24h16c13.234 0 24 10.766 24 24zm96.01-40s-.003 0-.01 0h-120-16-120v-16h256zm-32.01-96h16v64h-16zm-64 32h16v32h-16zm-64 16h16v16h-16zm-49.376 16h-30.624v-16h8c10.429 0 19.321 6.689 22.624 16zm-67.265-32 3.2-16h2.883l3.2 16zm6.875-32h-4.468l-3.983-11.947 6.216-3.108 6.216 3.108zm7.654-28 19.948-9.974-3.627 18.135zm342.112-156c0 14.864-3.219 29.121-8.999 42.068l-79.483-42.799 75.175-50.117c8.467 15.044 13.307 32.39 13.307 50.848zm-22.196-64.151-79.339 52.892-49.988-81.231c14.252-7.353 30.411-11.51 47.523-11.51 33.161 0 62.747 15.601 81.804 39.849zm-185.804 64.151c0-34.515 16.905-65.151 42.866-84.079l51.467 83.635-58.971 78.628c-21.784-19.156-35.362-47.224-35.362-78.184zm128 101.209v-19.768l-46.431-9.286-3.138 15.689 23.165 4.633-12.984 10.387c-14.786-2.187-28.477-7.441-40.458-15.072l58.114-77.485 85.111 45.829c-14.292 22.166-36.771 38.767-63.379 45.073z"/></g></g></svg>