<svg id="Layer_5" enable-background="new 0 0 64 64" height="512" viewBox="0 0 64 64" width="512" xmlns="http://www.w3.org/2000/svg"><g><g><g><path d="m44 12.58v.01c-1.44.42-2.79 1.08-4 1.93v-1.52c0-.55-.45-1-1-1h-5v-4h6c2.21 0 4 1.79 4 4z" fill="#b4dd7f"/></g><g><path d="m48 62h-42c-2.21 0-4-1.79-4-4v-46c0-2.21 1.79-4 4-4h6v4h-5c-.55 0-1 .45-1 1v44c0 .55.45 1 1 1h32c.55 0 1-.45 1-1v-19.52c1.75 1.23 3.79 2.06 6 2.38v5.14c0 .55.45 1 1 1h-1c-1.1 0-2 .9-2 2v10c0 2.21 1.79 4 4 4z" fill="#b4dd7f"/></g><g><path d="m6 57v-44c0-.55.45-1 1-1h5c0 1.1.9 2 2 2h18c1.1 0 2-.9 2-2h5c.55 0 1 .45 1 1v1.52c-3.63 2.52-6 6.73-6 11.48s2.37 8.96 6 11.48v19.52c0 .55-.45 1-1 1h-32c-.55 0-1-.45-1-1z" fill="#e6e9ed"/></g><g><path d="m34 8v4c0 1.1-.9 2-2 2h-18c-1.1 0-2-.9-2-2v-4c0-1.1.9-2 2-2h3l.21-.42c.55-1.1 1.39-1.99 2.39-2.61s2.18-.97 3.4-.97c2.45 0 4.69 1.39 5.79 3.58l.21.42h3c1.1 0 2 .9 2 2zm-9 0c0-1.1-.9-2-2-2s-2 .9-2 2 .9 2 2 2 2-.9 2-2z" fill="#fcd770"/></g><g><path d="m15 54v-10.05c.72 0 1.44-.25 2.02-.75.1 1.56 1.39 2.8 2.98 2.8s2.88-1.24 2.98-2.8c.58.5 1.3.75 2.02.75v10.05l-5-2z" fill="#fc6e51"/></g><g><path d="m17.02 28.8c.1-1.56 1.39-2.8 2.98-2.8s2.88 1.24 2.98 2.8c1.18-1.03 2.97-1 4.09.13 1.13 1.12 1.16 2.91.13 4.09 1.56.1 2.8 1.39 2.8 2.98s-1.24 2.88-2.8 2.98c1.03 1.18 1 2.97-.13 4.09-.57.58-1.32.87-2.07.88-.72 0-1.44-.25-2.02-.75-.1 1.56-1.39 2.8-2.98 2.8s-2.88-1.24-2.98-2.8c-.58.5-1.3.75-2.02.75-.75-.01-1.5-.3-2.07-.88-1.13-1.12-1.16-2.91-.13-4.09-1.56-.1-2.8-1.39-2.8-2.98s1.24-2.88 2.8-2.98c-1.03-1.18-1-2.97.13-4.09 1.12-1.13 2.91-1.16 4.09-.13z" fill="#ff826e"/></g><g><path d="m20 30c3.31 0 6 2.69 6 6s-2.69 6-6 6-6-2.69-6-6 2.69-6 6-6z" fill="#ffeaa7"/></g><g><circle cx="20" cy="36" fill="#fcd770" r="2"/></g><g><path d="m50 46c1.1 0 2 .9 2 2v10c0 1.1-.45 2.1-1.17 2.83-.73.72-1.73 1.17-2.83 1.17-2.21 0-4-1.79-4-4v-10c0-1.1.9-2 2-2h1 2z" fill="#b27946"/></g><g><path d="m50 39.86v5.14c0 .55-.45 1-1 1h-2c-.55 0-1-.45-1-1v-5.14c.65.09 1.32.14 2 .14s1.35-.05 2-.14z" fill="#cf9e76"/></g><g><path d="m46 39.86c-2.21-.32-4.25-1.15-6-2.38-3.63-2.52-6-6.73-6-11.48s2.37-8.96 6-11.48c1.21-.85 2.56-1.51 4-1.93v-.01c1.27-.38 2.61-.58 4-.58 7.73 0 14 6.27 14 14 0 7.05-5.22 12.89-12 13.86-.65.09-1.32.14-2 .14s-1.35-.05-2-.14z" fill="#fcd770"/></g><g><circle cx="48" cy="26" fill="#69d6f4" r="10"/></g></g><g><path d="m48 37c6.065 0 11-4.935 11-11s-4.935-11-11-11-11 4.935-11 11 4.935 11 11 11zm0-20c4.962 0 9 4.037 9 9s-4.038 9-9 9-9-4.037-9-9 4.038-9 9-9z"/><path d="m46 31.414 8.707-8.707-1.414-1.414-7.293 7.293-3.293-3.293-1.414 1.414z"/><path d="m51 40.698c6.838-1.394 12-7.454 12-14.698 0-8.271-6.729-15-15-15-1.052 0-2.078.111-3.069.318-.336-2.432-2.408-4.318-4.931-4.318h-5.184c-.414-1.161-1.514-2-2.816-2h-2.383c-1.296-2.472-3.818-4-6.617-4s-5.321 1.528-6.617 4h-2.383c-1.302 0-2.402.839-2.816 2h-5.184c-2.757 0-5 2.243-5 5v46c0 2.757 2.243 5 5 5h42c2.757 0 5-2.243 5-5v-10c0-1.309-.847-2.412-2.018-2.821.005-.06.018-.118.018-.179zm-4 .251c.332.022.662.051 1 .051s.668-.029 1-.051v4.051h-2zm14-14.949c0 7.168-5.832 13-13 13s-13-5.832-13-13 5.832-13 13-13 13 5.832 13 13zm-49.816-13c.414 1.161 1.514 2 2.816 2h18c1.302 0 2.402-.839 2.816-2h4.184v1.028c-3.635 2.74-6 7.079-6 11.972s2.365 9.232 6 11.972v19.028h-32v-44zm31.804-1.12c-.694.247-1.37.533-2.013.876-.122-.987-.956-1.756-1.975-1.756h-4v-2h5c1.613 0 2.923 1.282 2.988 2.88zm-29.988-3.88c0-.552.449-1 1-1h3.618l.487-.975c.934-1.866 2.809-3.025 4.895-3.025s3.961 1.159 4.895 3.025l.487.975h3.618c.551 0 1 .448 1 1v4c0 .552-.449 1-1 1h-18c-.551 0-1-.448-1-1zm-10 50v-46c0-1.654 1.346-3 3-3h5v2h-4c-1.103 0-2 .897-2 2v44c0 1.103.897 2 2 2h32c1.103 0 2-.897 2-2v-17.744c1.242.658 2.583 1.152 4 1.441v4.303c0 .061.013.119.018.179-1.171.409-2.018 1.512-2.018 2.821v10c0 1.13.391 2.162 1.026 3h-38.026c-1.654 0-3-1.346-3-3zm48 0c0 1.654-1.346 3-3 3s-3-1.346-3-3v-10c0-.552.449-1 1-1h1 2 1c.551 0 1 .448 1 1z"/><path d="m23 11c1.654 0 3-1.346 3-3s-1.346-3-3-3-3 1.346-3 3 1.346 3 3 3zm0-4c.551 0 1 .448 1 1s-.449 1-1 1-1-.448-1-1 .449-1 1-1z"/><path d="m20 33c-1.654 0-3 1.346-3 3s1.346 3 3 3 3-1.346 3-3-1.346-3-3-3zm0 4c-.551 0-1-.448-1-1s.449-1 1-1 1 .448 1 1-.449 1-1 1z"/><path d="m9 17h2v2h-2z"/><path d="m13 17h18v2h-18z"/><path d="m9 21h22v2h-22z"/><path d="m11.296 39.605c-.507 1.416-.191 3.056.925 4.173.508.507 1.125.841 1.778 1.015v10.683l6-2.399 6 2.399v-10.682c.653-.175 1.271-.508 1.779-1.016 1.116-1.117 1.432-2.757.925-4.173 1.361-.642 2.297-2.025 2.297-3.605s-.936-2.963-2.296-3.605c.507-1.416.191-3.056-.925-4.173-1.118-1.117-2.758-1.435-4.173-.926-.643-1.36-2.026-2.296-3.606-2.296s-2.963.936-3.605 2.296c-1.416-.508-3.055-.191-4.173.926-1.116 1.117-1.432 2.757-.925 4.173-1.361.642-2.297 2.025-2.297 3.605s.936 2.963 2.296 3.605zm2.261.035.282-.322c.65 1.202 1.641 2.193 2.843 2.843l-.321.282c-.791.693-1.987.659-2.724-.079-.738-.737-.773-1.934-.08-2.724zm6.443 1.36c-2.757 0-5-2.243-5-5s2.243-5 5-5 5 2.243 5 5-2.243 5-5 5zm2.01 1.703-.028.427c-.068 1.049-.939 1.87-1.982 1.87s-1.914-.821-1.982-1.87l-.028-.427c.637.191 1.311.297 2.01.297s1.373-.106 2.01-.297zm-2.01 8.22-4 1.601v-7.708c.133-.033.265-.065.395-.111.642 1.359 2.025 2.295 3.605 2.295s2.963-.936 3.605-2.296c.129.046.262.078.395.111v7.708zm6.364-8.559c-.737.736-1.933.774-2.725.079l-.321-.282c1.202-.65 2.193-1.641 2.843-2.843l.282.322c.693.79.658 1.987-.079 2.724zm2.636-6.364c0 1.043-.821 1.914-1.87 1.982l-.427.028c.191-.637.297-1.311.297-2.01s-.106-1.373-.298-2.01l.427.028c1.05.068 1.871.939 1.871 1.982zm-5.36-6.443c.791-.694 1.987-.659 2.724.079.737.737.772 1.935.08 2.725l-.282.322c-.65-1.202-1.641-2.193-2.843-2.843zm-3.64-2.557c1.043 0 1.914.821 1.982 1.87l.028.427c-.637-.191-1.311-.297-2.01-.297s-1.373.106-2.01.297l.028-.427c.068-1.049.939-1.87 1.982-1.87zm-6.364 2.636c.736-.736 1.934-.773 2.725-.079l.321.282c-1.202.65-2.193 1.641-2.843 2.843l-.282-.322c-.693-.79-.658-1.987.079-2.724zm-.766 4.382.427-.028c-.191.637-.297 1.311-.297 2.01s.106 1.373.298 2.01l-.427-.028c-1.05-.068-1.871-.939-1.871-1.982s.821-1.914 1.87-1.982z"/></g></g></svg>