<svg id="Layer_5" enable-background="new 0 0 64 64" height="512" viewBox="0 0 64 64" width="512" xmlns="http://www.w3.org/2000/svg"><g><g><g><circle cx="52" cy="52" fill="#ffeaa7" r="10"/></g><g><path d="m5 42h17v12h-20v-9c0-1.657 1.343-3 3-3z" fill="#69d6f4"/></g><g><path d="m44 34c-.715 0-1.397.131-2.032.361-.333-5.776-5.109-10.361-10.968-10.361-5.738 0-10.445 4.396-10.95 10.003-.017-.001-.033-.003-.05-.003-3.314 0-6 2.686-6 6s2.686 6 6 6h24c3.314 0 6-2.686 6-6s-2.686-6-6-6z" fill="#e6e9ed"/></g><g><path d="m9 58h6v4h-6z" fill="#aab2bd"/></g><g><path d="m22 54v1c0 1.66-1.34 3-3 3h-4-6-4c-1.66 0-3-1.34-3-3v-1z" fill="#ccd1d9"/></g><g><path d="m60 16c1.1 0 2 .9 2 2s-.45 2.1-1.17 2.83c-.73.72-1.73 1.17-2.83 1.17h-4-14c-2.21 0-4-1.79-4-4 0-.55.22-1.05.59-1.41.36-.37.86-.59 1.41-.59h2 18z" fill="#969faa"/></g><g><path d="m58 4v12h-18v-12c0-1.1.9-2 2-2h14c1.1 0 2 .9 2 2z" fill="#ccd1d9"/></g><g><path d="m14 18v2c0 1.1-.9 2-2 2h-4-4c-1.1 0-2-.9-2-2v-2z" fill="#969faa"/></g><g><path d="m14 4v2h-12v-2c0-1.1.9-2 2-2h8c1.1 0 2 .9 2 2z" fill="#969faa"/></g><g><path d="m44 6h10v6h-10z" fill="#69d6f4"/></g><g><path d="m2 6h12v12h-12z" fill="#69d6f4"/></g></g><g><path d="m40 23h13v5c0 1.654-1.346 3-3 3h-2-1v2h1 2c1.654 0 3 1.346 3 3v4h2v-4c0-1.641-.806-3.088-2.031-4 1.225-.912 2.031-2.359 2.031-4v-5h3c2.757 0 5-2.243 5-5 0-1.654-1.346-3-3-3h-1v-11c0-1.654-1.346-3-3-3h-14c-1.654 0-3 1.346-3 3v11h-1c-1.654 0-3 1.346-3 3 0 2.757 2.243 5 5 5zm1-19c0-.552.448-1 1-1h14c.552 0 1 .448 1 1v11h-16zm-3 13h22c.552 0 1 .448 1 1 0 1.654-1.346 3-3 3h-18c-1.654 0-3-1.346-3-3 0-.552.448-1 1-1z"/><path d="m43 13h12v-8h-12zm2-6h8v4h-8z"/><path d="m47.051 53.051 1.414 1.414c.944-.944 2.2-1.465 3.535-1.465s2.591.521 3.535 1.465l1.414-1.414c-1.321-1.322-3.079-2.051-4.949-2.051s-3.628.729-4.949 2.051z"/><path d="m44.222 50.222 1.414 1.414c3.51-3.51 9.219-3.51 12.729 0l1.414-1.414c-4.29-4.289-11.268-4.289-15.557 0z"/><path d="m52 41c-.365 0-.728.032-1.09.067.054-.349.09-.703.09-1.067 0-3.859-3.141-7-7-7h-1.19c-.957-5.762-5.883-10-11.81-10-5.958 0-10.902 4.263-11.837 10.05-3.467.415-6.163 3.374-6.163 6.95 0 .34.033.672.08 1h-4.08v-5c0-1.654 1.346-3 3-3h3v-2h-3c-1.654 0-3-1.346-3-3v-5h3c1.654 0 3-1.346 3-3v-16c0-1.654-1.346-3-3-3h-8c-1.654 0-3 1.346-3 3v16c0 1.654 1.346 3 3 3h3v5c0 1.641.806 3.088 2.031 4-1.225.912-2.031 2.359-2.031 4v5h-2c-2.206 0-4 1.794-4 4v10c0 2.206 1.794 4 4 4h3v2h-2v2h12v-2h-2v-2h3c2.206 0 4-1.794 4-4v-8h19.202c-.788 1.537-1.202 3.235-1.202 5 0 6.065 4.935 11 11 11s11-4.935 11-11-4.935-11-11-11zm-39-24h-10v-10h10zm-9-14h8c.552 0 1 .448 1 1v1h-10v-1c0-.552.448-1 1-1zm-1 17v-1h10v1c0 .552-.448 1-1 1h-8c-.552 0-1-.448-1-1zm16.993 15.001h.002l.965.054.087-.962c.466-5.184 4.745-9.093 9.953-9.093 5.193 0 9.464 3.908 9.934 9.09l.083.91h2.983c2.757 0 5 2.243 5 5s-2.243 5-5 5h-24c-2.757 0-5-2.243-5-5 0-2.756 2.241-4.999 4.993-4.999zm-5.993 25.999h-4v-2h4zm5-4h-14c-1.103 0-2-.897-2-2h18c0 1.103-.897 2-2 2zm2-4h-18v-8c0-1.103.897-2 2-2h8.685c1.126 2.361 3.53 4 6.315 4h1zm31 8c-4.963 0-9-4.037-9-9 0-1.814.536-3.54 1.543-5.027 2.478-.192 4.595-1.676 5.679-3.78.583-.118 1.177-.193 1.778-.193 4.963 0 9 4.037 9 9s-4.037 9-9 9z"/><path d="m49.879 55.879 1.414 1.414c.391-.391 1.023-.391 1.414 0l1.414-1.414c-1.17-1.17-3.072-1.17-4.242 0z"/><path d="m31.879 15.051c-1.322-1.322-3.08-2.051-4.95-2.051s-3.628.729-4.949 2.051l1.414 1.414c.944-.944 2.2-1.465 3.535-1.465 1.336 0 2.592.521 3.536 1.465z"/><path d="m33.293 13.636 1.414-1.414c-4.289-4.289-11.268-4.289-15.557 0l1.414 1.414c3.51-3.51 9.219-3.51 12.729 0z"/><path d="m26.222 19.293c.38-.377 1.037-.377 1.413 0l1.416-1.414c-1.133-1.133-3.11-1.133-4.243 0z"/><path d="m34 37v2h2v4h2v-4h2v-2h-2v-8h-2v8z"/><path d="m30 43h2v-8h2v-2h-2v-4h-2v4h-2v2h2z"/><path d="m24 43h2v-2h2v-2h-2v-10h-2v10h-2v2h2z"/></g></g></svg>