<?xml version="1.0" encoding="iso-8859-1"?>
<!-- Generator: Adobe Illustrator 19.0.0, SVG Export Plug-In . SVG Version: 6.00 Build 0)  -->
<svg version="1.1" id="Capa_1" xmlns="http://www.w3.org/2000/svg" xmlns:xlink="http://www.w3.org/1999/xlink" x="0px" y="0px"
	 viewBox="0 0 496 496" style="enable-background:new 0 0 496 496;" xml:space="preserve">
<polygon style="fill:#8C95A4;" points="240,280 240,328 240,328 128,328 128,280 "/>
<polygon style="fill:#798699;" points="240,280 240,304 240,304 128,304 128,280 "/>
<path style="fill:#39C3FC;" d="M360,280H24c-8.84,0-16-7.16-16-16V24c0-8.84,7.16-16,16-16h320c8.84,0,16,7.16,16,16V280z"/>
<g>
	<path style="fill:#8C95A4;" d="M8,232v32c0,8.84,7.16,16,16,16h336v-48H8z"/>
	<path style="fill:#8C95A4;" d="M312,488h160c8.84,0,16-7.16,16-16V184c0-8.84-7.16-16-16-16H312c-8.84,0-16,7.16-16,16v288
		C296,480.84,303.16,488,312,488z"/>
</g>
<rect x="296" y="216" style="fill:#39C3FC;" width="192" height="208"/>
<g>
	<rect x="8" y="208" style="fill:#148CE0;" width="288" height="24"/>
	<rect x="296" y="400" style="fill:#148CE0;" width="192" height="24"/>
</g>
<path d="M472,160H368V24c0-13.232-10.768-24-24-24H24C10.768,0,0,10.768,0,24v240c0,13.232,10.768,24,24,24h96v32h-16v16h160v-16
	h-16v-32h40v184c0,13.232,10.768,24,24,24h160c13.232,0,24-10.768,24-24V184C496,170.768,485.232,160,472,160z M480,184v24H304v-24
	c0-4.408,3.592-8,8-8h160C476.408,176,480,179.592,480,184z M304,224h176v192H304V224z M232,320h-96v-32h96V320z M24,272
	c-4.408,0-8-3.592-8-8v-24h240v-16H16V24c0-4.408,3.592-8,8-8h320c4.408,0,8,3.592,8,8v136h-40c-13.232,0-24,10.768-24,24v40h-16v16
	h16v32H24z M472,480H312c-4.408,0-8-3.592-8-8v-40h176v40C480,476.408,476.408,480,472,480z"/>
<rect x="368" y="448" width="48" height="16"/>
<polygon points="298.344,90.344 309.656,101.656 339.312,72 309.656,42.344 298.344,53.656 308.688,64 168,64 168,80 308.688,80 "/>
<polygon points="69.656,133.656 58.344,122.344 28.688,152 58.344,181.656 69.656,170.344 59.312,160 200,160 200,144 59.312,144 
	"/>
<rect x="448" y="240" width="16" height="128"/>
<rect x="136" y="64" width="16" height="16"/>
<rect x="216" y="144" width="16" height="16"/>
<rect x="448" y="384" width="16" height="16"/>
<g>
</g>
<g>
</g>
<g>
</g>
<g>
</g>
<g>
</g>
<g>
</g>
<g>
</g>
<g>
</g>
<g>
</g>
<g>
</g>
<g>
</g>
<g>
</g>
<g>
</g>
<g>
</g>
<g>
</g>
</svg>
