<?xml version="1.0" encoding="iso-8859-1"?>
<!-- Generator: Adobe Illustrator 19.0.0, SVG Export Plug-In . SVG Version: 6.00 Build 0)  -->
<svg version="1.1" id="Layer_1" xmlns="http://www.w3.org/2000/svg" xmlns:xlink="http://www.w3.org/1999/xlink" x="0px" y="0px"
	 viewBox="0 0 496.222 496.222" style="enable-background:new 0 0 496.222 496.222;" xml:space="preserve">
<circle style="fill:#66ADDD;" cx="248.107" cy="248.108" r="208"/>
<path style="fill:#5B9DC1;" d="M248.107,40.108c-5.392,0-10.712,0.272-16,0.672c107.392,8.176,192,97.84,192,207.328
	s-84.608,199.152-192,207.328c5.288,0.4,10.608,0.672,16,0.672c114.872,0,208-93.128,208-208S362.979,40.108,248.107,40.108z"/>
<g>
	<path style="fill:#684621;" d="M248.107,464.108c-119.104,0-216-96.896-216-216s96.896-216,216-216s216,96.896,216,216
		S367.211,464.108,248.107,464.108z M248.107,48.108c-110.28,0-200,89.72-200,200s89.72,200,200,200s200-89.72,200-200
		S358.387,48.108,248.107,48.108z"/>
	<path style="fill:#684621;" d="M448.379,496.212c-23.048,0-53.496-9.976-90.312-29.8c-57.096-30.752-122.64-81.784-184.56-143.704
		c-33.304-33.304-63.376-67.528-89.392-101.736l12.736-9.688c25.584,33.64,55.176,67.32,87.976,100.112
		c60.848,60.848,125.072,110.896,180.832,140.92c51.52,27.744,91.368,35.184,106.616,19.952c18.648-18.648,3.704-71.872-39-138.92
		l13.496-8.592c49.096,77.072,62.168,133.488,36.824,158.832C475.147,492.012,463.315,496.212,448.379,496.212z"/>
	<path style="fill:#684621;" d="M70.619,202.708C5.763,112.244-15.917,41.188,12.635,12.636
		C37.811-12.532,96.275,1.26,173.011,50.468l-8.632,13.472C96.579,20.452,42.763,5.132,23.947,23.948
		c-21.528,21.528,2.456,89.624,59.672,169.44L70.619,202.708z"/>
	<path style="fill:#684621;" d="M47.835,496.212c-14.944,0.008-26.776-4.192-35.2-12.624
		c-25.44-25.448-12.192-82.112,37.296-159.552l13.488,8.608c-43.072,67.392-58.2,120.904-39.472,139.632
		c15.248,15.232,55.104,7.792,106.616-19.952c55.76-30.024,119.984-80.072,180.832-140.92s110.896-125.072,140.928-180.832
		c27.736-51.512,35.192-91.368,19.944-106.616c-18.624-18.624-71.792-3.72-138.736,38.888l-8.592-13.504
		c76.976-49,133.32-62.024,158.648-36.704c21.44,21.432,15.504,64.832-17.168,125.512c-30.744,57.096-81.776,122.64-143.696,184.56
		S195.251,435.66,138.163,466.412C101.339,486.236,70.883,496.212,47.835,496.212z"/>
	<rect x="240.107" y="40.108" style="fill:#684621;" width="16" height="416"/>
	<rect x="40.107" y="240.108" style="fill:#684621;" width="240" height="16"/>
</g>
<path style="fill:#EFE7E4;" d="M125.267,133.564l-11.704-10.912c22.96-24.608,52.128-42.44,84.368-51.56l4.36,15.4
	C172.859,94.812,146.227,111.1,125.267,133.564z"/>
<g>
	<path style="fill:#684621;" d="M252.987,462.452l-9.76-12.68c1.008-0.784,100.88-79.264,100.88-201.664
		s-99.872-200.88-100.88-201.664l9.76-12.672c4.368,3.36,107.12,83.896,107.12,214.336S257.355,459.084,252.987,462.452z"/>
	<path style="fill:#684621;" d="M248.107,176.108c-122.336,0-164.416-48.8-166.144-50.88l12.264-10.28
		c0.376,0.456,39.864,45.16,153.88,45.16s153.504-44.704,153.88-45.16l12.264,10.28
		C412.523,127.308,370.443,176.108,248.107,176.108z"/>
	<path style="fill:#684621;" d="M243.227,462.452c-4.368-3.368-107.12-83.904-107.12-214.344S238.859,37.132,243.227,33.772
		l9.76,12.672c-1.008,0.784-100.88,79.264-100.88,201.664s99.872,200.88,100.88,201.664L243.227,462.452z"/>
	<path style="fill:#684621;" d="M401.987,381.268c-0.376-0.456-39.864-45.16-153.88-45.16s-153.504,44.704-153.88,45.16
		l-12.264-10.28c1.728-2.072,43.808-50.88,166.144-50.88s164.416,48.808,166.144,50.872L401.987,381.268z"/>
</g>
<circle style="fill:#FFCB57;" cx="400.107" cy="216.108" r="80"/>
<path style="fill:#F2BE55;" d="M400.107,136.108c-5.48,0-10.832,0.56-16,1.608c36.512,7.416,64,39.688,64,78.392
	s-27.488,70.976-64,78.392c5.168,1.048,10.52,1.608,16,1.608c44.184,0,80-35.816,80-80S444.291,136.108,400.107,136.108z"/>
<g>
	<path style="fill:#684621;" d="M400.107,304.108c-48.52,0-88-39.48-88-88s39.48-88,88-88s88,39.48,88,88
		S448.627,304.108,400.107,304.108z M400.107,144.108c-39.696,0-72,32.304-72,72s32.304,72,72,72s72-32.304,72-72
		S439.803,144.108,400.107,144.108z"/>
	<path style="fill:#684621;" d="M440.107,264.108h-56c-13.232,0-24-10.768-24-24v-48c0-13.232,10.768-24,24-24h56v16h-56
		c-4.408,0-8,3.592-8,8v48c0,4.408,3.592,8,8,8h56V264.108z"/>
	<rect x="368.107" y="208.108" style="fill:#684621;" width="72" height="16"/>
	<rect x="296.107" y="240.108" style="fill:#684621;" width="32" height="16"/>
</g>
<g>
</g>
<g>
</g>
<g>
</g>
<g>
</g>
<g>
</g>
<g>
</g>
<g>
</g>
<g>
</g>
<g>
</g>
<g>
</g>
<g>
</g>
<g>
</g>
<g>
</g>
<g>
</g>
<g>
</g>
</svg>
