<svg id="Layer_5" enable-background="new 0 0 64 64" height="512" viewBox="0 0 64 64" width="512" xmlns="http://www.w3.org/2000/svg"><g><g><g><path d="m18 42h28 4 8c2.21 0 4 1.79 4 4v12c0 2.21-1.79 4-4 4h-52c-2.21 0-4-1.79-4-4v-12c0-2.21 1.79-4 4-4h8z" fill="#ffeaa7"/></g><g><path d="m20 52-12 6v-12z" fill="#ff826e"/></g><g><path d="m50 6v36h-4v-31c0-.55-.45-1-1-1h-13c1.1 0 2.1-.45 2.83-1.17.72-.73 1.17-1.73 1.17-2.83v-4h10c2.21 0 4 1.79 4 4z" fill="#969faa"/></g><g><path d="m32 10h-13c-.55 0-1 .45-1 1v31h-4v-36c0-2.21 1.79-4 4-4h10v4c0 2.21 1.79 4 4 4z" fill="#969faa"/></g><g><path d="m46 11v31h-28v-31c0-.55.45-1 1-1h13 13c.55 0 1 .45 1 1z" fill="#69d6f4"/></g><g><path d="m36 2v4c0 1.1-.45 2.1-1.17 2.83-.73.72-1.73 1.17-2.83 1.17-2.21 0-4-1.79-4-4v-4z" fill="#e6e9ed"/></g><g><path d="m29 24.01v3.98h-.45l-2.63 1.52-3.22-1.6-.46.26c-.16-.7-.24-1.42-.24-2.17s.08-1.47.24-2.17l.46.26 3.22-1.6 2.63 1.52z" fill="#e6e9ed"/></g><g><path d="m29 28.01 3 1.99v3.02l-3 1.99v.53c-1.41-.44-2.69-1.19-3.75-2.17l.45-.27.22-3.59 2.63-1.52h.45z" fill="#e6e9ed"/></g><g><path d="m35.45 27.99 2.63 1.52.22 3.59.45.27c-1.06.98-2.34 1.73-3.75 2.17v-.53l-3-1.99v-3.02l3-1.99v-.02z" fill="#e6e9ed"/></g><g><path d="m41.76 23.83c.16.7.24 1.42.24 2.17s-.08 1.47-.24 2.17l-.46-.26-3.22 1.6-2.63-1.52h-.45v-3.98h.45l2.63-1.52 3.22 1.6z" fill="#e6e9ed"/></g><g><path d="m38.75 18.63-.45.27-.22 3.59-2.63 1.52h-.45l-3-1.99v-3.04l3-1.99v-.53c1.41.44 2.69 1.19 3.75 2.17z" fill="#e6e9ed"/></g><g><path d="m32 18.98v3.04l-3 1.99h-.45l-2.63-1.52-.22-3.59-.45-.27c1.06-.98 2.34-1.73 3.75-2.17v.53z" fill="#e6e9ed"/></g><g><path d="m41.76 23.83-.46.26-3.22-1.6.22-3.59.45-.27h.01c1.48 1.37 2.55 3.17 3 5.2z" fill="#969faa"/></g><g><path d="m41.76 28.17c-.45 2.03-1.52 3.83-3 5.2 0 0 0 0-.01 0l-.45-.27-.22-3.59 3.22-1.6z" fill="#969faa"/></g><g><path d="m35 35.01v.53c-.95.3-1.95.46-3 .46s-2.05-.16-3-.46v-.53l3-1.99z" fill="#969faa"/></g><g><path d="m25.92 29.51-.22 3.59-.45.27c-.01 0-.01 0-.01 0-1.48-1.37-2.55-3.17-3-5.2l.46-.26z" fill="#969faa"/></g><g><path d="m25.7 18.9.22 3.59-3.22 1.6-.46-.26c.45-2.03 1.52-3.83 3-5.2h.01z" fill="#969faa"/></g><g><path d="m35 16.46v.53l-3 1.99-3-1.99v-.53c.95-.3 1.95-.46 3-.46s2.05.16 3 .46z" fill="#969faa"/></g><g><path d="m32 30-3-1.99v-.02-3.98l3-1.99 3 1.99v3.98.02z" fill="#969faa"/></g></g><g><path d="m58 41h-7v-35c0-2.757-2.243-5-5-5h-28c-2.757 0-5 2.243-5 5v35h-7c-2.757 0-5 2.243-5 5v12c0 2.757 2.243 5 5 5h52c2.757 0 5-2.243 5-5v-12c0-2.757-2.243-5-5-5zm-9-35v35h-2v-30c0-1.103-.897-2-2-2h-9.026c.635-.838 1.026-1.87 1.026-3v-3h9c1.654 0 3 1.346 3 3zm-20 0v-3h6v3c0 1.654-1.346 3-3 3s-3-1.346-3-3zm16 5v30h-26v-30zm-30-5c0-1.654 1.346-3 3-3h9v3c0 1.13.391 2.162 1.026 3h-9.026c-1.103 0-2 .897-2 2v30h-2zm46 52c0 1.654-1.346 3-3 3h-52c-1.654 0-3-1.346-3-3v-12c0-1.654 1.346-3 3-3h52c1.654 0 3 1.346 3 3z"/><path d="m51 59h6v-2h-4v-4h4v-2h-4v-4h4v-2h-6z"/><path d="m45.142 57h-.284l-1.87-12.152-1.976.304 2.13 13.848h3.716l2.13-13.848-1.976-.304z"/><path d="m33 47h2v10h-2v2h6v-2h-2v-10h2v-2h-6z"/><path d="m27 45h-2v14h6v-2h-4z"/><path d="m20.447 51.105-12-6c-.311-.154-.678-.138-.973.044s-.474.504-.474.851v12c0 .347.18.668.475.851.16.099.342.149.525.149.153 0 .306-.035.447-.105l12-6c.339-.17.553-.516.553-.895s-.214-.725-.553-.895zm-11.447 5.277v-8.764l8.764 4.382z"/><path d="m32 37c6.065 0 11-4.935 11-11s-4.935-11-11-11-11 4.935-11 11 4.935 11 11 11zm5.311-18.25-.195 3.141-1.873 1.081-2.243-1.487v-1.97l2.63-1.744c.598.265 1.159.596 1.681.979zm3.689 7.25c0 .327-.02.65-.054.969l-2.83 1.408-2.116-1.222v-2.309l2.116-1.222 2.83 1.408c.034.318.054.641.054.968zm-14.311 7.25.195-3.141 1.855-1.071 2.261 1.499v1.948l-2.63 1.744c-.598-.265-1.159-.596-1.681-.979zm5.311-10.029 2 1.326v2.927l-2 1.326-2-1.326v-2.927zm1 7.316 2.261-1.499 1.855 1.071.195 3.141c-.522.383-1.083.714-1.681.979l-2.63-1.744zm-2-9.052-2.243 1.488-1.873-1.081-.195-3.141c.522-.383 1.083-.714 1.681-.979l2.63 1.743zm-5.116 2.139 2.116 1.221v2.309l-2.116 1.222-2.83-1.408c-.034-.318-.054-.641-.054-.968s.02-.65.054-.969zm-1.004 6.487-.079 1.268c-.425-.568-.792-1.182-1.075-1.842zm6.051 4.819 1.069-.709 1.069.709c-.351.042-.707.07-1.069.07s-.718-.028-1.069-.07zm8.268-3.551-.079-1.268 1.154-.574c-.283.66-.65 1.274-1.075 1.842zm1.075-8.916-1.154-.574.079-1.268c.425.568.792 1.182 1.075 1.842zm-7.205-5.393-1.069.709-1.069-.709c.351-.042.707-.07 1.069-.07s.718.028 1.069.07zm-8.268 3.551.079 1.268-1.154.574c.283-.66.65-1.274 1.075-1.842z"/><circle cx="32" cy="6" r="1"/><path d="m53 22h2v8h-2z"/><path d="m57 20h2v12h-2z"/><path d="m61 18h2v16h-2z"/><path d="m9 22h2v8h-2z"/><path d="m5 20h2v12h-2z"/><path d="m1 18h2v16h-2z"/></g></g></svg>