<svg id="Layer_5" enable-background="new 0 0 62 62" height="512" viewBox="0 0 62 62" width="512" xmlns="http://www.w3.org/2000/svg"><g><g><g><path d="m33 19h-4v-3c0-.55-.45-1-1-1h-2c-.55 0-1 .45-1 1v3h-4v-12c6.63 0 12 5.37 12 12z" fill="#ffeaa7"/></g><g><path d="m15 7v12h-4v-3c0-.55-.45-1-1-1h-2c-.55 0-1 .45-1 1v3h-4c0-6.63 5.37-12 12-12z" fill="#ffeaa7"/></g><g><path d="m15 7h6v12h-6z" fill="#fcd770"/></g><g><path d="m3 19h4 4 4 6 4 4 4 1c.55 0 1 .45 1 1v2c0 .55-.45 1-1 1h-1-4-22-4-1c-.55 0-1-.45-1-1v-2c0-.55.45-1 1-1z" fill="#fcd770"/></g><g><path d="m29 16v3h-4v-3c0-.55.45-1 1-1h2c.55 0 1 .45 1 1z" fill="#fcd770"/></g><g><path d="m11 16v3h-4v-3c0-.55.45-1 1-1h2c.55 0 1 .45 1 1z" fill="#fcd770"/></g><g><path d="m33 23v6 1c0-1.66-1.34-3-3-3h-1v-4z" fill="#b27946"/></g><g><path d="m6 27c-1.66 0-3 1.34-3 3v-7h4v4z" fill="#b27946"/></g><g><path d="m13 57h-4c-1.1 0-2-.9-2-2v-3c0-4.18 2.32-7.8 5.74-9.66l1.26 5.66 3-3h1 1l3 3 1.26-5.66c.93.5 1.78 1.14 2.52 1.88 1.99 1.99 3.22 4.74 3.22 7.78v3c0 1.1-.9 2-2 2h-4v4h-10z" fill="#e6e9ed"/></g><g><path d="m23.26 42.34-1.26 5.66-3-3 2.04-3.57c.78.22 1.52.52 2.22.91z" fill="#ccd1d9"/></g><g><path d="m14.96 41.43 2.04 3.57-3 3-1.26-5.66c.7-.39 1.44-.69 2.22-.91z" fill="#ccd1d9"/></g><g><path d="m27 57v2c0 1.1-.9 2-2 2h-2v-4z" fill="#f0d0b4"/></g><g><path d="m13 57v4h-2c-1.1 0-2-.9-2-2v-2z" fill="#f0d0b4"/></g><g><path d="m21.04 41.43-2.04 3.57h-1-1l-2.04-3.57c.96-.28 1.98-.43 3.04-.43s2.08.15 3.04.43z" fill="#f0d0b4"/></g><g><path d="m32.12 32.12c-.54.54-1.29.88-2.12.88h-1-.06c.04-.33.06-.66.06-1v-5h1c1.66 0 3 1.34 3 3 0 .83-.34 1.58-.88 2.12z" fill="#f0d0b4"/></g><g><path d="m7.06 33c-.04-.33-.06-.66-.06-1v-5-4h22v4 5c0 .34-.02.67-.06 1-.49 4.5-4.31 8-8.94 8h-2-2c-4.63 0-8.45-3.5-8.94-8z" fill="#f0d0b4"/></g><g><path d="m7 32c0 .34.02.67.06 1h-.06-1c-.83 0-1.58-.34-2.12-.88s-.88-1.29-.88-2.12c0-1.66 1.34-3 3-3h1z" fill="#f0d0b4"/></g><g><path d="m61 45v4c0 1.1-.9 2-2 2h-2v-2l-1.35-.45c-.19-.68-.46-1.33-.8-1.94l.64-1.27-2.34-2.34h5.85c1.1 0 2 .9 2 2z" fill="#fcd770"/></g><g><path d="m61 29v4c0 1.1-.9 2-2 2h-24c-1.1 0-2-.9-2-2v-3-1c0-1.1.9-2 2-2h8 4 4 8c1.1 0 2 .9 2 2z" fill="#fcd770"/></g><g><path d="m44.55 42.35c-.68.19-1.33.46-1.94.8l-1.27-.64-.48.49h-.01-5.85c-1.1 0-2-.9-2-2v-4c0-1.1.9-2 2-2h24c1.1 0 2 .9 2 2v4c0 1.1-.9 2-2 2h-5.85-.01l-.48-.49-1.27.64c-.61-.34-1.26-.61-1.94-.8l-.45-1.35h-4z" fill="#fcd770"/></g><g><path d="m40.85 43-2.34 2.34.64 1.27c-.34.61-.61 1.26-.8 1.94l-1.35.45v2h-2c-1.1 0-2-.9-2-2v-4c0-1.1.9-2 2-2z" fill="#fcd770"/></g><g><path d="m42.61 43.15c.61-.34 1.26-.61 1.94-.8l.45-1.35h4l.45 1.35c.68.19 1.33.46 1.94.8l1.27-.64.48.49h.01l2.34 2.34-.64 1.27c.34.61.61 1.26.8 1.94l1.35.45v2 2l-1.35.45c-.19.68-.46 1.33-.8 1.94l.64 1.27-2.83 2.83-1.27-.64c-.61.34-1.26.61-1.94.8l-.45 1.35h-4l-.45-1.35c-.68-.19-1.33-.46-1.94-.8l-1.27.64-2.83-2.83.64-1.27c-.34-.61-.61-1.26-.8-1.94l-1.35-.45v-2-2l1.35-.45c.19-.68.46-1.33.8-1.94l-.64-1.27 2.34-2.34h.01l.48-.49zm10.39 7.85c0-3.31-2.69-6-6-6s-6 2.69-6 6 2.69 6 6 6 6-2.69 6-6z" fill="#fc6e51"/></g><g><path d="m53 51c0 3.31-2.69 6-6 6s-6-2.69-6-6 2.69-6 6-6 6 2.69 6 6zm-4 0c0-1.1-.9-2-2-2s-2 .9-2 2 .9 2 2 2 2-.9 2-2z" fill="#ff826e"/></g><g><circle cx="55" cy="10" fill="#ff826e" r="2"/></g><g><circle cx="47" cy="3" fill="#ff826e" r="2"/></g><g><circle cx="39" cy="10" fill="#ff826e" r="2"/></g></g><g><path d="m62 29c0-1.654-1.346-3-3-3h-7v-6h4v-7.184c1.161-.414 2-1.514 2-2.816 0-1.654-1.346-3-3-3s-3 1.346-3 3c0 1.302.839 2.402 2 2.816v5.184h-4v8h-2v-20.184c1.161-.414 2-1.514 2-2.816 0-1.654-1.346-3-3-3s-3 1.346-3 3c0 1.302.839 2.402 2 2.816v20.184h-2v-8h-4v-5.184c1.161-.414 2-1.514 2-2.816 0-1.654-1.346-3-3-3s-3 1.346-3 3c0 1.302.839 2.402 2 2.816v7.184h4v6h-7c-.352 0-.686.072-1 .184v-2.184c1.103 0 2-.897 2-2v-2c0-1.103-.897-2-2-2h-.051c-.514-6.701-6.118-12-12.949-12h-6c-6.831 0-12.435 5.299-12.949 12h-.051c-1.103 0-2 .897-2 2v2c0 1.103.897 2 2 2v6c0 2.206 1.794 4 4 4h.202c.691 3.391 3.109 6.154 6.288 7.352-3.85 2-6.49 6.018-6.49 10.648v3c0 1.302.839 2.402 2 2.816v1.184c0 1.654 1.346 3 3 3h14c1.654 0 3-1.346 3-3v-1.184c1.161-.414 2-1.514 2-2.816v-3c0-4.63-2.64-8.648-6.49-10.648 3.179-1.198 5.597-3.96 6.288-7.352h.202c.749 0 1.442-.22 2.042-.579.086.604.348 1.147.738 1.579-.48.532-.78 1.229-.78 2v4c0 .771.301 1.468.78 2-.48.532-.78 1.229-.78 2v4c0 1.654 1.346 3 3 3h1v1.721l1.544.515c.136.401.297.791.48 1.166l-.727 1.453 3.848 3.848 1.453-.727c.375.184.765.344 1.166.48l.515 1.544h5.441l.515-1.544c.4-.137.79-.297 1.166-.48l1.453.727 3.848-3.848-.727-1.453c.184-.375.344-.765.48-1.166l1.545-.515v-1.721h1c1.654 0 3-1.346 3-3v-4c0-.771-.301-1.468-.78-2 .48-.532.78-1.229.78-2v-4c0-.771-.301-1.468-.78-2 .48-.532.78-1.229.78-2zm-7-20c.551 0 1 .448 1 1s-.449 1-1 1-1-.448-1-1 .449-1 1-1zm-8-7c.551 0 1 .448 1 1s-.449 1-1 1-1-.448-1-1 .449-1 1-1zm-8 7c.551 0 1 .448 1 1s-.449 1-1 1-1-.448-1-1 .449-1 1-1zm-4 19h24c.551 0 1 .448 1 1v4c0 .552-.449 1-1 1h-24c-.551 0-1-.448-1-1v-3-1c0-.552.449-1 1-1zm25 9v4c0 .552-.449 1-1 1h-5.444l-.702-.702-1.453.727c-.375-.184-.765-.344-1.166-.48l-.514-1.545h-5.441l-.515 1.544c-.4.137-.79.297-1.166.48l-1.453-.727-.702.703h-5.444c-.551 0-1-.448-1-1v-4c0-.552.449-1 1-1h24c.551 0 1 .448 1 1zm-28-10.444c-.591-.344-1.268-.556-2-.556v-2h2zm-.051-8.556h-1.949v-2c0-1.103-.897-2-2-2h-2c-1.103 0-2 .897-2 2v2h-2v-9.949c5.268.477 9.472 4.681 9.949 9.949zm-3.949 0h-2v-2h2zm-12-10h4v10h-4zm-2 .051v9.949h-2v-2c0-1.103-.897-2-2-2h-2c-1.103 0-2 .897-2 2v2h-1.949c.477-5.268 4.681-9.472 9.949-9.949zm-4 9.949h-2v-2h2zm-8.001 2h.001 32v2h-32zm4.001 4v2c-.732 0-1.409.212-2 .556v-2.556zm-2 6c0-1.103.897-2 2-2v4c-1.103 0-2-.897-2-2zm18.11 12.894-.691 3.111-1.172-1.172 1.251-2.189c.207.078.412.159.612.25zm-2.618-.77-1.072 1.876h-.84l-1.072-1.876c.488-.074.984-.124 1.492-.124s1.004.05 1.492.124zm-3.739 2.709-1.172 1.172-.691-3.111c.2-.091.405-.172.612-.25zm-5.753 14.167v-1h2v2h-1c-.551 0-1-.448-1-1zm15 1h-1v-2h2v1c0 .552-.449 1-1 1zm3-8v3c0 .552-.449 1-1 1h-3v-4h-2v8h-8v-8h-2v4h-3c-.551 0-1-.448-1-1v-3c0-3.296 1.61-6.217 4.078-8.039l1.341 6.035 3.581-3.582v9.586h2v-9.586l3.581 3.581 1.341-6.035c2.468 1.823 4.078 4.744 4.078 8.04zm-8-12h-4c-4.411 0-8-3.589-8-8v-8h20v8c0 4.411-3.589 8-8 8zm10-8v-4c1.103 0 2 .897 2 2s-.897 2-2 2zm6 16.279v1.721h-1c-.551 0-1-.448-1-1v-4c0-.552.449-1 1-1h3.443l-1.146 1.146.727 1.453c-.184.375-.344.765-.48 1.166zm20 4-1.165.388-.144.51c-.172.61-.411 1.19-.711 1.725l-.259.462.547 1.097-1.809 1.809-1.095-.547-.462.258c-.537.301-1.118.54-1.726.713l-.509.144-.388 1.162h-2.559l-.388-1.164-.509-.144c-.608-.173-1.189-.412-1.726-.713l-.462-.258-1.095.547-1.809-1.809.547-1.097-.259-.462c-.3-.534-.539-1.114-.711-1.725l-.144-.51-1.164-.386v-2.559l1.165-.388.144-.51c.172-.61.411-1.19.711-1.725l.259-.462-.547-1.097 1.809-1.809 1.095.547.462-.258c.537-.301 1.118-.54 1.726-.713l.509-.144.388-1.161h2.559l.388 1.164.509.144c.608.173 1.189.412 1.726.713l.462.258 1.095-.547 1.809 1.809-.547 1.097.259.462c.3.534.539 1.114.711 1.725l.144.51 1.164.386zm4-3.279c0 .552-.449 1-1 1h-1v-1.721l-1.544-.515c-.136-.401-.297-.791-.48-1.166l.727-1.453-1.146-1.145h3.443c.551 0 1 .448 1 1z"/><path d="m47 44c-3.86 0-7 3.141-7 7s3.14 7 7 7 7-3.141 7-7-3.14-7-7-7zm0 12c-2.757 0-5-2.243-5-5s2.243-5 5-5 5 2.243 5 5-2.243 5-5 5z"/><path d="m47 48c-1.654 0-3 1.346-3 3s1.346 3 3 3 3-1.346 3-3-1.346-3-3-3zm0 4c-.551 0-1-.448-1-1s.449-1 1-1 1 .448 1 1-.449 1-1 1z"/><path d="m15 30h2c0-2.206-1.794-4-4-4s-4 1.794-4 4h2c0-1.103.897-2 2-2s2 .897 2 2z"/><path d="m23 26c-2.206 0-4 1.794-4 4h2c0-1.103.897-2 2-2s2 .897 2 2h2c0-2.206-1.794-4-4-4z"/><path d="m18 36c-1.103 0-2-.897-2-2h-2c0 2.206 1.794 4 4 4s4-1.794 4-4h-2c0 1.103-.897 2-2 2z"/></g></g></svg>