<svg id="Layer_5" enable-background="new 0 0 64 64" height="512" viewBox="0 0 64 64" width="512" xmlns="http://www.w3.org/2000/svg"><g><g><g><path d="m33.17 39.17 1.83 12.83-3 3-3-3 1.83-12.83 1.17-1.17z" fill="#e6e9ed"/></g><g><path d="m19 37h-1v-1h6c.55 0 1.05-.22 1.41-.59.16-.15.29-.33.38-.53.33-.14.67-.25 1.03-.34l.34-.08.84 7.54 2.83-2.83-1.83 12.83 3 3 3-3-1.83-12.83 2.83 2.83.84-7.54c.11.03.23.06.35.09 1.77.44 3.27 1.48 4.3 2.86-.89.52-1.49 1.48-1.49 2.59 0 .83.34 1.58.88 2.12s1.29.88 2.12.88v7.93l-2.7 2.1c-1.44 1.62-2.3 3.75-2.3 6.07v2.9h-14v-2.9c0-2.32-.86-4.45-2.3-6.07-.5-.57-1.07-1.07-1.7-1.5v-8.7-.01c.43-.14.81-.39 1.12-.7.54-.54.88-1.29.88-2.12 0-1.66-1.34-3-3-3z" fill="#4fc1e9"/></g><g><path d="m36.84 34.46-.84 7.54-2.83-2.83-.17-1.17h-1l3-4s.77.2 1.84.46z" fill="#3bafda"/></g><g><path d="m29 34 3 4h-1l-.17 1.17-2.83 2.83-.84-7.54z" fill="#3bafda"/></g><g><path d="m60 59.1v2.9h-6v-11.5c3.53 1.29 6 4.69 6 8.6z" fill="#ff826e"/></g><g><path d="m44 50.5v11.5h-6v-2.9c0-2.32.86-4.45 2.3-6.07l2.7-2.1c.32-.16.65-.31 1-.43z" fill="#ff826e"/></g><g><path d="m24 59.1v2.9h-6v-11.5c.72.25 1.39.6 2 1.03.63.43 1.2.93 1.7 1.5 1.44 1.62 2.3 3.75 2.3 6.07z" fill="#ff826e"/></g><g><path d="m8 50.5v11.5h-6v-2.9c0-2.32.86-4.45 2.3-6.07.99-1.13 2.26-2.01 3.7-2.53z" fill="#ff826e"/></g><g><path d="m54 50.5v11.5h-10v-11.5c.65-.25 1.33-.41 2.04-.5l2.96 3 2.96-3c.71.09 1.39.25 2.04.5z" fill="#b4dd7f"/></g><g><path d="m18 50.5v11.5h-10v-11.5c.65-.25 1.33-.41 2.04-.5l2.96 3 2.96-3c.71.09 1.39.25 2.04.5z" fill="#b4dd7f"/></g><g><path d="m41 20.75c0 .9-.18 1.76-.51 2.57-.54-.8-1.45-1.32-2.49-1.32h-1c0-1.1-.9-2-2-2h-6c-1.1 0-2 .9-2 2h-1c-1.04 0-1.95.52-2.49 1.32-.33-.81-.51-1.67-.51-2.57 0-3.73 3.02-6.75 6.75-6.75h4.5c1.87 0 3.55.76 4.77 1.98s1.98 2.9 1.98 4.77z" fill="#656d78"/></g><g><path d="m58 32h-5c-.63 0-1.22.3-1.6.8l-2.4 3.2h-5-2c-1.1 0-2-.9-2-2v-2c0-3.31 2.69-6 6-6h6c3.31 0 6 2.69 6 6z" fill="#ffeaa7"/></g><g><path d="m22 32h-5c-.63 0-1.22.3-1.6.8l-2.4 3.2h-5-2c-1.1 0-2-.9-2-2v-2c0-3.31 2.69-6 6-6h6c3.31 0 6 2.69 6 6z" fill="#ffeaa7"/></g><g><path d="m60 32c1.1 0 2 .9 2 2 0 .55-.22 1.05-.59 1.41-.36.37-.86.59-1.41.59h-6-5l2.4-3.2c.38-.5.97-.8 1.6-.8h5z" fill="#fcd770"/></g><g><path d="m26 34-.21.88c-.09.2-.22.38-.38.53-.36.37-.86.59-1.41.59h-6-5l2.4-3.2c.38-.5.97-.8 1.6-.8h5 2c1.1 0 2 .9 2 2z" fill="#fcd770"/></g><g><path d="m55 37c1.66 0 3 1.34 3 3 0 .83-.34 1.58-.88 2.12s-1.29.88-2.12.88h-1v-6z" fill="#f0d0b4"/></g><g><path d="m51.2 46.82.76 3.18-2.96 3-2.96-3 .76-3.18c.38.12.78.18 1.2.18h2c.42 0 .82-.06 1.2-.18z" fill="#f0d0b4"/></g><g><path d="m54 37v6c0 1.79-1.18 3.31-2.8 3.82-.38.12-.78.18-1.2.18h-2c-.42 0-.82-.06-1.2-.18-1.62-.51-2.8-2.03-2.8-3.82v-6-1h5 5z" fill="#f0d0b4"/></g><g><path d="m44 37v6h-1c-.83 0-1.58-.34-2.12-.88s-.88-1.29-.88-2.12c0-1.11.6-2.07 1.49-2.59.44-.26.96-.41 1.51-.41z" fill="#f0d0b4"/></g><g><path d="m38 22c1.04 0 1.95.52 2.49 1.32v.01c.32.48.51 1.05.51 1.67 0 .83-.34 1.58-.88 2.12s-1.29.88-2.12.88h-1v-6z" fill="#f0d0b4"/></g><g><path d="m33 32c.5 0 .99-.09 1.43-.27v.01l.57 2.26-3 4-3-4 .57-2.26v-.01c.44.18.92.27 1.43.27z" fill="#f0d0b4"/></g><g><path d="m37 22v6c0 1.7-1.06 3.16-2.57 3.73-.44.18-.93.27-1.43.27h-2c-.51 0-.99-.09-1.43-.27-1.51-.57-2.57-2.03-2.57-3.73v-6c0-1.1.9-2 2-2h6c1.1 0 2 .9 2 2z" fill="#f0d0b4"/></g><g><path d="m27 22v6h-1c-.83 0-1.58-.34-2.12-.88s-.88-1.29-.88-2.12c0-.62.19-1.19.51-1.67v-.01c.54-.8 1.45-1.32 2.49-1.32z" fill="#f0d0b4"/></g><g><path d="m19 37c1.66 0 3 1.34 3 3 0 .83-.34 1.58-.88 2.12-.31.31-.69.56-1.12.7-.31.12-.65.18-1 .18h-1v-6z" fill="#f0d0b4"/></g><g><path d="m15.2 46.82.76 3.18-2.96 3-2.96-3 .76-3.18c.38.12.78.18 1.2.18h2c.42 0 .82-.06 1.2-.18z" fill="#f0d0b4"/></g><g><path d="m18 37v6c0 1.79-1.18 3.31-2.8 3.82-.38.12-.78.18-1.2.18h-2c-.42 0-.82-.06-1.2-.18-1.62-.51-2.8-2.03-2.8-3.82v-6-1h5 5z" fill="#f0d0b4"/></g><g><path d="m8 37v6h-1c-.83 0-1.58-.34-2.12-.88s-.88-1.29-.88-2.12c0-1.66 1.34-3 3-3z" fill="#f0d0b4"/></g><g><path d="m58.15 22h-6.55c-3.64-7.12-11.05-12-19.6-12s-15.96 4.88-19.6 12h-6.55c.86-2.25 2-4.35 3.37-6.28l-1.26-2.1 5.66-5.66 2.1 1.26c3.41-2.43 7.38-4.13 11.68-4.84l.6-2.38h8l.6 2.38c4.3.71 8.27 2.41 11.68 4.84l2.1-1.26 5.66 5.66-1.26 2.1c1.37 1.93 2.51 4.03 3.37 6.28z" fill="#fcd770"/></g></g><g><path d="m63 34c0-1.654-1.346-3-3-3h-1.071c-.487-3.388-3.408-6-6.929-6h-6c-1.618 0-3.105.557-4.292 1.482.184-.459.292-.957.292-1.482 0-.631-.16-1.22-.421-1.752.274-.803.421-1.639.421-2.494 0-4.275-3.479-7.754-7.754-7.754h-4.492c-4.275 0-7.754 3.479-7.754 7.754 0 .856.147 1.691.421 2.495-.261.531-.421 1.12-.421 1.751 0 2.206 1.794 4 4 4h.101c.281 1.38 1.141 2.541 2.305 3.253l-.23.921-1.228.305c-.249-1.405-1.472-2.479-2.948-2.479h-1.071c-.487-3.388-3.408-6-6.929-6h-6c-3.86 0-7 3.141-7 7v2c0 1.2.713 2.231 1.734 2.71-1.045.722-1.734 1.926-1.734 3.29 0 2.206 1.794 4 4 4h.101c.299 1.469 1.257 2.686 2.537 3.38l-.419 1.738c-4.732.922-8.219 5.095-8.219 9.98v3.902h60v-3.902c0-4.885-3.487-9.058-8.219-9.979l-.419-1.738c1.281-.694 2.238-1.911 2.537-3.38h.101c2.206 0 4-1.794 4-4 0-1.201-.542-2.266-1.382-3h2.382c1.654-.001 3-1.347 3-3.001zm-3-1c.551 0 1 .448 1 1s-.449 1-1 1h-9l1.199-1.6c.189-.251.488-.4.801-.4zm-14-6h6c2.415 0 4.435 1.721 4.899 4h-3.899c-.938 0-1.835.448-2.4 1.2l-2.1 2.8h-6.5c-.551 0-1-.448-1-1v-2c0-2.757 2.243-5 5-5zm-.781 22.118c-.418.082-.822.197-1.219.327v-3.476c.435.584.994 1.062 1.639 1.411zm-28.858-1.738c1.281-.694 2.238-1.911 2.537-3.38h.102v5.833c-.701-.316-1.441-.563-2.219-.715zm2.639-5.38v-4c1.103 0 2 .897 2 2s-.897 2-2 2zm4 17.098v1.902h-4v-8.916c2.407 1.436 4 4.059 4 7.014zm-2-8.07v-7.585c1.19-.694 2-1.97 2-3.444 0-1.201-.542-2.266-1.382-3h2.382c.937 0 1.764-.44 2.315-1.115l.921 8.294 2.183-2.184-1.48 10.358 4.061 4.062 4.061-4.061-1.48-10.358 2.183 2.184.933-8.402c.888.339 1.694.857 2.363 1.532-.652.712-1.06 1.651-1.06 2.691 0 1.859 1.28 3.411 3 3.858v6.488c-3.011 1.784-5 5.064-5 8.752v1.902h-12v-1.902c0-3.261-1.559-6.199-4-8.07zm9.112-13.879-.221 1.546-1.127 1.126-.512-4.605.346-.086zm7.888-14.149c1.103 0 2 .897 2 2s-.897 2-2 2zm-.101 6h.101c.721 0 1.388-.206 1.972-.541-.613 1.04-.972 2.248-.972 3.541v2c0 .051.013.099.015.15-.505-.238-1.032-.433-1.578-.57l-1.612-.404-.231-.922c1.164-.713 2.024-1.874 2.305-3.254zm5.101 13c-1.103 0-2-.897-2-2s.897-2 2-2zm-7.599-6.869.346.087-.512 4.603-1.127-1.126-.221-1.546zm-1.462 16.515-1.939 1.94-1.939-1.939 1.715-12.008.224-.225.224.224zm5.061 7.452c0-2.955 1.593-5.578 4-7.014v8.916h-4zm-15-34.098c0-1.103.897-2 2-2v4c-1.103 0-2-.897-2-2zm2.184-4h-.184c-.702 0-1.352.197-1.926.516-.033-.253-.074-.504-.074-.762 0-3.173 2.581-5.754 5.754-5.754h4.492c3.173 0 5.754 2.581 5.754 5.754 0 .258-.041.509-.074.762-.574-.319-1.224-.516-1.926-.516h-.184c-.414-1.161-1.514-2-2.816-2h-6c-1.302 0-2.402.839-2.816 2zm1.816 1c0-.552.449-1 1-1h6c.551 0 1 .448 1 1v6c0 1.654-1.346 3-3 3h-2c-1.654 0-3-1.346-3-3zm3 11h2c.24 0 .47-.038.701-.071l.213.852-1.914 2.553-1.915-2.552.213-.852c.232.032.462.07.702.07zm-7 0c.551 0 1 .448 1 1s-.449 1-1 1h-9l1.199-1.6c.189-.251.488-.4.801-.4zm-19-1c0-2.757 2.243-5 5-5h6c2.415 0 4.435 1.721 4.899 4h-3.899c-.938 0-1.835.448-2.4 1.2l-2.1 2.8h-6.5c-.551 0-1-.448-1-1zm0 8c0-1.103.897-2 2-2v4c-1.103 0-2-.897-2-2zm4-3h8v6c0 1.654-1.346 3-3 3h-2c-1.654 0-3-1.346-3-3zm3 11h2c.152 0 .295-.031.443-.045l.419 1.738-1.862 1.884-1.862-1.884.419-1.738c.148.014.291.045.443.045zm-2.311 3.073 3.311 3.35 3.311-3.35c.234.043.463.096.689.158v9.769h-8v-9.769c.226-.062.456-.115.689-.158zm-6.689 8.025c0-2.955 1.593-5.578 4-7.014v8.916h-4zm56 0v1.902h-4v-8.916c2.407 1.436 4 4.059 4 7.014zm-6-7.867v9.769h-8v-9.769c.226-.062.456-.115.689-.158l3.311 3.35 3.311-3.35c.233.043.463.096.689.158zm-2.138-1.538-1.862 1.884-1.862-1.884.419-1.738c.148.014.291.045.443.045h2c.152 0 .295-.031.443-.045zm-.862-3.693h-2c-1.654 0-3-1.346-3-3v-6h8v6c0 1.654-1.346 3-3 3zm5-4v-4c1.103 0 2 .897 2 2s-.897 2-2 2z"/><path d="m13.29 22.455c3.611-7.065 10.781-11.455 18.71-11.455s15.098 4.389 18.71 11.454l.279.545h8.619l-.52-1.357c-.803-2.098-1.852-4.099-3.121-5.959l1.333-2.223-6.76-6.762-2.223 1.334c-3.277-2.233-7.024-3.786-10.908-4.521l-.628-2.511h-9.562l-.628 2.511c-3.884.735-7.631 2.288-10.908 4.521l-2.223-1.334-6.761 6.762 1.333 2.223c-1.269 1.86-2.317 3.862-3.121 5.96l-.518 1.357h8.618zm-5.947-1.455c.737-1.647 1.64-3.222 2.694-4.694l.382-.533-1.201-2.002 4.552-4.554 2.002 1.202.534-.382c3.335-2.389 7.229-4.003 11.261-4.669l.648-.106.566-2.262h6.438l.565 2.262.648.106c4.032.666 7.926 2.28 11.261 4.669l.534.382 2.002-1.202 4.552 4.554-1.201 2.002.382.533c1.054 1.473 1.957 3.046 2.693 4.693h-4.453c-4.039-7.418-11.724-11.999-20.202-11.999-8.479 0-16.164 4.582-20.204 12z"/><circle cx="32" cy="6" r="1"/><circle cx="13.883" cy="13.883" r="1"/><circle cx="50" cy="13.883" r="1"/></g></g></svg>