<svg id="_x33_0" enable-background="new 0 0 62 62" height="512" viewBox="0 0 62 62" width="512" xmlns="http://www.w3.org/2000/svg"><g><g><g><path d="m59 51v10h-52v-10h4 44z" fill="#969faa"/></g><g><path d="m13 45h6 4 4 4 22.54c.17.3.39.58.63.83.25.24.53.46.83.63v4.54h-44v-6z" fill="#aab2bd"/></g><g><path d="m9 1v12 4 4 4 20h2 2v-4h6v4h4 4 4 22.54c-.34-.59-.54-1.27-.54-2v-6h-22-18v-8-6-18h24 16v20 6c0-2.21 1.79-4 4-4v-26z" fill="#ccd1d9"/></g><g><path d="m61 31v12c0 2.21-1.79 4-4 4-.73 0-1.41-.2-2-.54-.3-.17-.58-.39-.83-.63-.24-.25-.46-.53-.63-.83-.34-.59-.54-1.27-.54-2v-6-6c0-2.21 1.79-4 4-4 1.1 0 2.1.45 2.83 1.17.72.73 1.17 1.73 1.17 2.83z" fill="#aab2bd"/></g><g><path d="m13 41h6v4h-6z" fill="#ff826e"/></g><g><path d="m13 5h40v32h-40z" fill="#4fc1e9"/></g><g><path d="m41.62 9.62c.38-.38.92-.62 1.5-.62.56 0 1.1.22 1.5.62l.38.38.38-.38c.4-.4.94-.62 1.5-.62.58 0 1.12.24 1.5.62s.62.92.62 1.5c0 .56-.22 1.1-.62 1.5l-3.38 3.38-3.38-3.38c-.4-.4-.62-.94-.62-1.5 0-.58.24-1.12.62-1.5z" fill="#4fc1e9"/></g><g><path d="m9 21v4h-3c-.55 0-1-.45-1-1v-1-1c0-.55.45-1 1-1z" fill="#969faa"/></g><g><path d="m9 13v4h-3c-.55 0-1-.45-1-1v-1-1c0-.55.45-1 1-1z" fill="#969faa"/></g><g><path d="m37 25v4h-24v-6h10l2 2 2-2h10z" fill="#e6e9ed"/></g><g><path d="m37 5v18h-10l-2 2-2-2h-10v-18z" fill="#69d6f4"/></g><g><path d="m48.38 9.62c.38.38.62.92.62 1.5 0 .56-.22 1.1-.62 1.5l-3.38 3.38-3.38-3.38c-.4-.4-.62-.94-.62-1.5 0-.58.24-1.12.62-1.5s.92-.62 1.5-.62c.56 0 1.1.22 1.5.62l.38.38.38-.38c.4-.4.94-.62 1.5-.62.58 0 1.12.24 1.5.62z" fill="#ff826e"/></g></g><g><circle cx="57" cy="37" r="1"/><circle cx="57" cy="31" r="1"/><circle cx="57" cy="43" r="1"/><path d="m58 26.101v-26.101h-50v12h-2c-1.103 0-2 .897-2 2h-1c-1.654 0-3 1.346-3 3v45h2v-37c0-.552.449-1 1-1h1c0 1.103.897 2 2 2h2v20h2v4h-4v12h54v-12h-4v-2.101c.323.066.658.101 1 .101 2.757 0 5-2.243 5-5v-12c0-2.414-1.721-4.434-4-4.899zm-48-24.101h46v24.112c-.737.151-1.419.453-2 .89v-23.002h-42v34h40v5c0 .342.035.677.101 1h-20.101v-4h-2v4h-2v-4h-2v4h-2v-4h-2v4h-2v-4h-8v4h-2zm26 12h-2.382l-2.75-5.498-3 8-1.25-2.502h-3l-2.75-5.498-3 8-1.25-2.502h-2.618v-8h22zm-22 2h1.382l2.75 5.498 3-8 1.25 2.502h3l2.75 5.498 3-8 1.25 2.502h3.618v6h-9.414l-1.586 1.586-1.586-1.586h-9.414zm0 8h8.586l2.414 2.414 2.414-2.414h8.586v4h-22zm0 6h24v-24h14v30h-38zm4 14h-4v-2h4zm-12-30h2v2h-2zm-2 8h-1c-.352 0-.686.072-1 .184v-5.184c0-.552.449-1 1-1h1c0 1.103.897 2 2 2h2v2h-2c-1.103 0-2 .897-2 2zm2 2v-2h2v2zm52 36h-50v-8h50zm-4-10h-42v-4h41.026c.279.369.606.695.974.974zm6-7c0 1.654-1.346 3-3 3s-3-1.346-3-3v-12c0-1.654 1.346-3 3-3s3 1.346 3 3z"/><path d="m16 32h2v2h-2z"/><path d="m20 32h2v2h-2z"/><path d="m24 32h2v2h-2z"/><path d="m28 32h2v2h-2z"/><path d="m32 32h2v2h-2z"/><path d="m46.879 8c-.687 0-1.34.221-1.879.628-.539-.407-1.192-.628-1.879-.628-1.721 0-3.121 1.4-3.121 3.121 0 .822.333 1.626.914 2.207l4.086 4.086 4.086-4.086c.581-.581.914-1.385.914-2.207 0-1.721-1.4-3.121-3.121-3.121zm.793 3.914-2.672 2.672-2.672-2.672c-.208-.209-.328-.498-.328-.793 0-.618.503-1.121 1.121-1.121.3 0 .581.116.793.328l1.086 1.086 1.086-1.086c.212-.212.493-.328.793-.328.618 0 1.121.503 1.121 1.121 0 .295-.12.584-.328.793z"/><path d="m40 20h10v2h-10z"/><path d="m40 24h10v2h-10z"/><path d="m40 28h10v2h-10z"/></g></g></svg>