<svg id="Layer_3" enable-background="new 0 0 64 64" height="512" viewBox="0 0 64 64" width="512" xmlns="http://www.w3.org/2000/svg"><path d="m54 54h2v4c0 2.21-1.79 4-4 4h-46c-2.21 0-4-1.79-4-4v-4h2z" fill="#969faa"/><path d="m8 16c-2.21 0-4 1.79-4 4v34h50v-38z" fill="#ccd1d9"/><path d="m9 20c-.55 0-1 .45-1 1v28c0 .55.45 1 1 1h40c.55 0 1-.45 1-1v-29z" fill="#69d6f4"/><path d="m48 2c7.73 0 14 6.27 14 14 0 5.58-3.27 10.4-8 12.65-1.25.59-2.59 1.01-4 1.21-.65.09-1.32.14-2 .14-2.05 0-4-.44-5.76-1.24-1.55-.7-2.95-1.68-4.14-2.86-1.18-1.19-2.16-2.59-2.86-4.14-.26-.57-.48-1.15-.66-1.76-.38-1.27-.58-2.61-.58-4 0-7.73 6.27-14 14-14z" fill="#fcd770"/><g fill="#b4dd7f"><path d="m36.41 42.59c.37.36.59.86.59 1.41 0 1.1-.9 2-2 2s-2-.9-2-2 .9-2 2-2c.55 0 1.05.22 1.41.59z"/><path d="m21.41 27.59c.37.36.59.86.59 1.41 0 1.1-.9 2-2 2s-2-.9-2-2 .9-2 2-2c.55 0 1.05.22 1.41.59z"/><path d="m18 44c0-1.1.9-2 2-2 .55 0 1.05.22 1.41.59.37.36.59.86.59 1.41 0 1.1-.9 2-2 2s-2-.9-2-2z"/></g><path d="m63 16c0-8.271-6.729-15-15-15-7.933 0-14.431 6.195-14.949 14h-25.051c-2.757 0-5 2.243-5 5v33h-2v5c0 2.757 2.243 5 5 5h46c2.757 0 5-2.243 5-5v-5h-2v-23.744c4.752-2.519 8-7.513 8-13.256zm-15-13c7.168 0 13 5.832 13 13s-5.832 13-13 13-13-5.832-13-13 5.832-13 13-13zm-13.934 18.52-2.48 2.48h-8l-2.301 2.301c-.391-.188-.823-.301-1.285-.301-1.654 0-3 1.346-3 3s1.346 3 3 3 3-1.346 3-3c0-.462-.113-.894-.301-1.285l1.715-1.715h8l2.572-2.572c.499.87 1.082 1.683 1.739 2.433l-15.44 15.44c-.391-.188-.823-.301-1.285-.301-1.654 0-3 1.346-3 3s1.346 3 3 3 3-1.346 3-3c0-.462-.113-.894-.301-1.285l15.44-15.44c.75.657 1.563 1.24 2.433 1.739l-2.572 2.572v8l-1.715 1.715c-.391-.188-.823-.301-1.285-.301-1.654 0-3 1.346-3 3s1.346 3 3 3 3-1.346 3-3c0-.462-.113-.894-.301-1.285l2.301-2.301v-8l2.48-2.48c1.711.68 3.57 1.066 5.52 1.066.338 0 .668-.029 1-.051v18.051h-40v-28h24.875c.062.174.123.349.191.52zm-13.066 7.48c0 .552-.449 1-1 1s-1-.448-1-1 .449-1 1-1 1 .448 1 1zm0 15c0 .552-.449 1-1 1s-1-.448-1-1 .449-1 1-1 1 .448 1 1zm15 0c0 .552-.449 1-1 1s-1-.448-1-1 .449-1 1-1 1 .448 1 1zm19 14c0 1.654-1.346 3-3 3h-46c-1.654 0-3-1.346-3-3v-3h50 2zm-2-5h-48v-33c0-1.654 1.346-3 3-3h25.051c.045.678.119 1.349.252 2h-24.303c-1.103 0-2 .897-2 2v28c0 1.103.897 2 2 2h40c1.103 0 2-.897 2-2v-18.302c.687-.14 1.35-.342 2-.573z"/><path d="m41.573 9.7-1.428-1.4c-3.156 3.219-4.031 7.968-2.229 12.1l1.833-.799c-1.475-3.381-.759-7.267 1.824-9.901z"/><path d="m40.3 23.856 1.336-1.492c-.56-.561-1.042-1.188-1.434-1.864l-1.731 1c.479.828 1.067 1.595 1.79 2.317z"/><path d="m26 57h6v2h-6z"/><path d="m34 57h2v2h-2z"/><path d="m22 57h2v2h-2z"/><path d="m47 25h2v-2c2.206 0 4-1.794 4-4 0-1.193-.525-2.267-1.357-3 .832-.733 1.357-1.807 1.357-3 0-2.206-1.794-4-4-4v-2h-2v2h-2v14h2zm0-14h2c1.103 0 2 .897 2 2s-.897 2-2 2h-2zm0 6h2c1.103 0 2 .897 2 2s-.897 2-2 2h-2z"/><path d="m13 25h2v-2h-4v12h2z"/><path d="m11 37h2v2h-2z"/><path d="m27.722 40.329h1.899v2h-1.899z" transform="matrix(.707 -.707 .707 .707 -20.826 32.379)"/><path d="m30.464 37.535h2v2h-2z" transform="matrix(.707 -.707 .707 .707 -18.033 33.535)"/><path d="m33.293 34.707h2v2h-2z" transform="matrix(.707 -.707 .707 .707 -15.205 34.707)"/><path d="m24.464 31.535h2v2h-2z" transform="matrix(.707 -.707 .707 .707 -15.548 27.535)"/><path d="m27.293 28.707h2v2h-2z" transform="matrix(.707 -.707 .707 .707 -12.719 28.707)"/><path d="m21.722 34.329h1.899v2h-1.899z" transform="matrix(.707 -.707 .707 .707 -18.341 26.379)"/></svg>