<svg id="_x33_0" enable-background="new 0 0 64 64" height="512" viewBox="0 0 64 64" width="512" xmlns="http://www.w3.org/2000/svg"><g><g><g><path d="m40 4v-1c0-.55-.45-1-1-1h-31v5c0 .55-.45 1-1 1h-5v53c0 .55.45 1 1 1h37z" fill="#e6e9ed"/></g><g><path d="m37 42 4 16-5 4-5-4 4-16z" fill="#ffeaa7"/></g><g><path d="m37.94 39.17-.94 2.83h-2l-.94-2.83 1.94-1.17z" fill="#fcd770"/></g><g><path d="m37.94 39.17 3.06 1.83.88-4.4c.76.29 1.49.64 2.18 1.04 1.4.8 2.65 1.81 3.72 2.97 2.65 2.86 4.22 6.66 4.22 10.76v10.63h-6-10l5-4-4-16z" fill="#b4dd7f"/></g><g><path d="m26 62h-6v-10.63c0-1.15.12-2.28.36-3.37 1.13-5.16 4.78-9.48 9.76-11.4l.88 4.4 3.06-1.83.94 2.83-4 16 5 4z" fill="#b4dd7f"/></g><g><path d="m40 36c.65.16 1.28.36 1.88.6l-.88 4.4-3.06-1.83-1.94-1.17z" fill="#a0d468"/></g><g><path d="m36 38-1.94 1.17-3.06 1.83-.88-4.4c.61-.24 1.23-.44 1.88-.6z" fill="#a0d468"/></g><g><path d="m8 2v5c0 .55-.45 1-1 1h-5z" fill="#fcd770"/></g><g><path d="m12 6h24v4h-24z" fill="#b4dd7f"/></g><g><circle cx="10" cy="48" fill="#ff826e" r="4"/></g><g><circle cx="10" cy="20" fill="#ff826e" r="4"/></g><g><circle cx="10" cy="34" fill="#ff826e" r="4"/></g><g><path d="m47.5 9.29c.5.21 1.03.31 1.55.31 1.06 0 2.1-.41 2.88-1.19l1.09-1.09 5.66 5.66-1.09 1.09c-1.16 1.16-1.51 2.91-.88 4.43.31.76.84 1.38 1.5 1.82.65.43 1.43.68 2.25.68h1.54v8h-1.54c-1.64 0-3.12.99-3.75 2.5-.21.5-.31 1.03-.31 1.55 0 1.06.41 2.1 1.19 2.88l1.09 1.09-5.66 5.66-1.12-1.12c-1.08-1.08-2.68-1.44-4.12-.95-1.07-1.16-2.32-2.17-3.72-2.97 5.7-1.38 9.94-6.51 9.94-12.64 0-4.6-2.39-8.65-6-10.96 0-.01 0-.03 0-.04 0-1.66-.67-3.16-1.76-4.24-1.08-1.09-2.58-1.76-4.24-1.76-.55 0-1.05.22-1.41.59-.37.36-.59.86-.59 1.41v-6h5v1.54c0 1.64.99 3.12 2.5 3.75z" fill="#ffc729"/></g><g><path d="m41 34c4.97 0 9-4.03 9-9 0-2.84-1.31-5.37-3.37-7.02.87-1.11 1.36-2.48 1.37-3.94 3.61 2.31 6 6.36 6 10.96 0 6.13-4.24 11.26-9.94 12.64-.69-.4-1.42-.75-2.18-1.04-.6-.24-1.23-.44-1.88-.6l-.38-2.1h.01c.45.06.9.1 1.37.1z" fill="#fcd770"/></g><g><path d="m27 20c-.9 0-1.7.39-2.24 1.02l-.01-.01-.25-1.01-.29-1.15c-.14-.56-.21-1.14-.21-1.73 0-1.96.8-3.74 2.09-5.03s3.07-2.09 5.03-2.09h.88 4 4c0-.55.22-1.05.59-1.41.36-.37.86-.59 1.41-.59 1.66 0 3.16.67 4.24 1.76 1.09 1.08 1.76 2.58 1.76 4.24v.04c-.01 1.46-.5 2.83-1.37 3.94-.58.75-1.33 1.37-2.21 1.81l-.42.21c0-1.1-.9-2-2-2h-12c-1.1 0-2 .9-2 2z" fill="#b27946"/></g><g><path d="m47.12 25.12c-.54.54-1.29.88-2.12.88h-1.07-.01c.06-.33.08-.66.08-1v-5h1c1.66 0 3 1.34 3 3 0 .83-.34 1.58-.88 2.12z" fill="#f0d0b4"/></g><g><path d="m39.62 33.9.38 2.1-4 2-4-2 .79-4.36c.69.24 1.43.36 2.21.36h2c.78 0 1.52-.12 2.21-.36z" fill="#f0d0b4"/></g><g><path d="m28.07 26h-1.07c-.83 0-1.58-.34-2.12-.88s-.88-1.29-.88-2.12c0-.76.28-1.45.76-1.98.54-.63 1.34-1.02 2.24-1.02h1v5c0 .34.02.67.08 1z" fill="#f0d0b4"/></g><g><path d="m44 20v5c0 .34-.02.67-.08 1-.37 2.65-2.23 4.82-4.71 5.64-.69.24-1.43.36-2.21.36h-2c-.78 0-1.52-.12-2.21-.36-2.48-.82-4.34-2.99-4.71-5.64-.06-.33-.08-.66-.08-1v-5c0-1.1.9-2 2-2h12c1.1 0 2 .9 2 2z" fill="#f0d0b4"/></g></g><g><circle cx="32" cy="22" r="1"/><circle cx="40" cy="22" r="1"/><path d="m32.211 26.658c.722 1.445 2.174 2.342 3.789 2.342s3.067-.897 3.789-2.342l.105-.211-1.789-.895-.105.212c-.381.762-1.147 1.236-2 1.236s-1.619-.474-2-1.236l-.105-.211-1.789.895z"/><path d="m10 15c-2.757 0-5 2.243-5 5s2.243 5 5 5 5-2.243 5-5-2.243-5-5-5zm0 8c-1.654 0-3-1.346-3-3s1.346-3 3-3 3 1.346 3 3-1.346 3-3 3z"/><path d="m10 29c-2.757 0-5 2.243-5 5s2.243 5 5 5 5-2.243 5-5-2.243-5-5-5zm0 8c-1.654 0-3-1.346-3-3s1.346-3 3-3 3 1.346 3 3-1.346 3-3 3z"/><path d="m17 33h12v2h-12z"/><path d="m10 43c-2.757 0-5 2.243-5 5s2.243 5 5 5 5-2.243 5-5-2.243-5-5-5zm0 8c-1.654 0-3-1.346-3-3s1.346-3 3-3 3 1.346 3 3-1.346 3-3 3z"/><path d="m60.461 20c-1.24 0-2.349-.74-2.825-1.884-.478-1.149-.218-2.459.662-3.339l1.796-1.796-7.074-7.075-1.796 1.796c-.879.879-2.19 1.14-3.339.662-1.145-.476-1.885-1.585-1.885-2.825v-2.539h-5c0-1.103-.897-2-2-2h-31.414l-6.586 6.586v53.414c0 1.103.897 2 2 2h50v-11.631c0-3.665-1.187-7.093-3.221-9.894.525.127 1.017.395 1.418.796l1.824 1.823 7.075-7.074-1.797-1.796c-.879-.88-1.139-2.19-.662-3.339.475-1.145 1.585-1.885 2.824-1.885h2.539v-10zm-7.461 5c0 5.437-3.607 10.132-8.811 11.562-1.036-.561-2.149-1.005-3.314-1.345l-.04-.223c.055.001.11.006.165.006 5.514 0 10-4.486 10-10 0-2.735-1.106-5.3-3.051-7.179.363-.61.633-1.273.81-1.971 2.678 2.266 4.241 5.581 4.241 9.15zm-28 23v13h-4v-9.631c0-5.788 3.334-10.916 8.384-13.352l.914 4.571 3.203-1.922.458 1.374-4.085 16.34 3.275 2.62h-6.149v-13zm2-27v4c-1.103 0-2-.897-2-2s.897-2 2-2zm.184-2h-.184c-.582 0-1.131.131-1.63.355l-.187-.748c-.121-.483-.183-.983-.183-1.484 0-3.376 2.747-6.123 6.123-6.123h8.061c.414 1.161 1.514 2 2.816 2h1v-2h-1c-.551 0-1-.449-1-1s.449-1 1-1c2.757 0 5 2.243 5 5 0 1.843-.906 3.518-2.402 4.528-.517-.908-1.481-1.528-2.598-1.528h-12c-1.302 0-2.402.839-2.816 2zm-14.184-10v-2h2v2zm4-2h2v2h-2zm4 0h2v2h-2zm4 0h2v2h-2zm8 0h2v2h-2zm-2 2h-2v-2h2zm18 16c0 4.411-3.589 8-8 8-.179 0-.354-.028-.532-.04l-.126-.701c2.155-.996 3.789-2.92 4.395-5.259h.263c1.916 0 3.518-1.356 3.907-3.157.055.381.093.765.093 1.157zm-4-4c1.103 0 2 .897 2 2s-.897 2-2 2zm1.71-1.601c-.005-.002-.009-.005-.014-.008.001-.001.002-.003.004-.004.003.004.006.008.01.012zm-17.71.601c0-.551.449-1 1-1h12c.551 0 1 .449 1 1v5c0 3.309-2.691 6-6 6h-2c-3.309 0-6-2.691-6-6zm6 13h2c.485 0 .957-.05 1.419-.134l.464 2.574-2.883 1.442-2.883-1.441.464-2.574c.462.083.934.133 1.419.133zm-1.077 5.08-2.221 1.332-.431-2.155c.208-.067.42-.128.632-.187zm-1.797 19.54 3.655-14.62h.439l3.655 14.62-3.875 3.099zm4.153-16.62h-.559l-.463-1.388.743-.446.742.445zm1.798-2.92 2.02-1.01c.213.059.424.119.632.187l-.431 2.155zm5.923-33.08v.539c0 .662.14 1.296.376 1.885-.743-.269-1.541-.424-2.376-.424-.352 0-.686.072-1 .184v-2.184zm-37-.586v2.586h-2.586zm-4 4.586h4c1.103 0 2-.897 2-2v-4h30v6h-2v-4h-26v6h14.802c-1.713 1.49-2.802 3.68-2.802 6.123 0 .633.079 1.264.225 1.877h-6.225v2h6.556c-.344.591-.556 1.268-.556 2 0 2.206 1.794 4 4 4h.263c.605 2.339 2.24 4.263 4.395 5.259l-.533 2.958c-5.734 1.671-10.05 6.188-11.547 11.783h-2.578v2h2.179c-.109.777-.179 1.566-.179 2.369v9.631h-16zm48 52h-4v-13h-2v13h-6.149l3.275-2.62-4.085-16.34.458-1.374 3.203 1.922.914-4.571c5.05 2.436 8.384 7.564 8.384 13.352zm10-33h-.539c-2.05 0-3.884 1.223-4.672 3.116-.79 1.899-.36 4.067 1.094 5.521l.382.382-4.246 4.246-.41-.409c-1.202-1.201-2.886-1.693-4.52-1.363-.551-.554-1.138-1.073-1.765-1.548 5.197-2.124 8.676-7.178 8.676-12.945 0-4.616-2.252-8.857-6.024-11.479-.075-1.102-.404-2.132-.932-3.036 1.646.34 3.371-.146 4.594-1.368l.382-.382 4.246 4.246-.382.382c-1.455 1.455-1.885 3.622-1.094 5.522.787 1.892 2.621 3.115 4.671 3.115h.539z"/><path d="m53.021 36.021c-.256 0-.512.098-.707.293-.391.391-.391 1.024 0 1.414.195.195.451.293.707.293s.512-.098.707-.293c.391-.391.391-1.024 0-1.414-.195-.196-.451-.293-.707-.293z"/><circle cx="58" cy="25" r="1"/><path d="m53.021 11.979c-.256 0-.512.098-.707.293-.391.391-.391 1.024 0 1.414.195.195.451.293.707.293s.512-.098.707-.293c.391-.391.391-1.024 0-1.414-.195-.195-.451-.293-.707-.293z"/></g></g></svg>