<svg id="Layer_5" enable-background="new 0 0 64 64" height="512" viewBox="0 0 64 64" width="512" xmlns="http://www.w3.org/2000/svg"><g><g><g><path d="m32 8c7.73 0 14 6.27 14 14s-6.27 14-14 14c-1.04 0-2.05-.11-3.03-.33-.16-.95-.98-1.67-1.97-1.67h-2.21c-4.07-2.45-6.79-6.91-6.79-12 0-7.73 6.27-14 14-14z" fill="#ffc729"/></g><g><circle cx="32" cy="22" fill="#fcd770" r="10"/></g><g><path d="m60 62h-14c-1.105 0-2-.895-2-2v-10c0-1.105.895-2 2-2h14c1.105 0 2 .895 2 2v10c0 1.105-.895 2-2 2z" fill="#d3a06c"/></g><g><path d="m36 62h-14c-1.105 0-2-.895-2-2v-10c0-1.105.895-2 2-2h14c1.105 0 2 .895 2 2v10c0 1.105-.895 2-2 2z" fill="#d3a06c"/></g><g><path d="m18 62h-14c-1.105 0-2-.895-2-2v-10c0-1.105.895-2 2-2h14c1.105 0 2 .895 2 2v10c0 1.105-.895 2-2 2z" fill="#d3a06c"/></g><g><path d="m27 48h-14c-1.105 0-2-.895-2-2v-10c0-1.105.895-2 2-2h14c1.105 0 2 .895 2 2v10c0 1.105-.895 2-2 2z" fill="#d3a06c"/></g><g><path d="m17 34h6v6h-6z" fill="#b27946"/></g><g><path d="m14 48v6h-6v-6h5z" fill="#b27946"/></g><g><path d="m27 48h5v6h-6v-6z" fill="#b27946"/></g><g><path d="m50 48h6v6h-6z" fill="#b27946"/></g></g><g><path d="m33 29v-2.145c1.155-.366 2-1.435 2-2.709 0-1.087-.604-2.066-1.578-2.553l-1.95-.974c-.291-.146-.472-.439-.472-.765 0-.471.383-.854.854-.854h.292c.471 0 .854.383.854.854v.146h2v-.146c0-1.274-.845-2.343-2-2.709v-2.145h-2v2.145c-1.155.366-2 1.435-2 2.709 0 1.087.604 2.066 1.578 2.553l1.95.974c.291.146.472.439.472.765 0 .471-.383.854-.854.854h-.292c-.471 0-.854-.383-.854-.854v-1.146h-2v1.146c0 1.274.845 2.343 2 2.709v2.145z"/><path d="m43 22c0-6.065-4.935-11-11-11s-11 4.935-11 11 4.935 11 11 11 11-4.935 11-11zm-20 0c0-4.962 4.038-9 9-9s9 4.038 9 9-4.038 9-9 9-9-4.038-9-9z"/><path d="m60 47h-14c-1.654 0-3 1.346-3 3v10c0 1.654 1.346 3 3 3h14c1.654 0 3-1.346 3-3v-10c0-1.654-1.346-3-3-3zm-9 2h4v4h-4zm10 11c0 .551-.449 1-1 1h-14c-.551 0-1-.449-1-1v-10c0-.551.449-1 1-1h3v6h8v-6h3c.551 0 1 .449 1 1z"/><path d="m30 36.852c.662.088 1.329.148 2 .148 8.271 0 15-6.729 15-15s-6.729-15-15-15-15 6.729-15 15c0 4.26 1.753 8.194 4.797 11h-8.797c-1.654 0-3 1.346-3 3v10c0 .352.072.686.184 1h-6.184c-1.654 0-3 1.346-3 3v10c0 1.654 1.346 3 3 3h14c.771 0 1.468-.301 2-.78.532.48 1.229.78 2 .78h14c1.654 0 3-1.346 3-3v-10c0-1.654-1.346-3-3-3h-6.184c.112-.314.184-.648.184-1zm-11-14.852c0-7.168 5.832-13 13-13s13 5.832 13 13-5.832 13-13 13c-.762 0-1.517-.084-2.262-.215-.468-1.049-1.517-1.785-2.738-1.785h-1.906c-3.815-2.398-6.094-6.484-6.094-11zm-1 13h4v4h-4zm-9 14h4v4h-4zm9 12h-14c-.551 0-1-.449-1-1v-10c0-.551.449-1 1-1h3v6h8v-6h3c.551 0 1 .449 1 1v10c0 .551-.449 1-1 1zm19-11v10c0 .551-.449 1-1 1h-14c-.551 0-1-.449-1-1v-10c0-.551.449-1 1-1h3v6h8v-6h3c.551 0 1 .449 1 1zm-10-1h4v4h-4zm-5-2h-4-5c-.551 0-1-.449-1-1v-10c0-.551.449-1 1-1h3v6h8v-6h3c.551 0 1 .449 1 1v10c0 .551-.449 1-1 1z"/><path d="m11 29h2v2h-2z"/><path d="m13 22c0-10.477 8.523-19 19-19s19 8.523 19 19v18.238l-3.232-3.878-1.536 1.28 5.768 6.922 5.768-6.922-1.536-1.28-3.232 3.878v-18.238c0-11.58-9.42-21-21-21s-21 9.42-21 21v5h2z"/></g></g></svg>