<svg id="Layer_5" enable-background="new 0 0 64 64" height="512" viewBox="0 0 64 64" width="512" xmlns="http://www.w3.org/2000/svg"><g><g><g><path d="m38 46.04v9.96h-6v-12c0-1.1-.9-2-2-2h-5v-1l.89-9.75c6.29 1.26 11.11 6.4 11.97 12.75.09.67.14 1.35.14 2.04z" fill="#fcd770"/></g><g><path d="m18 60c0 1.1.9 2 2 2h-12v-5.59c1.75 1.01 3.79 1.59 5.96 1.59h.04 4z" fill="#fcd770"/></g><g><path d="m14 52v6h-.04c-2.17 0-4.21-.58-5.96-1.59-3.58-2.07-6-5.94-6-10.37 0-3.96 1.53-7.58 4.04-10.28 2.11-2.26 4.91-3.88 8.07-4.51l.89 9.75 5-5 5 5v1h-5c-1.1 0-2 .9-2 2v6h-.34c-1.06 0-2.08.42-2.83 1.17z" fill="#fcd770"/></g><g><path d="m25.89 31.25-.89 9.75-5-5 4-5c.64.05 1.27.13 1.89.25z" fill="#ffc729"/></g><g><path d="m16 31 4 5-5 5-.89-9.75c.62-.12 1.25-.2 1.89-.25z" fill="#ffc729"/></g><g><path d="m62 2v42h-24.14c-.86-6.35-5.68-11.49-11.97-12.75-.62-.12-1.25-.2-1.89-.25l-1-3-.01-.09c2.84-.47 5.01-2.94 5.01-5.91h1c.83 0 1.58-.34 2.12-.88s.88-1.29.88-2.12c0-.81-.32-1.54-.85-2.08l.01-.01.76-5.32c.05-.39.08-.79.08-1.19 0-4.64-3.76-8.4-8.4-8.4z" fill="#e6e9ed"/></g><g><path d="m31.92 11.59-.76 5.32-.01.01c-.53-.57-1.3-.92-2.15-.92h-1v-2.76c0-1.37-.77-2.63-2-3.24 0 1.1-.9 2-2 2h-3c-1.63 0-3.09-.79-4-2h-1c-2.21 0-4 1.79-4 4v2h-1c-.83 0-1.59.34-2.13.89l-.74-5.35c-.05-.36-.07-.72-.07-1.09 0-.02 0-.04 0-.06 0-4.63 3.75-8.39 8.39-8.39h3.55 3.6c4.64 0 8.4 3.76 8.4 8.4 0 .4-.03.8-.08 1.19z" fill="#656d78"/></g><g><path d="m44 14 5.66 5.66c-1.45 1.44-3.45 2.34-5.66 2.34-4.42 0-8-3.58-8-8z" fill="#b4dd7f"/></g><g><path d="m44 6c4.42 0 8 3.58 8 8 0 2.21-.9 4.21-2.34 5.66l-5.66-5.66z" fill="#ef7385"/></g><g><path d="m44 6v8h-8c0-4.42 3.58-8 8-8z" fill="#fcd770"/></g><g><path d="m54 26h4v14h-4z" fill="#ffeaa7"/></g><g><path d="m46 30h4v10h-4z" fill="#ffeaa7"/></g><g><path d="m38 34h4v6h-4z" fill="#ffeaa7"/></g><g><path d="m38 56v6h-8c1.1 0 2-.9 2-2v-4z" fill="#f0d0b4"/></g><g><path d="m32 56v4c0 1.1-.9 2-2 2h-10c-1.1 0-2-.9-2-2v-2c1.1 0 2.1-.45 2.83-1.17.72-.73 1.17-1.73 1.17-2.83 0-2.21-1.79-4-4-4v-6c0-1.1.9-2 2-2h5 5c1.1 0 2 .9 2 2z" fill="#969faa"/></g><g><circle cx="25" cy="48" fill="#69d6f4" r="2"/></g><g><path d="m18 50c2.21 0 4 1.79 4 4 0 1.1-.45 2.1-1.17 2.83-.73.72-1.73 1.17-2.83 1.17h-4v-6l.83-.83c.75-.75 1.77-1.17 2.83-1.17z" fill="#f0d0b4"/></g><g><path d="m29 16c.85 0 1.62.35 2.15.92.53.54.85 1.27.85 2.08 0 .83-.34 1.58-.88 2.12s-1.29.88-2.12.88h-1v-6z" fill="#f0d0b4"/></g><g><path d="m23 28 1 3-4 5-4-5 1-3 .01-.09c.32.06.65.09.99.09h4c.34 0 .67-.03.99-.09z" fill="#f0d0b4"/></g><g><path d="m26 10c1.23.61 2 1.87 2 3.24v2.76 6c0 2.97-2.17 5.44-5.01 5.91-.32.06-.65.09-.99.09h-4c-.34 0-.67-.03-.99-.09-2.84-.47-5.01-2.94-5.01-5.91v-6-2c0-2.21 1.79-4 4-4h1c.91 1.21 2.37 2 4 2h3c1.1 0 2-.9 2-2z" fill="#f0d0b4"/></g><g><path d="m12 16v6h-1c-.83 0-1.58-.34-2.12-.88s-.88-1.29-.88-2.12.34-1.57.87-2.11c.54-.55 1.3-.89 2.13-.89z" fill="#f0d0b4"/></g></g><g><path d="m25 49c-.552 0-1-.448-1-1s.448-1 1-1v-2c-1.654 0-3 1.346-3 3s1.346 3 3 3 3-1.346 3-3h-2c0 .552-.448 1-1 1z"/><path d="m63 1h-39.396-3.604-3.548c-2.521 0-4.889.985-6.666 2.774s-2.746 4.164-2.729 6.683c.002.406.031.817.088 1.223l.678 4.918c-.51.67-.823 1.497-.823 2.402 0 2.206 1.794 4 4 4h.08c.378 2.624 2.213 4.78 4.66 5.618l-.483 1.446c-8.048.915-14.257 7.804-14.257 15.971 0 4.584 2.399 8.611 6 10.917v6.048h13 10 8.999v-16.964c0-.349-.027-.692-.049-1.036h24.05zm-54 18c0-1.103.897-2 2-2v4c-1.103 0-2-.897-2-2zm2-5v1c-.474 0-.923.097-1.345.249l-.53-3.843c-.044-.318-.066-.642-.068-.961-.014-1.985.75-3.854 2.148-5.262s3.262-2.183 5.247-2.183h3.548 3.604c4.078 0 7.396 3.318 7.396 7.403 0 .348-.025.699-.074 1.046l-.545 3.811c-.432-.16-.894-.26-1.381-.26v-1.764c0-1.567-.779-2.99-2.061-3.841-.28-1.365-1.492-2.395-2.939-2.395h-1v2h1c.552 0 1 .448 1 1s-.448 1-1 1h-3c-2.206 0-4-1.794-4-4h-2c0 .726.136 1.419.373 2.063-2.459.313-4.373 2.395-4.373 4.937zm18 3c1.103 0 2 .897 2 2s-.897 2-2 2zm-16 5v-8c0-1.654 1.346-3 3-3h.54c1.099 1.224 2.688 2 4.46 2h3c1.026 0 1.932-.519 2.474-1.307.326.44.526.969.526 1.543v8.764c0 2.757-2.243 5-5 5h-4c-2.757 0-5-2.243-5-5zm23.999 33h-3.999v-11c0-1.654-1.346-3-3-3h-3.996l.772-8.492c5.915 1.694 10.224 7.164 10.223 13.528zm-12.802-16.217-2.857-2.857 3.095-3.868c.124.013.247.028.37.045zm-6.197-9.783h4c.093 0 .183-.01.275-.014l.604 1.813-2.879 3.6-2.879-3.6.604-1.813c.092.004.182.014.275.014zm.66 6.926-2.857 2.857-.607-6.681c.123-.017.246-.031.37-.045zm-15.66 10.109c0-6.363 4.309-11.833 10.224-13.527l.973 10.709 5.803-5.803 3.586 3.586h-3.586c-1.654 0-3 1.346-3 3v5.064c-1.085.143-2.092.614-2.879 1.401l-.52.52c-2.571-.205-4.601-2.362-4.601-4.985v-4h-2v4c0 3.519 2.614 6.432 6 6.92v4.031c-5.595-.491-10-5.196-10-10.916zm15 10.965h-3v-4.586l.535-.535c.567-.566 1.32-.879 2.122-.879h.343c1.654 0 3 1.346 3 3s-1.346 3-3 3zm-9 1.008c1.53.637 3.206.992 4.965.992h3.035v1c0 .352.072.686.184 1h-8.184zm11 2.992c-.552 0-1-.448-1-1v-1.101c2.279-.465 4-2.484 4-4.899s-1.721-4.434-4-4.899v-5.101c0-.552.448-1 1-1h10c.552 0 1 .448 1 1v16c0 .552-.448 1-1 1zm12.816 0c.112-.314.184-.648.184-1v-2.999h3.999v3.999zm28.184-18h-22.293c-.133-.684-.322-1.348-.54-2h20.833v-16h-6v14h-2v-10h-6v10h-2v-6h-6v5.334c-2.454-4.454-6.949-7.666-12.258-8.269l-.482-1.446c2.447-.838 4.282-2.994 4.66-5.618h.08c2.206 0 4-1.794 4-4 0-.889-.301-1.704-.794-2.368l.7-4.901c.063-.441.094-.888.094-1.336 0-3.003-1.421-5.675-3.621-7.396h31.621zm-22-4v-4h2v4zm10 0h-2v-8h2zm6 0v-12h2v12z"/><path d="m44 23c4.963 0 9-4.037 9-9s-4.037-9-9-9-9 4.037-9 9 4.037 9 9 9zm-6.92-8h6.506l4.598 4.598c-1.169.876-2.614 1.402-4.184 1.402-3.519 0-6.432-2.614-6.92-6zm13.92-1c0 1.57-.526 3.015-1.402 4.184l-4.598-4.598v-6.506c3.386.488 6 3.401 6 6.92zm-8-6.92v5.92h-5.92c.441-3.059 2.861-5.479 5.92-5.92z"/><path d="m55 13h4v2h-4z"/><path d="m55 17h4v2h-4z"/><path d="m55 21h4v2h-4z"/><path d="m55 9h4v2h-4z"/><path d="m55 5h4v2h-4z"/><circle cx="16" cy="16" r="1"/><circle cx="24" cy="16" r="1"/><path d="m25 21h-2c0 1.103-.897 2-2 2h-4v2h4c2.206 0 4-1.794 4-4z"/></g></g></svg>