<svg id="Layer_5" enable-background="new 0 0 64 64" height="512" viewBox="0 0 64 64" width="512" xmlns="http://www.w3.org/2000/svg"><g><g><g><path d="m48 54v4c0 2.21-1.79 4-4 4h-38c-2.21 0-4-1.79-4-4v-4h2 42z" fill="#969faa"/></g><g><path d="m46 26h-31-7c-2.21 0-4 1.79-4 4v24h42z" fill="#ccd1d9"/></g><g><path d="m42 30h-33c-.55 0-1 .45-1 1v18c0 .55.45 1 1 1h32c.55 0 1-.45 1-1z" fill="#69d6f4"/></g><g><path d="m38 34v8h-3-3v-8z" fill="#ff826e"/></g><g><path d="m28 34v8h-3-3v-8z" fill="#ff826e"/></g><g><path d="m18 34v8h-3-3v-8z" fill="#ff826e"/></g><g><path d="m62 6v26c0 2.21-1.79 4-4 4h-12-2c-.73 0-1.41-.2-2-.54-1.2-.69-2-1.98-2-3.46v-2-4-16-4c0-2.21 1.79-4 4-4h14c2.21 0 4 1.79 4 4z" fill="#969faa"/></g><g><path d="m58 7v20c0 .55-.45 1-1 1h-12c-.55 0-1-.45-1-1v-20c0-.55.45-1 1-1h12c.55 0 1 .45 1 1z" fill="#69d6f4"/></g><g><path d="m48 10h6v6h-6z" fill="#fcd770"/></g><g><path d="m23 10v2l-1.48.54c-.04.09-.07.19-.11.28l.66 1.42-2.83 2.83-1.42-.66c-.09.04-.19.07-.28.11l-.54 1.48h-2-2l-.54-1.48c-.09-.04-.19-.07-.28-.11l-1.42.66-2.83-2.83.66-1.42c-.04-.09-.07-.19-.11-.28l-1.48-.54v-4l1.48-.54c.04-.09.07-.19.11-.28l-.66-1.42 2.83-2.83 1.42.66c.09-.04.19-.07.28-.11l.54-1.48h4l.54 1.48c.09.04.19.07.28.11l1.42-.66 2.83 2.83-.66 1.42c.04.09.07.19.11.28l1.48.54zm-4 0c0-2.21-1.79-4-4-4s-4 1.79-4 4 1.79 4 4 4 4-1.79 4-4z" fill="#fcd770"/></g></g><g><path d="m41 57h2v2h-2z"/><path d="m33 57h2v2h-2z"/><path d="m37 57h2v2h-2z"/><path d="m20 10c0-2.757-2.243-5-5-5s-5 2.243-5 5 2.243 5 5 5 5-2.243 5-5zm-5 3c-1.654 0-3-1.346-3-3s1.346-3 3-3 3 1.346 3 3-1.346 3-3 3z"/><path d="m58 1h-14c-2.757 0-5 2.243-5 5v3h-15v-1.701l-1.321-.479.595-1.273-3.82-3.82-1.273.596-.48-1.323h-5.401l-.48 1.321-1.273-.596-3.82 3.82.595 1.273-1.322.481v5.402l1.321.479-.595 1.273 3.82 3.82 1.273-.596.48 1.323h1.701v6h-6c-2.757 0-5 2.243-5 5v23h-2v5c0 2.757 2.243 5 5 5h38c2.757 0 5-2.243 5-5v-5h-2v-16h11c2.757 0 5-2.243 5-5v-26c0-2.757-2.243-5-5-5zm-17 34.974v13.026h-32v-18h30v1c0 1.627.793 3.061 2 3.974zm-27.598-19.797-.204-.443-1.031-.425-1.198.56-1.838-1.839.562-1.201-.447-1.077-1.246-.453v-2.598l.823-.3.447-.212.423-1.019-.562-1.2 1.837-1.838 1.2.56 1.08-.445.453-1.247h2.599l.299.823.203.442 1.031.426 1.2-.56 1.837 1.838-.562 1.201.447 1.077 1.245.454v2.598l-.823.3-.447.212-.423 1.019.562 1.201-1.837 1.838-1.198-.56-1.081.445-.454 1.246h-2.599zm2.598 2.823h1.701l.48-1.321 1.273.596 3.82-3.82-.595-1.273 1.321-.481v-1.701h15v14h-23zm31 39c0 1.654-1.346 3-3 3h-38c-1.654 0-3-1.346-3-3v-3h44zm-2-5h-40v-23c0-1.654 1.346-3 3-3h31v2h-30c-1.103 0-2 .897-2 2v18c0 1.103.897 2 2 2h32c1.103 0 2-.897 2-2v-12.101c.323.066.658.101 1 .101h1zm16-21c0 1.654-1.346 3-3 3h-14c-1.654 0-3-1.346-3-3v-26c0-1.654 1.346-3 3-3h14c1.654 0 3 1.346 3 3z"/><path d="m57 5h-12c-1.103 0-2 .897-2 2v20c0 1.103.897 2 2 2h12c1.103 0 2-.897 2-2v-20c0-1.103-.897-2-2-2zm0 22h-12l-.001-20h.001 12z"/><path d="m48 31h6v2h-6z"/><path d="m55 9h-8v8h8zm-2 6h-4v-4h4z"/><path d="m47 19h8v2h-8z"/><path d="m47 23h8v2h-8z"/><path d="m31 43h3v2h-8v-2h3v-10h-8v10h3v2h-8v-2h3v-10h-8v10h3v4h22v-4h3v-10h-8zm-8-8h4v6h-4zm-10 0h4v6h-4zm20 0h4v6h-4z"/></g></g></svg>