<svg id="Layer_5" enable-background="new 0 0 64 64" height="512" viewBox="0 0 64 64" width="512" xmlns="http://www.w3.org/2000/svg"><g><g><g><path d="m54 47v4c0 1.1-.9 2-2 2h-40c-1.1 0-2-.9-2-2v-4-10-10-2h1c.83 0 1.58-.34 2.12-.88s.88-1.29.88-2.12c0-1.66-1.34-3-3-3h-1v-2-4c0-1.1.9-2 2-2h40c1.1 0 2 .9 2 2v4 2h-1c-.83 0-1.58.34-2.12.88s-.88 1.29-.88 2.12c0 1.66 1.34 3 3 3h1v2 10z" fill="#969faa"/></g><g><path d="m50 29v16c-1.1 0-2.1.45-2.83 1.17-.72.73-1.17 1.73-1.17 2.83h-28c0-1.1-.45-2.1-1.17-2.83-.73-.72-1.73-1.17-2.83-1.17v-16c2.21 0 4-1.79 4-4v-10h28v10c0 2.21 1.79 4 4 4z" fill="#5cd6b3"/></g><g><path d="m40 21v4c0 .55-.45 1-1 1h-14c-.55 0-1-.45-1-1v-4c0-.55.45-1 1-1h14c.55 0 1 .45 1 1z" fill="#5cd6b3"/></g><g><circle cx="4" cy="47" fill="#ff826e" r="2"/></g><g><circle cx="4" cy="37" fill="#ff826e" r="2"/></g><g><circle cx="4" cy="17" fill="#ff826e" r="2"/></g><g><circle cx="4" cy="27" fill="#ff826e" r="2"/></g><g><circle cx="60" cy="37" fill="#ff826e" r="2"/></g><g><circle cx="60" cy="17" fill="#ff826e" r="2"/></g><g><circle cx="60" cy="27" fill="#ff826e" r="2"/></g><g><circle cx="60" cy="47" fill="#ff826e" r="2"/></g></g><g><path d="m55 28h2.184c.414 1.161 1.514 2 2.816 2 1.654 0 3-1.346 3-3s-1.346-3-3-3c-1.302 0-2.402.839-2.816 2h-2.184v-2h-2c-1.103 0-2-.897-2-2s.897-2 2-2h2v-2h2.184c.414 1.161 1.514 2 2.816 2 1.654 0 3-1.346 3-3s-1.346-3-3-3c-1.302 0-2.402.839-2.816 2h-2.184v-3c0-1.654-1.346-3-3-3h-40c-1.654 0-3 1.346-3 3v3h-2.184c-.414-1.161-1.514-2-2.816-2-1.654 0-3 1.346-3 3s1.346 3 3 3c1.302 0 2.402-.839 2.816-2h2.184v2h2c1.103 0 2 .897 2 2s-.897 2-2 2h-2v2h-2.184c-.414-1.161-1.514-2-2.816-2-1.654 0-3 1.346-3 3s1.346 3 3 3c1.302 0 2.402-.839 2.816-2h2.184v8h-2.184c-.414-1.161-1.514-2-2.816-2-1.654 0-3 1.346-3 3s1.346 3 3 3c1.302 0 2.402-.839 2.816-2h2.184v8h-2.184c-.414-1.161-1.514-2-2.816-2-1.654 0-3 1.346-3 3s1.346 3 3 3c1.302 0 2.402-.839 2.816-2h2.184v3c0 1.654 1.346 3 3 3h40c1.654 0 3-1.346 3-3v-3h2.184c.414 1.161 1.514 2 2.816 2 1.654 0 3-1.346 3-3s-1.346-3-3-3c-1.302 0-2.402.839-2.816 2h-2.184v-8h2.184c.414 1.161 1.514 2 2.816 2 1.654 0 3-1.346 3-3s-1.346-3-3-3c-1.302 0-2.402.839-2.816 2h-2.184zm5-2c.552 0 1 .449 1 1s-.448 1-1 1-1-.449-1-1 .448-1 1-1zm0-10c.552 0 1 .449 1 1s-.448 1-1 1-1-.449-1-1 .448-1 1-1zm-56 2c-.552 0-1-.449-1-1s.448-1 1-1 1 .449 1 1-.448 1-1 1zm0 10c-.552 0-1-.449-1-1s.448-1 1-1 1 .449 1 1-.448 1-1 1zm0 10c-.552 0-1-.449-1-1s.448-1 1-1 1 .449 1 1-.448 1-1 1zm0 10c-.552 0-1-.449-1-1s.448-1 1-1 1 .449 1 1-.448 1-1 1zm49 3c0 .551-.448 1-1 1h-40c-.552 0-1-.449-1-1v-25c2.206 0 4-1.794 4-4s-1.794-4-4-4v-5c0-.551.448-1 1-1h40c.552 0 1 .449 1 1v5c-2.206 0-4 1.794-4 4s1.794 4 4 4zm7-5c.552 0 1 .449 1 1s-.448 1-1 1-1-.449-1-1 .448-1 1-1zm0-10c.552 0 1 .449 1 1s-.448 1-1 1-1-.449-1-1 .448-1 1-1z"/><path d="m13 14h2v2h-2z"/><path d="m49 14h2v2h-2z"/><path d="m13 48h2v2h-2z"/><path d="m49 48h2v2h-2z"/><path d="m47 25v-11h-30v11c0 1.654-1.346 3-3 3h-1v18h1c1.654 0 3 1.346 3 3v1h30v-1c0-1.654 1.346-3 3-3h1v-18h-1c-1.654 0-3-1.346-3-3zm2 19.101c-1.956.398-3.501 1.943-3.899 3.899h-26.202c-.398-1.956-1.943-3.501-3.899-3.899v-14.202c2.279-.464 4-2.485 4-4.899v-9h26v9c0 2.415 1.721 4.435 4 4.899z"/><path d="m39 19h-14c-1.103 0-2 .897-2 2v4c0 1.103.897 2 2 2h14c1.103 0 2-.897 2-2v-4c0-1.103-.897-2-2-2zm-14 6v-4h14l.001 4z"/><path d="m23 31h18v2h-18z"/><path d="m23 35h18v2h-18z"/><path d="m39 39h2v2h-2z"/><path d="m27 39h10v2h-10z"/><path d="m23 39h2v2h-2z"/></g></g></svg>