<svg id="_x33_0" enable-background="new 0 0 64 64" height="512" viewBox="0 0 64 64" width="512" xmlns="http://www.w3.org/2000/svg"><g><g><g><path d="m42 46v6h-6v-2.94c0-1.06-.18-2.09-.52-3.06z" fill="#969faa"/></g><g><path d="m62 47v4c0 .55-.45 1-1 1h-11v-6h10 1c.55 0 1 .45 1 1z" fill="#969faa"/></g><g><path d="m29 24.76s.25-.69.5-1.63c.09-.35.19-.74.27-1.14l.23.01h6.72.01c.41 1.13 1.01 2.18 1.77 3.12l1.06 1.33c.29.36.44.8.44 1.25v1.3c0 1.1.9 2 2 2h2 4 2c1.1 0 2-.9 2-2v-1.3c0-.45.15-.89.44-1.25l1.28-1.59c.69-.87 1.23-1.83 1.61-2.86h.01 3.66c.55 0 1 .45 1 1v23h-10v-10c0-.55-.45-1-1-1h-3-3c-.55 0-1 .45-1 1v10h-6.52c-.16-.48-.36-.95-.6-1.4-.72-1.35-1.78-2.53-3.09-3.41-1.18-.78-2.52-1.29-3.91-1.49l-1.88-.27-3-.43-.93-3.71c.7-.34 1.33-.79 1.88-1.34 1.05-1.05 1.76-2.41 1.97-3.95h.01 1.07c.83 0 1.58-.34 2.12-.88s.88-1.29.88-2.12c0-.89-.39-1.7-1.01-2.23z" fill="#69d6f4"/></g><g><path d="m30 20c0 .62-.1 1.33-.23 1.99-.08.4-.18.79-.27 1.14-.25.94-.5 1.63-.5 1.63l-.01.01c-.53-.48-1.22-.77-1.99-.77h-1v-1c0-1.66-1.34-3-3-3-5 0-6 3-11 4h-1c-.77 0-1.47.29-2 .77l-.85-3.19c-.1-.39-.15-.78-.15-1.18 0-1.02.32-1.98.88-2.78s1.36-1.43 2.32-1.78l6.58-2.39c.81-.3 1.66-.45 2.52-.45 1.16 0 2.3.28 3.31.78 1.01.51 1.91 1.25 2.61 2.18l.78 1.04c.83 0 1.58.34 2.12.88s.88 1.29.88 2.12z" fill="#b27946"/></g><g><path d="m16.38 44.57 1.62 2.43-1.77 6.51c-.94-1.05-1.73-2.22-2.38-3.46-.53-1.02-.95-2.1-1.24-3.22z" fill="#ccd1d9"/></g><g><path d="m21.62 44.57 3.77 2.26c-.67 2.47-1.91 4.76-3.62 6.68l-1.77-6.51z" fill="#ccd1d9"/></g><g><path d="m19 43 2.62 1.57-1.62 2.43h-2l-1.62-2.43z" fill="#ff826e"/></g><g><path d="m20 47 1.77 6.51c-.82.92-1.75 1.76-2.77 2.49-1.02-.73-1.95-1.57-2.77-2.49l1.77-6.51z" fill="#ff826e"/></g><g><path d="m35.48 46c.34.97.52 2 .52 3.06v2.94 10h-6-22-6v-12.94c0-3.16 1.58-6.11 4.21-7.87 1.18-.78 2.52-1.29 3.91-1.49l1.88-.27v2.97c0 1.52.2 3.01.61 4.43.29 1.12.71 2.2 1.24 3.22.65 1.24 1.44 2.41 2.38 3.46.82.92 1.75 1.76 2.77 2.49 1.02-.73 1.95-1.57 2.77-2.49 1.71-1.92 2.95-4.21 3.62-6.68.41-1.42.61-2.91.61-4.43v-2.97l1.88.27c1.39.2 2.73.71 3.91 1.49 1.31.88 2.37 2.06 3.09 3.41.24.45.44.92.6 1.4z" fill="#b4dd7f"/></g><g><path d="m15 39 4 4-2.62 1.57-3.77 2.26c-.41-1.42-.61-2.91-.61-4.43v-2.97z" fill="#e6e9ed"/></g><g><path d="m19 43 4-4 3 .43v2.97c0 1.52-.2 3.01-.61 4.43l-3.77-2.26z" fill="#e6e9ed"/></g><g><path d="m29.12 29.12c-.54.54-1.29.88-2.12.88h-1.07-.01c.06-.33.08-.66.08-1v-5h1c.77 0 1.46.29 1.99.77.62.53 1.01 1.34 1.01 2.23 0 .83-.34 1.58-.88 2.12z" fill="#f0d0b4"/></g><g><path d="m22.07 35.29.93 3.71-4 4-4-4 .93-3.71c.92.46 1.96.71 3.07.71s2.15-.25 3.07-.71z" fill="#f0d0b4"/></g><g><path d="m12 29c0 .34.02.67.08 1h-.01-1.07c-.83 0-1.58-.34-2.12-.88s-.88-1.29-.88-2.12c0-.89.38-1.69 1-2.23.53-.48 1.23-.77 2-.77h1z" fill="#f0d0b4"/></g><g><path d="m26 24v5c0 .34-.02.67-.08 1-.21 1.54-.92 2.9-1.97 3.95-.55.55-1.18 1-1.88 1.34-.92.46-1.96.71-3.07.71s-2.15-.25-3.07-.71c-2.04-.99-3.53-2.95-3.85-5.29-.06-.33-.08-.66-.08-1v-5c5-1 6-4 11-4 1.66 0 3 1.34 3 3z" fill="#f0d0b4"/></g><g><path d="m49.97 54c-.02.12-.05.23-.1.34l-1.37 3.66h-5l-1.37-3.66c-.05-.11-.08-.22-.1-.34h3.97z" fill="#aab2bd"/></g><g><path d="m48.5 58-1.15 3.06c-.21.57-.75.94-1.35.94s-1.14-.37-1.35-.94l-1.15-3.06z" fill="#aab2bd"/></g><g><path d="m49.97 54h-3.97v-19h3c.55 0 1 .45 1 1v10 6 1.64c0 .12-.01.24-.03.36z" fill="#b4dd7f"/></g><g><path d="m46 35v19h-3.97c-.02-.12-.03-.24-.03-.36v-1.64-6-10c0-.55.45-1 1-1z" fill="#ff826e"/></g><g><path d="m53.59 11.6c-1.51-1.85-3.65-3.15-6.14-3.5-6.17-.87-11.45 3.9-11.45 9.9 0 1.3.22 2.57.64 3.77.03.08.06.16.09.23.41 1.13 1.01 2.18 1.77 3.12l1.06 1.33c.29.36.44.8.44 1.25v1.3c0 1.1.9 2 2 2h2 4 2c1.1 0 2-.9 2-2v-1.3c0-.45.15-.89.44-1.25l1.28-1.59c.69-.87 1.23-1.83 1.61-2.86.44-1.16.67-2.4.67-3.66 0-2.52-.89-4.9-2.41-6.74z" fill="#ffeaa7"/></g><g><path d="m51.41 16.59c.37.36.59.86.59 1.41s-.22 1.05-.59 1.41c-.36.37-.86.59-1.41.59h-2v-2c0-1.1.9-2 2-2 .55 0 1.05.22 1.41.59z" fill="#fcd770"/></g><g><path d="m44 18v2h-2c-1.1 0-2-.9-2-2 0-.55.22-1.05.59-1.41.36-.37.86-.59 1.41-.59s1.05.22 1.41.59c.37.36.59.86.59 1.41z" fill="#fcd770"/></g></g><g><path d="m45 1h2v4h-2z"/><path d="m38.5 2.379h2v4.243h-2z" transform="matrix(.707 -.707 .707 .707 8.387 29.249)"/><path d="m50.379 3.5h4.243v2h-4.243z" transform="matrix(.707 -.707 .707 .707 12.195 38.441)"/><path d="m61 45v-22c0-1.103-.897-2-2-2h-2.322c.208-.867.322-1.758.322-2.657 0-5.647-4.044-10.475-9.407-11.23-3.194-.45-6.401.492-8.806 2.582-2.407 2.091-3.787 5.118-3.787 8.305 0 1.015.13 2.023.375 3h-3.512v2h4.196c.431.979.986 1.906 1.659 2.748l1.063 1.329c.141.176.219.399.219.625v1.298c0 1.654 1.346 3 3 3h8c1.654 0 3-1.346 3-3v-1.298c0-.226.078-.448.219-.625l1.277-1.597c.609-.762 1.115-1.597 1.509-2.48h2.995v22h-8v-9c0-1.103-.897-2-2-2h-6c-1.103 0-2 .897-2 2v9h-4.834c-.784-1.86-2.091-3.485-3.825-4.642-1.292-.861-2.787-1.433-4.324-1.652l-4.209-.601-.581-2.325c1.715-1.073 2.991-2.773 3.511-4.78h.262c2.206 0 4-1.794 4-4 0-.932-.334-1.78-.871-2.461.305-.952.871-2.93.871-4.539 0-2.027-1.516-3.708-3.474-3.966l-.508-.676c-1.577-2.103-4.087-3.358-6.715-3.358-.981 0-1.946.17-2.869.505l-6.579 2.392c-2.306.839-3.855 3.051-3.855 5.505 0 .478.059.956.179 1.438l.716 2.67c-.551.685-.895 1.544-.895 2.49 0 2.206 1.794 4 4 4h.263c.52 2.007 1.796 3.708 3.511 4.78l-.581 2.325-4.209.601c-1.537.22-3.032.791-4.324 1.652-2.918 1.946-4.66 5.2-4.66 8.706v13.936h36v-10h4v.638c0 .361.064.717.191 1.054l2.521 6.723c.355.947 1.275 1.585 2.288 1.585s1.933-.638 2.288-1.585l2.521-6.724c.127-.337.191-.692.191-1.053v-.638h10c1.103 0 2-.897 2-2v-4c0-1.103-.897-2-2-2zm-18-26h-1c-.551 0-1-.449-1-1s.449-1 1-1 1 .449 1 1zm4 11h-2v-9h2zm5.935-5.769-1.277 1.596c-.425.53-.658 1.196-.658 1.875v1.298c0 .551-.449 1-1 1h-1v-9h1c1.654 0 3-1.346 3-3s-1.346-3-3-3-3 1.346-3 3v1h-2v-1c0-1.654-1.346-3-3-3s-3 1.346-3 3 1.346 3 3 3h1v9h-1c-.551 0-1-.449-1-1v-1.298c0-.679-.233-1.344-.658-1.874l-1.063-1.329c-1.469-1.838-2.279-4.146-2.279-6.499 0-2.607 1.13-5.084 3.1-6.796 1.661-1.444 3.713-2.205 5.885-2.205.439 0 .883.031 1.329.094 4.382.617 7.686 4.594 7.686 9.25 0 2.132-.733 4.223-2.065 5.888zm-3.935-5.231v-1c0-.551.449-1 1-1s1 .449 1 1-.449 1-1 1zm0 34h-2v-17h2zm-5.557 2h5.114l-.75 2h-3.614zm-.443-19h2v17h-2l-.001-17zm-24 8.166 1.205.723-.74 1.111h-.93l-.74-1.111zm-2.922 1.754.838 1.256-1.124 4.119c-.85-1.236-1.523-2.582-1.992-4.009zm2.686 2.08h.473l1.422 5.212c-.518.545-1.062 1.068-1.659 1.538-.597-.47-1.141-.993-1.658-1.537zm3.444 3.295-1.124-4.119.838-1.256 2.278 1.367c-.469 1.426-1.142 2.772-1.992 4.008zm2.792-10.999v2.102c0 .97-.114 1.925-.289 2.863l-4.099-2.459 2.741-2.741zm2-11.296v-4c1.103 0 2 .897 2 2s-.897 2-2 2zm-15.461-12.223 6.579-2.392c.702-.256 1.438-.385 2.185-.385 2.002 0 3.915.956 5.116 2.558l1.081 1.442h.5c1.103 0 2 .897 2 2 0 1.046-.313 2.353-.578 3.273-.443-.17-.92-.273-1.422-.273 0-2.206-1.794-4-4-4-3.031 0-4.78 1.036-6.473 2.038-1.283.759-2.612 1.542-4.639 1.962h-.888c-.483 0-.941.099-1.37.257l-.515-1.919c-.076-.306-.115-.621-.115-.936 0-1.616 1.021-3.073 2.539-3.625zm-2.539 10.223c0-1.103.897-2 2-2v4c-1.103 0-2-.897-2-2zm4 2v-4.204c1.965-.51 3.328-1.317 4.546-2.038 1.594-.943 2.971-1.758 5.454-1.758 1.103 0 2 .897 2 2v6c0 3.309-2.691 6-6 6s-6-2.691-6-6zm6 8c.828 0 1.627-.127 2.379-.361l.514 2.055-2.893 2.892-2.893-2.893.514-2.055c.752.235 1.551.362 2.379.362zm-4.354 3.06 2.741 2.741-4.099 2.459c-.174-.938-.288-1.892-.288-2.863v-2.102zm20.354 20.94h-4v-13h-2v13h-20v-13h-2v13h-4v-11.936c0-2.836 1.409-5.469 3.768-7.042 1.046-.696 2.255-1.158 3.499-1.336l.733-.104v1.816c0 5.709 2.773 11.099 7.419 14.416l.581.415.581-.415c4.646-3.318 7.419-8.708 7.419-14.417v-1.816l.733.105c1.243.178 2.453.64 3.498 1.336 2.36 1.574 3.769 4.207 3.769 7.042zm2-10v-1.936c0-.703-.088-1.39-.224-2.064h4.224v4zm8.585 9.712-.642-1.712h2.114l-.642 1.713c-.129.344-.701.345-.83-.001zm15.415-9.712h-10v-4h10z"/><circle cx="22" cy="27" r="1"/><circle cx="16" cy="27" r="1"/><path d="m22.789 30.658.105-.211-1.789-.895-.105.212c-.381.762-1.147 1.236-2 1.236s-1.619-.474-2-1.236l-.105-.211-1.789.895.105.211c.722 1.444 2.174 2.341 3.789 2.341s3.067-.897 3.789-2.342z"/></g></g></svg>