<svg height="496pt" viewBox="0 0 496 496" width="496pt" xmlns="http://www.w3.org/2000/svg"><path d="m232 112v8h-192v112h234.960938l11.519531 11.441406 17.597656-10.480468c8.320313 4.800781 17.363281 8.558593 26.960937 11.117187l4.960938 19.921875h24v224h-352v-400h250.960938c-2.960938 6.078125-5.28125 12.398438-7.039063 19.039062zm0 0" fill="#e6e9ed"/><path d="m40 232v-112h192v40l19.921875 4.960938c2.558594 9.597656 6.316406 18.640624 11.117187 26.960937l-10.558593 17.597656 22.480469 22.480469zm0 0" fill="#ffeaa7"/><g fill="#ff826e"><path d="m68.800781 318.398438c2 2.722656 3.199219 6 3.199219 9.601562 0 8.800781-7.199219 16-16 16s-16-7.199219-16-16 7.199219-16 16-16c5.199219 0 9.839844 2.558594 12.800781 6.398438zm0 0"/><path d="m131.28125 291.28125c-2.882812 2.957031-6.882812 4.71875-11.28125 4.71875-5.199219 0-9.839844-2.558594-12.71875-6.398438-2.082031-2.722656-3.28125-6-3.28125-9.601562 0-8.800781 7.199219-16 16-16s16 7.199219 16 16c0 4.398438-1.761719 8.398438-4.71875 11.28125zm0 0"/><path d="m198.320312 336.878906c1.121094 2.160156 1.679688 4.5625 1.679688 7.121094 0 8.800781-7.199219 16-16 16s-16-7.199219-16-16c0-4.398438 1.761719-8.398438 4.71875-11.28125 2.882812-2.957031 6.882812-4.71875 11.28125-4.71875 6.238281 0 11.679688 3.601562 14.320312 8.878906zm0 0"/><path d="m248 296c8.800781 0 16 7.199219 16 16 0 3.601562-1.199219 6.878906-3.199219 9.601562-2.960937 3.839844-7.601562 6.398438-12.800781 6.398438-6.238281 0-11.679688-3.601562-14.320312-8.878906-1.121094-2.160156-1.679688-4.5625-1.679688-7.121094 0-8.800781 7.199219-16 16-16zm0 0"/><path d="m312 344c8.800781 0 16 7.199219 16 16s-7.199219 16-16 16-16-7.199219-16-16c0-3.601562 1.199219-6.878906 3.199219-9.601562 2.960937-3.839844 7.601562-6.398438 12.800781-6.398438zm0 0"/></g><path d="m296 408h32v48h-32zm0 0" fill="#b4dd7f"/><path d="m232 360h32v96h-32zm0 0" fill="#b4dd7f"/><path d="m168 392h32v64h-32zm0 0" fill="#b4dd7f"/><path d="m104 328h32v128h-32zm0 0" fill="#b4dd7f"/><path d="m40 376h32v80h-32zm0 0" fill="#b4dd7f"/><path d="m488 112v48l-19.921875 4.960938c-2.558594 9.597656-6.316406 18.640624-11.117187 26.960937l10.558593 17.597656-34 33.921875-17.597656-10.480468c-8.320313 4.800781-17.363281 8.558593-26.960937 11.117187l-4.960938 19.921875h-48l-4.960938-19.921875c-9.597656-2.558594-18.640624-6.316406-26.960937-11.117187l-17.597656 10.480468-11.519531-11.441406-22.480469-22.480469 10.558593-17.597656c-4.800781-8.320313-8.558593-17.363281-11.117187-26.960937l-19.921875-4.960938v-48l19.921875-4.960938c1.757813-6.640624 4.078125-12.960937 7.039063-19.039062 1.199218-2.71875 2.558593-5.359375 4.078124-7.921875l-10.558593-17.597656 34-34 17.597656 10.558593c8.320313-4.800781 17.363281-8.558593 26.960937-11.117187l4.960938-19.921875h48l4.960938 19.921875c9.597656 2.558594 18.640624 6.316406 26.960937 11.117187l17.597656-10.558593 34 34-10.558593 17.597656c4.800781 8.320313 8.558593 17.363281 11.117187 26.960937zm-48 24c0-44.160156-35.839844-80-80-80s-80 35.839844-80 80 35.839844 80 80 80 80-35.839844 80-80zm0 0" fill="#ffc729"/><path d="m360 56c44.160156 0 80 35.839844 80 80s-35.839844 80-80 80-80-35.839844-80-80 35.839844-80 80-80zm48 80c0-26.480469-21.519531-48-48-48s-48 21.519531-48 48 21.519531 48 48 48 48-21.519531 48-48zm0 0" fill="#fcd770"/><path d="m496 166.246094v-60.492188l-21.511719-5.378906c-2.167969-7-4.960937-13.742188-8.335937-20.152344l11.414062-19-42.78125-42.773437-19.007812 11.398437c-6.417969-3.375-13.167969-6.167968-20.152344-8.335937l-5.386719-21.511719h-60.476562l-5.386719 21.511719c-6.984375 2.167969-13.734375 4.960937-20.152344 8.335937l-19.007812-11.398437-42.78125 42.773437 11.285156 18.777344h-253.71875v416h368v-224h22.238281l5.386719-21.511719c6.984375-2.167969 13.734375-4.960937 20.152344-8.335937l19.007812 11.398437 42.78125-42.773437-11.414062-19c3.375-6.410156 6.167968-13.160156 8.335937-20.152344zm-144 313.753906h-336v-384h231.097656c-.523437 1.464844-1.121094 2.886719-1.578125 4.375l-21.519531 5.378906v6.246094h-192v128h239.664062l13.558594 13.550781 19.007813-11.398437c6.417969 3.375 13.167969 6.167968 20.152343 8.335937l5.378907 21.511719h22.238281zm-96.335938-256h-207.664062v-96h176v38.246094l21.511719 5.378906c2.167969 7 4.960937 13.742188 8.335937 20.152344l-11.414062 19zm205.902344-65.640625-1.214844 4.542969c-2.367187 8.839844-5.847656 17.265625-10.351562 25.035156l-2.367188 4.078125 9.773438 16.28125-25.109375 25.101563-16.28125-9.765626-4.078125 2.359376c-7.792969 4.503906-16.210938 7.992187-25.027344 10.351562l-4.542968 1.214844-4.605469 18.441406h-35.523438l-4.605469-18.433594-4.542968-1.214844c-8.816406-2.359374-17.234375-5.839843-25.027344-10.351562l-4.078125-2.359375-16.28125 9.765625-25.109375-25.101562 9.773438-16.28125-2.367188-4.078126c-4.496094-7.777343-7.984375-16.191406-10.351562-25.035156l-1.214844-4.542968-18.433594-4.613282v-35.507812l18.433594-4.605469 1.214844-4.542969c2.367187-8.839844 5.847656-17.265625 10.351562-25.035156l2.367188-4.078125-9.773438-16.28125 25.109375-25.101563 16.28125 9.765626 4.078125-2.359376c7.792969-4.503906 16.210938-7.992187 25.027344-10.351562l4.542968-1.214844 4.605469-18.441406h35.515625l4.605469 18.433594 4.542969 1.214844c8.816406 2.359374 17.234375 5.839843 25.027344 10.351562l4.078124 2.359375 16.28125-9.765625 25.109376 25.101562-9.773438 16.28125 2.367188 4.078126c4.496093 7.777343 7.984374 16.191406 10.351562 25.035156l1.214844 4.542968 18.441406 4.613282v35.507812zm0 0"/><path d="m360 48c-48.519531 0-88 39.480469-88 88s39.480469 88 88 88 88-39.480469 88-88-39.480469-88-88-88zm0 160c-39.703125 0-72-32.304688-72-72s32.296875-72 72-72 72 32.304688 72 72-32.296875 72-72 72zm0 0"/><path d="m360 80c-30.871094 0-56 25.121094-56 56s25.128906 56 56 56 56-25.121094 56-56-25.128906-56-56-56zm0 96c-22.054688 0-40-17.945312-40-40s17.945312-40 40-40 40 17.945312 40 40-17.945312 40-40 40zm0 0"/><path d="m312 336c-4.910156 0-9.480469 1.496094-13.289062 4.039062l-27.910157-20.925781c.710938-2.265625 1.199219-4.625 1.199219-7.113281 0-13.230469-10.769531-24-24-24s-24 10.769531-24 24c0 .992188.175781 1.945312.296875 2.902344l-23.679687 11.839844c-4.320313-4.148438-10.160157-6.742188-16.617188-6.742188-3.695312 0-7.152344.902344-10.28125 2.40625l-32.117188-32.117188c1.496094-3.136718 2.398438-6.59375 2.398438-10.289062 0-13.230469-10.769531-24-24-24s-24 10.769531-24 24c0 2.488281.488281 4.847656 1.191406 7.105469l-27.902344 20.933593c-3.808593-2.542968-8.378906-4.039062-13.289062-4.039062-13.230469 0-24 10.769531-24 24s10.769531 24 24 24 24-10.769531 24-24c0-2.488281-.488281-4.847656-1.191406-7.105469l27.902344-20.933593c3.808593 2.542968 8.378906 4.039062 13.289062 4.039062 3.695312 0 7.152344-.902344 10.28125-2.40625l32.117188 32.117188c-1.496094 3.136718-2.398438 6.59375-2.398438 10.289062 0 13.230469 10.769531 24 24 24s24-10.769531 24-24c0-.992188-.175781-1.945312-.296875-2.902344l23.679687-11.839844c4.320313 4.148438 10.160157 6.742188 16.617188 6.742188 4.910156 0 9.480469-1.496094 13.289062-4.039062l27.910157 20.925781c-.710938 2.265625-1.199219 4.625-1.199219 7.113281 0 13.230469 10.769531 24 24 24s24-10.769531 24-24-10.769531-24-24-24zm-256 0c-4.414062 0-8-3.59375-8-8s3.585938-8 8-8 8 3.59375 8 8-3.585938 8-8 8zm64-48c-4.414062 0-8-3.59375-8-8s3.585938-8 8-8 8 3.59375 8 8-3.585938 8-8 8zm64 64c-4.414062 0-8-3.59375-8-8s3.585938-8 8-8 8 3.59375 8 8-3.585938 8-8 8zm64-32c-4.414062 0-8-3.59375-8-8s3.585938-8 8-8 8 3.59375 8 8-3.585938 8-8 8zm64 48c-4.414062 0-8-3.59375-8-8s3.585938-8 8-8 8 3.59375 8 8-3.585938 8-8 8zm0 0"/><path d="m32 464h48v-96h-48zm16-80h16v64h-16zm0 0"/><path d="m96 464h48v-144h-48zm16-128h16v112h-16zm0 0"/><path d="m160 464h48v-80h-48zm16-64h16v48h-16zm0 0"/><path d="m224 464h48v-112h-48zm16-96h16v80h-16zm0 0"/><path d="m288 464h48v-64h-48zm16-48h16v32h-16zm0 0"/><path d="m128 144h16v16h-16zm0 0"/><path d="m96 144h16v16h-16zm0 0"/><path d="m64 144h16v16h-16zm0 0"/></svg>