<svg id="Layer_5" enable-background="new 0 0 61.533 62" height="512" viewBox="0 0 61.533 62" width="512" xmlns="http://www.w3.org/2000/svg"><g><g><g><path d="m20.767 49h6v6h-6z" fill="#ff826e"/></g><g><path d="m30.767 49h10v6h-10z" fill="#ff826e"/></g><g><path d="m44.767 11v50h-28v-50h4v2l1.35.45c.19.68.46 1.33.8 1.94l-.64 1.27 2.83 2.83 1.27-.64c.61.34 1.26.61 1.94.8l.45 1.35h4l.45-1.35c.68-.19 1.33-.46 1.94-.8l1.27.64 2.83-2.83-.64-1.27c.34-.61.61-1.26.8-1.94l1.35-.45v-2z" fill="#e6e9ed"/></g><g><path d="m20.767 37h10v6h-10z" fill="#ff826e"/></g><g><path d="m34.767 37h6v6h-6z" fill="#ff826e"/></g><g><path d="m30.767 25h10v6h-10z" fill="#ff826e"/></g><g><path d="m20.767 25h6v6h-6z" fill="#ff826e"/></g><g><path d="m53.767 22 6 10h-3v30h-6v-30h-3z" fill="#ff826e"/></g><g><path d="m13.767 50-6 10-6-10h3v-28h6v28z" fill="#ff826e"/></g><g><path d="m40.767 13-1.35.45c-.19.68-.46 1.33-.8 1.94l.64 1.27-2.83 2.83-1.27-.64c-.61.34-1.26.61-1.94.8l-.45 1.35h-4l-.45-1.35c-.68-.19-1.33-.46-1.94-.8l-1.27.64-2.83-2.83.64-1.27c-.34-.61-.61-1.26-.8-1.94l-1.35-.45v-2-2l1.35-.45c.19-.68.46-1.33.8-1.94l-.64-1.27 2.83-2.83 1.27.64c.61-.34 1.26-.61 1.94-.8l.45-1.35h4l.45 1.35c.68.19 1.33.46 1.94.8l1.27-.64 2.83 2.83-.64 1.27c.34.61.61 1.26.8 1.94l1.35.45v2zm-6-2c0-2.21-1.79-4-4-4s-4 1.79-4 4 1.79 4 4 4 4-1.79 4-4z" fill="#fcd770"/></g></g><g><path d="m11.767 22h-2v29h2.233l-4.233 7.056-4.234-7.056h2.234v-29h-2v27h-3.767l7.767 12.944 7.766-12.944h-3.766z"/><path d="m53.767 20.056-7.767 12.944h3.767v29h2v-31h-2.234l4.234-7.056 4.233 7.056h-2.233v31h2v-29h3.766z"/><path d="m41.767 8.279-1.544-.515c-.137-.4-.297-.79-.48-1.166l.727-1.453-3.848-3.848-1.453.727c-.375-.184-.765-.344-1.166-.48l-.516-1.544h-5.441l-.515 1.544c-.401.136-.791.297-1.166.48l-1.453-.727-3.848 3.848.727 1.453c-.184.375-.344.765-.48 1.166l-1.544.515v1.721h-4v52h30v-52h-4zm-20 1.442 1.164-.388.144-.509c.173-.608.412-1.189.713-1.726l.258-.462-.547-1.095 1.809-1.809 1.097.547.462-.259c.534-.3 1.114-.539 1.724-.711l.51-.144.386-1.165h2.559l.389 1.165.51.144c.609.172 1.189.411 1.724.711l.462.259 1.097-.547 1.809 1.809-.547 1.095.258.462c.301.537.54 1.118.713 1.726l.144.509 1.164.388v2.559l-1.164.388-.144.509c-.173.608-.412 1.189-.713 1.726l-.258.462.547 1.095-1.809 1.809-1.097-.547-.462.259c-.534.3-1.114.539-1.725.711l-.51.144-.388 1.164h-2.559l-.387-1.165-.51-.144c-.61-.172-1.19-.411-1.725-.711l-.462-.259-1.097.547-1.809-1.809.547-1.095-.258-.462c-.301-.537-.54-1.118-.713-1.726l-.144-.509-1.164-.388v-2.558zm22 2.279v48h-26v-48h2v1.721l1.544.515c.137.4.297.79.48 1.166l-.727 1.453 3.848 3.848 1.453-.727c.375.184.765.344 1.166.48l.515 1.544h5.441l.515-1.544c.401-.136.791-.297 1.166-.48l1.453.727 3.848-3.848-.727-1.453c.184-.375.344-.765.48-1.166l1.544-.515v-1.721z"/><path d="m30.767 16c2.757 0 5-2.243 5-5s-2.243-5-5-5-5 2.243-5 5 2.243 5 5 5zm0-8c1.654 0 3 1.346 3 3s-1.346 3-3 3-3-1.346-3-3 1.345-3 3-3z"/><path d="m29.767 27h-2v-3h-8v8h8v-3h2v3h7v4h-3v3h-2v-3h-12v8h3v4h-3v8h8v-3h2v3h12v-8h-12v3h-2v-3h-3v-4h7v-3h2v3h8v-8h-3v-4h3v-8h-12zm-4 3h-4v-4h4zm6 20h8v4h-8zm-6 4h-4v-4h4zm4-12h-8v-4h8zm10 0h-4v-4h4zm-8-16h8v4h-8z"/></g></g></svg>