<svg clip-rule="evenodd" fill-rule="evenodd" height="300" image-rendering="optimizeQuality" shape-rendering="geometricPrecision" text-rendering="geometricPrecision" viewBox="0 0 2.83333 2.83333" width="300" xmlns="http://www.w3.org/2000/svg" version="1.1" xmlns:xlink="http://www.w3.org/1999/xlink" xmlns:svgjs="http://svgjs.dev/svgjs"><g width="100%" height="100%" transform="matrix(1,0,0,1,0,0)"><g id="Layer_x0020_1"><circle cx="1.417" cy="1.417" fill="#ffffff" r="1.417" fill-opacity="0" data-original-color="#29af33ff" stroke="none" stroke-opacity="1"/><g id="_618589640"><g><path id="_618612680" d="m1.61465 1.82769c-.271409 0-.492213-.220799-.492213-.492209 0-.271402.220803-.492213.492213-.492213.0890236 0 .176268.0240433.252323.0695472.0189488.0113268.025126.0358819.0137835.0548307-.0113425.0189528-.0358819.0251417-.0548346.0137835-.0636457-.0380787-.136705-.0582047-.21128-.0582047-.227311 0-.412252.184933-.412252.412256s.184941.412268.412252.412268c.227327 0 .412256-.184941.412256-.412268 0-.0913858-.0293031-.177976-.0847598-.250398-.0134331-.0175354-.0101024-.0426181.00742913-.0560551.0175039-.0134094.0426181-.010122.0560394.00743701.0662283.0864882.101256.189886.101256.299008 0 .271421-.220815.492217-.492213.492217z" fill="#fefefe" fill-opacity="1" data-original-color="#fefefeff" stroke="none" stroke-opacity="1"/></g><g><path id="_618598352" d="m1.61465 1.57282c-.130878 0-.237346-.106472-.237346-.237343 0-.13087.106476-.237343.237346-.237343s.237343.106472.237343.237343c0 .13087-.106484.237343-.237343.237343zm0-.394736c-.0867913 0-.157386.0706063-.157386.15739 0 .0867835.0706024.157386.157386.157386.0867835 0 .157386-.0705984.157386-.157382 0-.0867835-.0705984-.157394-.157386-.157394z" fill="#fefefe" fill-opacity="1" data-original-color="#fefefeff" stroke="none" stroke-opacity="1"/></g><g><path id="_618586856" d="m1.61465 1.17809c-.0220906 0-.0399803-.0178898-.0399803-.0399764v-.311346c0-.0220906.0178898-.0399803.0399803-.0399803.0220866 0 .0399764.0178898.0399764.0399803v.311346c0 .0220709-.0178937.0399764-.0399764.0399764z" fill="#fefefe" fill-opacity="1" data-original-color="#fefefeff" stroke="none" stroke-opacity="1"/></g><g><path id="_618614096" d="m1.41727 1.37546h-.311354c-.0220866 0-.0399764-.0178937-.0399764-.0399803s.0178898-.0399803.0399764-.0399803h.311354c.0220866 0 .0399803.0178937.0399803.0399803s-.0178976.0399803-.0399803.0399803z" fill="#fefefe" fill-opacity="1" data-original-color="#fefefeff" stroke="none" stroke-opacity="1"/></g><g><path id="_618609368" d="m1.61465 1.88417c-.0220906 0-.0399803-.0178898-.0399803-.0399764v-.311346c0-.0220906.0178898-.0399803.0399803-.0399803.0220866 0 .0399764.0178898.0399764.0399803v.311346c0 .0220866-.0178937.0399764-.0399764.0399764z" fill="#fefefe" fill-opacity="1" data-original-color="#fefefeff" stroke="none" stroke-opacity="1"/></g><g><path id="_618604808" d="m2.12335 1.37546h-.311346c-.0220866 0-.0399803-.0178937-.0399803-.0399803s.0178937-.0399803.0399803-.0399803h.311346c.0220866 0 .0399803.0178937.0399803.0399803s-.0178937.0399803-.0399803.0399803z" fill="#fefefe" fill-opacity="1" data-original-color="#fefefeff" stroke="none" stroke-opacity="1"/></g><g><path id="_618599384" d="m1.83001 2.21633h-.430728c-.0571654 0-.103665-.0465039-.103665-.103665v-.421307c0-.0153071.00872835-.0292598.0225039-.0359528.0137559-.00668898.0301181-.0049252.0421693.00451181.0731575.0574409.161114.0877992.254366.0877992.0932402 0 .181209-.0303701.254362-.087815.0120197-.00945276.0284173-.0111929.0421732-.00449606.0137559.00669291.0224882.0206378.0224882.0359528v.421307c0 .0571772-.0464843.103665-.103669.103665zm-.454437-.450386v.346736c0 .0128543.0108543.0237087.0237087.0237087h.430728c.0128543 0 .0237087-.0108543.0237087-.0237087v-.346736c-.0726417.0405787-.154028.061748-.239079.061748-.0850512 0-.166437-.0211614-.239067-.061748z" fill="#fefefe" fill-opacity="1" data-original-color="#fefefeff" stroke="none" stroke-opacity="1"/></g><g><path id="_618594488" d="m2.22958 2.21633h-1.22987c-.0220866 0-.0399803-.0178898-.0399803-.0399803 0-.0220866.0178937-.0399764.0399803-.0399764h1.22985c.0220866 0 .0399764.0178898.0399764.0399764 0 .0220906-.0178898.0399803-.0399606.0399803z" fill="#fefefe" fill-opacity="1" data-original-color="#fefefeff" stroke="none" stroke-opacity="1"/></g><g><path id="_618589808" d="m1.61465 1.37546c-.0102913 0-.0205551-.00394094-.028374-.0118268l-.368642-.371516c-.0155433-.0156693-.0154488-.0409921.00022047-.0565354.0156732-.0155472.0409843-.0154528.0565394.00022047l.368622.371508c.015563.0156732.0154528.0409921-.00022047.0565354-.00778346.00773622-.0179724.0116142-.0281457.0116142z" fill="#fefefe" fill-opacity="1" data-original-color="#fefefeff" stroke="none" stroke-opacity="1"/></g><g><path id="_618590144" d="m1.24603 1.00394c-.00102756 0-.00206693-.00004331-.00311024-.00012598l-.13976-.0108976c-.00950394-.00073622-.0184331-.00484252-.0251654-.0115787l-.167413-.167425c-.0102165-.0102126-.0141299-.0251496-.0102165-.0390591.00389764-.0139094.0150079-.024626.0290394-.0280551l.0809606-.019685.0182126-.0791102c.00326378-.0141732.0139488-.0254449.0279252-.0294567.0139764-.00401181.0290236-.00012598.039315.0101496l.167421.167421c.00672047.00672047.0108307.0156299.0115787.0251102l.0110787.139579c.00091732.0116654-.00330709.0231457-.0115669.0314173-.0075315.00752362-.0177205.0117165-.0282992.0117165zm-.121933-.0895748.0783701.0061063-.00621654-.0782205-.105969-.105969-.00755118.032815c-.00339764.0147441-.014811.0263071-.0295118.029874l-.035811.00870472.106689.106689z" fill="#fefefe" fill-opacity="1" data-original-color="#fefefeff" stroke="none" stroke-opacity="1"/></g><g><path id="_618590048" d="m1.8937 2.06212h-.558094c-.0220866 0-.0399764-.0178898-.0399764-.0399764 0-.0220906.0178898-.0399803.0399764-.0399803h.55811c.0220866 0 .0399803.0178898.0399803.0399803 0 .0220866-.0179094.0399764-.0399961.0399764z" fill="#fefefe" fill-opacity="1" data-original-color="#fefefeff" stroke="none" stroke-opacity="1"/></g><g><path id="_618590168" d="m1.01235 1.95204h-.279937c-.0220866 0-.0399764-.0178898-.0399764-.0399764 0-.0220906.0178898-.0399803.0399764-.0399803h.279937c.0220866 0 .0399803.0178898.0399803.0399803 0 .0220866-.0179094.0399764-.0399803.0399764z" fill="#fefefe" fill-opacity="1" data-original-color="#fefefeff" stroke="none" stroke-opacity="1"/></g><g><path id="_618589736" d="m1.01233 1.82508h-.279921c-.0220866 0-.0399764-.0178898-.0399764-.0399803 0-.0220866.0178898-.0399764.0399764-.0399764h.279937c.0220866 0 .0399803.0178898.0399803.0399764 0 .0220906-.0179094.0399803-.0399961.0399803z" fill="#fefefe" fill-opacity="1" data-original-color="#fefefeff" stroke="none" stroke-opacity="1"/></g><g><path id="_618589544" d="m1.1178 2.07391h-.490866c-.034815 0-.0631457-.0283346-.0631457-.0631496v-.0867323c0-.0220866.0178898-.0399764.0399764-.0399764.0220906 0 .0399803.0178898.0399803.0399764v.0699213h.457244v-.29072h-.025748c-.0218898 0-.0397165-.0176181-.0399803-.0395079l-.00055512-.0465433-.100016.0776575c-.00701181.00544094-.0156299.00838189-.0245197.00838189l-.266425-.00000394v.0875394c0 .0220866-.0178898.0399764-.0399803.0399764-.0220866 0-.0399764-.0178898-.0399764-.0399764v-.10435c0-.034815.0283307-.0631457.0631457-.0631457h.269555l.152736-.118579c.0119961-.00930315.0282087-.0110354.0418937-.00441339.0136654.00659449.0224213.0203622.0225984.0355354l.00102756.0874646.00305512.00000787c.034815 0 .0631457.0283307.0631457.0631457v.324343c0 .034811-.028315.0631496-.0631457.0631496z" fill="#fefefe" fill-opacity="1" data-original-color="#fefefeff" stroke="none" stroke-opacity="1"/></g></g></g></g></svg>