<svg clip-rule="evenodd" fill-rule="evenodd" height="300" image-rendering="optimizeQuality" shape-rendering="geometricPrecision" text-rendering="geometricPrecision" viewBox="0 0 2.83333 2.83333" width="300" xmlns="http://www.w3.org/2000/svg" xmlns:xlink="http://www.w3.org/1999/xlink" version="1.1" xmlns:svgjs="http://svgjs.dev/svgjs"><g width="100%" height="100%" transform="matrix(1,0,0,1,0,0)"><linearGradient id="id0" gradientUnits="userSpaceOnUse" x1="0" x2="2.833" y1="1.417" y2="1.417"><stop offset="0" stop-color="#26a9e0"/><stop offset=".0901961" stop-color="#2297d3"/><stop offset=".231373" stop-color="#1e84c6"/><stop offset=".368627" stop-color="#1c79be"/><stop offset=".521569" stop-color="#1b75bb"/><stop offset=".960784" stop-color="#2b388f"/><stop offset="1" stop-color="#2b388f"/></linearGradient><circle cx="1.417" cy="1.417" fill="#26a9e0" r="1.417" data-original-color="id0" stroke="none" stroke-opacity="1" fill-opacity="0"/><g id="Layer_x0020_1" fill="#fff"><path d="m1.81741 2.2708h-.801488c-.0856929 0-.155413-.0697205-.155413-.155398v-1.16665c0-.0856929.0697205-.155413.155413-.155413h.801472c.0856969 0 .155417.0697205.155417.155413v1.16665c.00001575.0856772-.0697205.155398-.155402.155398zm-.745236-1.30415c-.0211378 0-.0383346.0171969-.0383346.0383346v1.05415c0 .0211417.0171969.0383386.0383346.0383386l.688961-.00000787c.0211378 0 .0383346-.0171811.0383346-.0383346v-1.05415c0-.0211417-.0171811-.0383386-.0383346-.0383386z" fill="#ffffff" fill-opacity="1" data-original-color="#ffffffff" stroke="none" stroke-opacity="1"/><path d="m1.65065 2.01924h-.467949c-.0430984 0-.0781339-.0350551-.0781339-.0781378v-.098815c0-.0430984.0350512-.0781535.0781339-.0781535l.467949-.00000394c.0430827 0 .0781378.0350551.0781378.0781496v.0988189c.00000394.0430709-.0350669.0781417-.0781378.0781417z" fill="#ffffff" fill-opacity="1" data-original-color="#ffffffff" stroke="none" stroke-opacity="1"/><path d="m1.56658.753343v-.0489488h-.299843v.0489488h-.14187v-.0631732c0-.0703898.0572638-.127638.127634-.127638l.329.00000787c.0700118 0 .126984.0569567.126984.126969v.0638346h-.141906z" fill="#ffffff" fill-opacity="1" data-original-color="#ffffffff" stroke="none" stroke-opacity="1"/><path d="m1.31044 1.70954c-.00309843 0-.0062126-.00072441-.00911417-.00219685-.00838583-.00430315-.0126378-.013874-.0102087-.0229843l.0629173-.234815h-.108008c-.00656693 0-.0127244-.00322441-.0164567-.00864173-.00374016-.00540157-.00458268-.0122953-.00226378-.0184449l.102929-.272232c.00294488-.00777953.0104016-.0129291.0187087-.0129291h.15524c.00666535 0 .0129016.00331496.0166102.00887402.00372047.00554331.00441339.0125669.00188976.0187362l-.0680433.16539h.132681c.00772047 0 .0147677.00444488.0180669.0114331.00330709.0069685.00230709.0152323-.00258268.0212205l-.276882.339228c-.00388976.00477953-.0096378.0073622-.0154843.0073622z" fill="#ffffff" fill-opacity="1" data-original-color="#ffffffff" stroke="none" stroke-opacity="1"/><path d="m1.81948 1.08269h-.805642c-.0110394 0-.02-.00896063-.02-.02 0-.0110394.00896063-.02.02-.02h.805642c.0110394 0 .02.00896063.02.02 0 .0110394-.00895669.02-.02.02z" fill="#ffffff" fill-opacity="1" data-original-color="#ffffffff" stroke="none" stroke-opacity="1"/></g></g></svg>