<svg id="Capa_1" enable-background="new 0 0 512 512" viewBox="0 0 512 512" xmlns="http://www.w3.org/2000/svg"><g><g><path d="m456 408.537c28.339-39.973 45-88.808 45-141.537 0-135.31-109.69-245-245-245s-245 109.69-245 245c0 52.729 16.661 101.565 45 141.537z" fill="#73c3f9"/></g><g><circle cx="256" cy="252" fill="#4fabf7" r="200"/></g><g><path d="m210.461 429.804-59.855-108.034c-11.507 3.761-23.21 7.852-33.527 11.963-20.19 8.044-34.417 26.459-37.153 48.02-1.958 15.432-3.141 33.322-3.847 48.052h134.382z" fill="#ffc839"/></g><g><path d="m435.921 429.804c-.706-14.73-1.889-32.62-3.847-48.052-2.736-21.561-16.963-39.976-37.153-48.02-22.916-9.131-52.672-18.166-71.934-23.703-3.97-1.141-14.803 5.7-14.803 5.7l-4.799-11.155h-94.772s-28.356 7.502-58.008 17.195c.517 40.134 11.399 77.129 27.649 108.035z" fill="#ffdd40"/></g><g><path d="m255.784 304.575h-47.17s-8.027 2.124-20 5.57c.001.001 15.835 34.523 67.17 34.523z" fill="#ffb332"/></g><g><path d="m302.954 304.575h-47.17v20.093c-5.523 0-10 4.477-10 10s4.477 10 10 10c51.335 0 67.169-34.522 67.17-34.523-11.973-3.446-20-5.57-20-5.57z" fill="#ffc839"/></g><g><path d="m208.614 304.575s12.422 20.093 47.17 20.093 47.602-20.093 47.602-20.093v-53.4z" fill="#fcad6d"/></g><g><path d="m208.614 230.734v73.841c94.723 0 94.772-53.4 94.772-53.4v-20.44h-94.772z" fill="#fd995b"/></g><g><g><path d="m403.386 170.926h-50c-16.569 0-30 13.431-30 30v60c0 16.569 13.431 30 30 30v25.858c0 8.909 10.771 13.371 17.071 7.071l32.929-32.929z" fill="#5c45bf"/></g><g><g><path d="m443.386 170.926h-40c-16.569 0-30 13.431-30 30v60c0 16.569 13.431 30 30 30h40c16.569 0 30-13.431 30-30v-60c0-16.568-13.431-30-30-30z" fill="#7255ce"/></g></g><g><path d="m353.386 205.926c0-2.761 2.239-5 5-5h80c2.761 0 5 2.239 5 5 0 2.761-2.239 5-5 5h-80c-2.761 0-5-2.238-5-5z" fill="#4432ad"/></g><g><path d="m353.386 255.926c0-2.761 2.239-5 5-5h60c2.761 0 5 2.239 5 5 0 2.761-2.239 5-5 5h-60c-2.761 0-5-2.238-5-5z" fill="#4432ad"/></g><g><path d="m353.386 230.926c0-2.761 2.239-5 5-5h80c2.761 0 5 2.239 5 5 0 2.761-2.239 5-5 5h-80c-2.761 0-5-2.238-5-5z" fill="#4432ad"/></g><g><path d="m108.614 170.926h-40c-16.569 0-30 13.431-30 30v60c0 16.569 13.431 30 30 30h40z" fill="#5c45bf"/></g><g><path d="m158.614 170.926h-40-10c-16.569 0-30 13.431-30 30v60c0 16.569 13.431 30 30 30l32.929 32.929c6.3 6.3 17.071 1.838 17.071-7.071v-25.858c16.569 0 30-13.431 30-30v-60c0-16.568-13.431-30-30-30z" fill="#7255ce"/></g><g><path d="m158.614 205.926c0-2.761-2.239-5-5-5h-80c-2.761 0-5 2.239-5 5 0 2.761 2.239 5 5 5h80c2.761 0 5-2.238 5-5z" fill="#4432ad"/></g><g><path d="m138.614 255.926c0-2.761-2.239-5-5-5h-60c-2.761 0-5 2.239-5 5 0 2.761 2.239 5 5 5h60c2.761 0 5-2.238 5-5z" fill="#4432ad"/></g><g><path d="m158.614 230.926c0-2.761-2.239-5-5-5h-80c-2.761 0-5 2.239-5 5 0 2.761 2.239 5 5 5h80c2.761 0 5-2.238 5-5z" fill="#4432ad"/></g></g><g><g><path d="m180.942 159.567s-10.385-25.285-28.897-19.415-7.228 57.736 28.897 61.189z" fill="#fd995b"/></g></g><g><g><path d="m331.058 159.567s10.385-25.285 28.897-19.415 7.228 57.736-28.897 61.189z" fill="#fcad6d"/></g></g><g><path d="m218.466 143.049h-50c-.031 1.23-.063 2.46-.063 3.705 0 0-.162 130.155 87.597 130.155 9.286 0 17.578-1.471 25-4.077z" fill="#fcad6d"/></g><g><path d="m218.466 143.049c-.031 1.23-.063 2.46-.063 3.705 0 0-.119 104.009 62.558 126.063 62.74-22.006 62.637-126.063 62.637-126.063 0-1.245-.032-2.475-.063-3.705l-87.534-20z" fill="#f9ba8f"/></g><g><g><path d="m242.013 192.447 8.436-13.441c2.569-4.093 8.533-4.093 11.102 0l8.436 13.441c2.739 4.365-.398 10.038-5.551 10.038h-16.871c-5.154-.001-8.291-5.674-5.552-10.038z" fill="#fd995b"/></g></g><g><g><path d="m235.384 240.87h41.233c4.111-3.622 7.258-8.309 9.01-13.631 1.584-4.811-2.069-9.754-7.134-9.754h-44.985c-5.065 0-8.718 4.943-7.134 9.754 1.752 5.322 4.899 10.009 9.01 13.631z" fill="#162544"/></g><g><path d="m276.616 240.87c-5.493 4.849-12.714 7.798-20.616 7.798s-15.124-2.948-20.616-7.798c5.5-4.849 12.714-7.798 20.616-7.798s15.116 2.949 20.616 7.798z" fill="#ff4155"/></g></g><g><path d="m311.239 162.03c.043-3.495-1.371-7.004-4.242-9.539-4.675-4.128-11.84-4.128-16.515 0-2.871 2.535-4.284 6.044-4.242 9.539.055 4.538 5.629 6.716 8.838 3.507 2.022-2.022 5.3-2.022 7.322 0 3.21 3.209 8.784 1.031 8.839-3.507z" fill="#162544"/></g><g><path d="m200.761 162.03c-.043-3.495 1.371-7.004 4.242-9.539 4.675-4.128 11.84-4.128 16.515 0 2.871 2.535 4.284 6.044 4.242 9.539-.055 4.538-5.629 6.716-8.838 3.507-2.022-2.022-5.3-2.022-7.322 0-3.21 3.209-8.784 1.031-8.839-3.507z" fill="#162544"/></g><g><path d="m221.959 3.041c-76.13 15.039-72.899 82.739-72.057 127.707.102 5.474 4.573 9.855 10.048 9.855h65.898l30.152-52.698z" fill="#dae2fe"/></g><g><path d="m256 0c-12.829 0-24.104 1.078-34.043 3.042-26.366 8.717-33.9 68.309 3.892 88.273v49.288h126.201c5.475 0 9.945-4.381 10.048-9.855.952-50.839 4.979-130.748-106.098-130.748z" fill="#e9efff"/></g><g><path d="m225.998 90.861c-48.337 11.609-64.111 49.043-64.111 49.043s7.007 16.926 27.313 16.926c8.044 0 13.209-2.305 19.282-5.087z" fill="#e9efff"/></g><g><path d="m256 87.468c-11.233 0-21.241 1.283-30.149 3.438-27.589 7.684-32.669 33.969-17.37 60.837 9.257-4.241 20.622-9.594 47.519-9.594 44.541 0 46.495 14.681 66.801 14.681s27.313-16.926 27.313-16.926-22.093-52.436-94.114-52.436z" fill="#fff"/></g><g><g><path d="m186 339.804h-100c-16.569 0-30 13.431-30 30v38.733c25.238 35.598 59.748 64.147 100.003 82.165z" fill="#213159"/></g><g><path d="m256 512c82.581 0 155.616-40.86 200-103.463v-38.733c0-16.569-13.431-30-30-30h-240c-16.569 0-30 13.431-30 30v120.915c30.537 13.671 64.378 21.281 100 21.281z" fill="#2d3c6b"/></g></g><g><path d="m271.032 424.804h-50c-13.807 0-25 11.193-25 25s11.193 25 25 25h50z" fill="#4fabf7"/></g><g><g><path d="m291.032 424.804h-20c-13.807 0-25 11.193-25 25s11.193 25 25 25h20c13.807 0 25-11.193 25-25s-11.193-25-25-25z" fill="#73c3f9"/></g></g></g><g/><g/><g/><g/><g/><g/><g/><g/><g/><g/><g/><g/><g/><g/><g/></svg>