<svg id="Layer_3" height="300" viewBox="0 0 64 64" width="300" xmlns="http://www.w3.org/2000/svg" xmlns:xlink="http://www.w3.org/1999/xlink" version="1.1" xmlns:svgjs="http://svgjs.dev/svgjs"><g width="100%" height="100%" transform="matrix(1,0,0,1,0,0)"><linearGradient id="SVGID_1_" gradientUnits="userSpaceOnUse" x1="9.702" x2="54.294" y1="57.515" y2="12.923"><stop offset="0" stop-color="#ffbc42"/><stop offset="1" stop-color="#6c49b8"/></linearGradient><g><g><path d="m29.44 50.555-6.65-11.518v-10.173c0-2.421-1.97-4.391-4.392-4.391-.156 0-.306.033-.459.05-.379-2.036-2.148-3.583-4.275-3.583-.259 0-.514.03-.766.075v-.488c0-2.46-2.018-4.462-4.499-4.462-2.46 0-4.462 2.002-4.462 4.462v14.908c0 .176.046.349.135.501l9.192 15.88v8.847c0 .553.448 1 1 1s1-.447 1-1v-9.115c0-.176-.046-.349-.135-.501l-9.192-15.88v-14.64c0-1.357 1.104-2.462 2.462-2.462 1.378 0 2.499 1.104 2.499 2.462v12.89c-.019.06-.048.112-.064.173-.308 1.161-.15 2.37.446 3.407l4.96 8.573c.277.478.888.643 1.367.364.478-.276.641-.888.365-1.366l-4.959-8.57c-.33-.574-.417-1.247-.245-1.896.171-.646.58-1.182 1.148-1.509.573-.328 1.24-.417 1.875-.245.636.17 1.166.578 1.495 1.15l10.29 17.822.034 9.346c.002.551.449.996 1 .996h.003c.553-.002.999-.451.997-1.004l-.035-9.61c-.002-.173-.048-.343-.135-.493zm-13.42-20.186c-1.061-.213-2.151-.055-3.101.49-.007.004-.014.011-.021.015v-7.793c.247-.084.502-.141.766-.141 1.299 0 2.356 1.073 2.356 2.392zm4.77 5.202-1.772-3.07c-.263-.457-.607-.846-.998-1.176v-4.811c.125-.021.25-.041.378-.041 1.319 0 2.392 1.072 2.392 2.391zm15.295-25.862-4.839 4.817-2.637-2.637c-.391-.391-1.023-.391-1.414 0s-.391 1.023 0 1.414l3.342 3.343c.195.195.451.293.707.293.255 0 .51-.097.706-.291l5.547-5.521c.391-.39.393-1.023.003-1.414s-1.022-.393-1.415-.004zm6.757 3.458c0-5.972-4.869-10.83-10.854-10.83-5.972 0-10.83 4.858-10.83 10.83 0 5.984 4.858 10.854 10.83 10.854 5.985 0 10.854-4.87 10.854-10.854zm-10.854 8.854c-4.869 0-8.83-3.972-8.83-8.854 0-4.869 3.961-8.83 8.83-8.83 4.882 0 8.854 3.961 8.854 8.83 0 4.882-3.972 8.854-8.854 8.854zm23.577-5.956c-2.46 0-4.461 2.002-4.461 4.462v.49c-.253-.046-.508-.077-.768-.077-2.127 0-3.896 1.547-4.274 3.583-.153-.017-.303-.05-.459-.05-2.422 0-4.392 1.97-4.392 4.391v10.14l-6.683 11.545c-.089.153-.136.327-.136.504v9.61c0 .553.448 1 1 1s1-.447 1-1v-9.34l10.29-17.826c.68-1.186 2.208-1.59 3.405-.903 1.184.681 1.589 2.208.904 3.401l-4.96 8.573c-.276.479-.113 1.09.365 1.366.478.278 1.09.113 1.367-.364l4.962-8.576c.651-1.135.741-2.432.38-3.589v-12.878c0-1.357 1.104-2.462 2.461-2.462 1.377 0 2.498 1.104 2.498 2.462v14.64l-9.192 15.88c-.088.152-.135.325-.135.501v9.115c0 .553.448 1 1 1s1-.447 1-1v-8.847l9.192-15.88c.088-.152.135-.325.135-.501v-14.908c-.001-2.46-2.019-4.462-4.499-4.462zm-9.585 15.233c-.401.331-.759.727-1.033 1.203l-1.737 3.022v-6.659c0-1.318 1.073-2.391 2.392-2.391.128 0 .253.02.378.04zm5.124-.423c-.008-.005-.014-.011-.021-.016-.978-.562-2.075-.697-3.102-.498v-5.029c0-1.318 1.057-2.392 2.355-2.392.265 0 .52.06.768.148z" fill="#ffffff" data-original-color="SVGID_1_" stroke="none" stroke-opacity="1" fill-opacity="1"/></g></g></g></svg>