<svg id="Layer_1" enable-background="new 0 0 512 512" height="300" viewBox="0 0 512 512" width="300" xmlns="http://www.w3.org/2000/svg" xmlns:xlink="http://www.w3.org/1999/xlink" version="1.1" xmlns:svgjs="http://svgjs.dev/svgjs"><g width="100%" height="100%" transform="matrix(1,0,0,1,0,0)"><linearGradient id="SVGID_1_" gradientUnits="userSpaceOnUse" x1="256" x2="256" y1="0" y2="512"><stop stop-opacity="1" stop-color="#1c4584" offset="0"/><stop stop-opacity="1" stop-color="#17ace4" offset="1"/></linearGradient><path d="m361.478 183.245c12.222 12.765 11.782 33.021-.983 45.244l-105.75 101.25c-6.181 5.917-14.154 8.886-22.132 8.886-7.755 0-15.517-2.805-21.643-8.431l-58.978-54.163c-13.017-11.954-13.878-32.197-1.924-45.214 11.954-13.018 32.195-13.88 45.214-1.925l36.877 33.866 84.076-80.498c12.765-12.221 33.02-11.781 45.243.985zm150.522 72.755c0 141.159-114.841 256-256 256s-256-114.841-256-256 114.841-256 256-256 256 114.841 256 256zm-64 0c0-105.869-86.131-192-192-192s-192 86.131-192 192 86.131 192 192 192 192-86.131 192-192z" fill="url(#SVGID_1_)" data-original-color="SVGID_1_" stroke="none" stroke-opacity="1"/></g></svg>