<svg id="Layer_1" enable-background="new 0 0 512 512" viewBox="0 0 512 512" xmlns="http://www.w3.org/2000/svg" width="300" height="300" version="1.1" xmlns:xlink="http://www.w3.org/1999/xlink" xmlns:svgjs="http://svgjs.dev/svgjs"><g width="100%" height="100%" transform="matrix(1,0,0,1,0,0)"><g><g><path clip-rule="evenodd" d="m64.985 175.663c2.821-44.124 39.5-79.028 84.322-79.028 8.813 0 17.277 1.338 25.247 3.839 9.919-35.66 42.612-61.838 81.442-61.838 38.86 0 71.582 26.207 81.442 61.925 8.057-2.56 16.638-3.927 25.567-3.927 44.823 0 81.501 34.904 84.322 79.057 85.776.407 85.456 129.988-.32 129.988h-382.022c-85.98.001-85.98-130.016 0-130.016z" fill="#17ace4" fill-rule="evenodd" fill-opacity="1" data-original-color="#00baecff" stroke="none" stroke-opacity="1"/></g><g><path clip-rule="evenodd" d="m289.911 195.355c7.01 2.152 13.729 4.945 20.099 8.319l33.973-19.953 33.973 33.973-19.953 33.944c3.374 6.37 6.166 13.118 8.319 20.128l38.133 9.889v48.051l-38.133 9.889c-2.152 7.01-4.945 13.729-8.319 20.099l19.953 33.973-33.973 33.973-86.765-67.306-89.208 67.306-33.973-33.973 19.953-33.973c-3.374-6.37-6.195-13.089-8.348-20.099l-38.103-9.889v-48.051l38.132-9.889c2.152-7.01 4.945-13.729 8.319-20.099l-19.953-33.973 33.973-33.973 33.973 19.953c6.37-3.374 13.089-6.166 20.099-8.319l9.889-38.132h48.051z" fill="#1c4584" fill-rule="evenodd" fill-opacity="1" data-original-color="#82a1bbff" stroke="none" stroke-opacity="1"/></g><g><path clip-rule="evenodd" d="m289.911 195.355c7.01 2.152 13.729 4.945 20.099 8.319l33.973-19.953 33.973 33.973-19.953 33.944c3.374 6.37 6.166 13.118 8.319 20.128l38.133 9.889v48.051l-38.133 9.889c-2.152 7.01-4.945 13.729-8.319 20.099l19.953 33.973-33.973 33.973-86.765-67.306-.553.407v-203.519h23.356z" fill="#1c4584" fill-rule="evenodd" fill-opacity="1" data-original-color="#698397ff" stroke="none" stroke-opacity="1"/></g><g><path clip-rule="evenodd" d="m255.996 388.198c12.158 0 22.106 9.948 22.106 22.106v40.954c0 12.158-9.948 22.106-22.106 22.106-12.158 0-22.106-9.948-22.106-22.106v-40.954c.001-12.158 9.948-22.106 22.106-22.106z" fill="#b1dbfc" fill-rule="evenodd" fill-opacity="1" data-original-color="#b1dbfcff" stroke="none" stroke-opacity="1"/></g><g><path clip-rule="evenodd" d="m215.77 404.458h80.453v28.069c0 6.254-5.119 11.344-11.373 11.344h-57.708c-6.254 0-11.373-5.09-11.373-11.344v-28.069z" fill="#dfebfa" fill-rule="evenodd" fill-opacity="1" data-original-color="#dfebfaff" stroke="none" stroke-opacity="1"/></g><g><path clip-rule="evenodd" d="m255.996 234.098c44.648 0 80.861 38.22 80.861 85.34 0 50.872-30.948 50.727-30.948 81.995 0 5.323-4.101 9.657-9.133 9.657h-81.559c-5.032 0-9.133-4.334-9.133-9.657 0-31.268-30.948-31.123-30.948-81.995 0-47.12 36.212-85.34 80.86-85.34z" fill="#fee55a" fill-rule="evenodd" fill-opacity="1" data-original-color="#fee55aff" stroke="none" stroke-opacity="1"/></g><path d="m285.112 283.69c-14.547 0-26.382 11.835-26.382 26.382v12.013h-5.468v-12.013c0-14.547-11.835-26.382-26.382-26.382s-26.381 11.835-26.381 26.382 11.834 26.382 26.381 26.382h12.013v74.635h14.369v-74.635h5.468v74.635h14.369v-74.635h12.013c14.531 0 26.352-11.835 26.352-26.382s-11.821-26.382-26.352-26.382zm-58.232 38.395c-6.624 0-12.013-5.389-12.013-12.013s5.389-12.013 12.013-12.013 12.013 5.389 12.013 12.013v12.013zm58.232 0h-12.013v-12.013c0-6.624 5.389-12.013 12.013-12.013 6.608 0 11.984 5.389 11.984 12.013 0 6.623-5.376 12.013-11.984 12.013z" fill="#fac149" fill-opacity="1" data-original-color="#fac149ff" stroke="none" stroke-opacity="1"/><g><path clip-rule="evenodd" d="m278.102 443.87h-7.417-6.748v7.388c0 9.686-6.312 17.975-15.038 20.942 2.24.756 4.625 1.163 7.097 1.163 12.158 0 22.106-9.948 22.106-22.106z" fill="#8bcaff" fill-rule="evenodd" fill-opacity="1" data-original-color="#8bcaffff" stroke="none" stroke-opacity="1"/></g><g><path clip-rule="evenodd" d="m282.058 432.526c0 3.403-1.542 6.486-3.956 8.581-2.007 1.716-4.596 2.763-7.417 2.763h7.417 6.748c6.254 0 11.373-5.09 11.373-11.344v-21.436h-13.612-.553z" fill="#b1dbfc" fill-rule="evenodd" fill-opacity="1" data-original-color="#b1dbfcff" stroke="none" stroke-opacity="1"/></g><g><path clip-rule="evenodd" d="m282.611 411.09h13.612.553c5.032 0 9.133-4.334 9.133-9.657 0-1.105.029-2.181.116-3.229 2.065-28.098 30.832-29.726 30.832-78.766 0-4.683-.378-9.279-1.047-13.758-6.225-40.576-39.587-71.582-79.813-71.582-2.385 0-4.741.116-7.097.32 37.027 3.403 66.87 33.071 72.745 71.262.698 4.479 1.047 9.075 1.047 13.758 0 42.874-21.989 49.505-28.912 69.284-1.28 3.665-2.036 7.795-2.036 12.711 0 1.047-.174 2.065-.465 3.025-1.193 3.839-4.626 6.632-8.668 6.632z" fill="#ffd301" fill-rule="evenodd" fill-opacity="1" data-original-color="#ffd301ff" stroke="none" stroke-opacity="1"/></g><g><path clip-rule="evenodd" d="m181.68 82.848c15.271-15.154 36.3-24.52 59.54-24.52 38.86 0 71.582 26.236 81.442 61.954 8.057-2.56 16.638-3.956 25.567-3.956 44.822 0 81.5 34.933 84.322 79.057 56.631.262 75.741 56.864 57.475 95.288 39.005-34.148 24.898-114.659-42.699-114.979-2.821-44.153-39.499-79.057-84.322-79.057-8.929 0-17.51 1.367-25.567 3.927-9.86-35.718-42.583-61.925-81.442-61.925-32.082-.001-60.005 17.887-74.316 44.211z" fill="#17ace4" fill-rule="evenodd" fill-opacity="1" data-original-color="#00a7d4ff" stroke="none" stroke-opacity="1"/></g></g></g></svg>