<svg id="Layer_1" viewBox="0 0 512 512" xmlns="http://www.w3.org/2000/svg" xmlns:xlink="http://www.w3.org/1999/xlink" data-name="Layer 1" width="300" height="300" version="1.1" xmlns:svgjs="http://svgjs.dev/svgjs"><g width="100%" height="100%" transform="matrix(1,0,0,1,0,0)"><linearGradient id="linear-gradient" gradientUnits="userSpaceOnUse" x1="36.097" x2="458.987" y1="452.385" y2="29.496"><stop stop-opacity="1" stop-color="#1c4584" offset="0"/><stop stop-opacity="1" stop-color="#2ec1ff" offset="1"/></linearGradient><path d="m21.63 112.666h449.54v-68.973a4.933 4.933 0 0 0 -4.9-4.9h-439.737a4.932 4.932 0 0 0 -4.9 4.9v68.973zm156.175-29.38a5.625 5.625 0 0 1 0-11.25h246.516a5.625 5.625 0 0 1 0 11.25zm-40.184-11.25a5.625 5.625 0 1 1 -5.65 5.625 5.625 5.625 0 0 1 5.65-5.625zm-34.559 0a5.625 5.625 0 1 1 -5.65 5.625 5.625 5.625 0 0 1 5.65-5.625zm-34.559 0a5.625 5.625 0 1 1 -5.65 5.625 5.626 5.626 0 0 1 5.65-5.625zm151.7 310.32h23.824v-83.578h-23.827v83.578zm-66.167 0h23.825v-103.682h-23.83v103.682zm-66.167 0h23.825v-63.173h-23.83v63.173zm184.857 0a5.625 5.625 0 0 1 0 11.25h-213.56a5.625 5.625 0 0 1 0-11.25h17.449v-68.8a5.625 5.625 0 0 1 5.624-5.625h35.075a5.626 5.626 0 0 1 5.625 5.625v68.8h19.842v-109.307a5.626 5.626 0 0 1 5.625-5.625h35.075a5.626 5.626 0 0 1 5.625 5.625v109.307h19.842v-89.2a5.626 5.626 0 0 1 5.625-5.625h35.074a5.625 5.625 0 0 1 5.625 5.625v89.2zm-167.8-121.067a7.268 7.268 0 1 0 0 10.279 7.276 7.276 0 0 0 0-10.279zm66.167-52.615a7.268 7.268 0 1 0 0 10.279 7.276 7.276 0 0 0 0-10.279zm66.157 39.726a7.268 7.268 0 1 0 0 10.279 7.276 7.276 0 0 0 0-10.279zm-180.4 3.8a5.622 5.622 0 1 1 4.834-10.151l24.586 11.714a18.512 18.512 0 0 1 23.825-2.712l38.539-30.646a18.521 18.521 0 1 1 35.33-2.312l35.9 21.553a18.515 18.515 0 0 1 21.587-2.1l14.664-13.246a5.6 5.6 0 1 1 7.514 8.306l-14.666 13.253a18.52 18.52 0 1 1 -34.873 3.4l-35.9-21.554a18.511 18.511 0 0 1 -22.562 1.486l-38.539 30.646a18.52 18.52 0 1 1 -35.657 4.075l-24.578-11.712zm315.858-19.364a7 7 0 1 0 0 9.893 7 7 0 0 0 0-9.893zm-22.303 10.564h-53.056a5.625 5.625 0 0 1 -5.625-5.625 76.042 76.042 0 0 1 152.083 0 5.625 5.625 0 0 1 -5.625 5.625h-53.055a18.253 18.253 0 0 1 -34.722 0zm19.668-23.725a18.26 18.26 0 0 0 -19.668 12.475h-47.189a64.794 64.794 0 0 1 129.1 0h-47.19a18.234 18.234 0 0 0 -4.868-7.67l11.418-19.776a5.611 5.611 0 0 0 -9.712-5.624l-11.891 20.6zm58.433 183.73a5.618 5.618 0 1 1 -8.393 7.471l-19.167-21.513a5.6 5.6 0 0 1 -1.421-3.735h-.008v-38.191a5.625 5.625 0 0 1 11.25 0v36.063l17.739 19.909zm36.9-75.693a85.229 85.229 0 1 0 0 120.532 85.231 85.231 0 0 0 0-120.532zm-60.264-36.212a96.487 96.487 0 0 0 -80.742 149.3h-297.867a4.931 4.931 0 0 1 -4.9-4.9v-311.984h449.537v193.724a96.145 96.145 0 0 0 -66.028-26.14zm43.549 52.93a61.587 61.587 0 1 0 0 87.1 61.589 61.589 0 0 0 0-87.1zm-43.549-29.288a72.836 72.836 0 1 0 72.837 72.836 72.838 72.838 0 0 0 -72.837-72.832z" fill="url(#linear-gradient)" fill-rule="evenodd" data-original-color="linear-gradient" stroke="none" stroke-opacity="1"/></g></svg>