<svg id="Layer_1" viewBox="0 0 512 512" xmlns="http://www.w3.org/2000/svg" xmlns:xlink="http://www.w3.org/1999/xlink" data-name="Layer 1" width="300" height="300" version="1.1" xmlns:svgjs="http://svgjs.dev/svgjs"><g width="100%" height="100%" transform="matrix(1,0,0,1,0,0)"><linearGradient id="linear-gradient" gradientUnits="userSpaceOnUse" x1="35.894" x2="450.881" y1="463.493" y2="48.507"><stop stop-opacity="1" stop-color="#1c4584" offset="0"/><stop stop-opacity="1" stop-color="#2ec1ff" offset="1"/></linearGradient><path d="m388.668 334.375a23.432 23.432 0 0 1 5.465.644 11.517 11.517 0 0 0 16.745 15.389 23.4 23.4 0 1 1 -22.21-16.033zm36.189-21.275a57.489 57.489 0 0 1 5.053 84.717q28.858-12.336 59.246-41.339-33.054-31.548-64.3-43.378zm-77.636 84.5a57.488 57.488 0 0 1 5.33-84.563q-29.4 11.808-57.532 43.437 25.573 28.757 52.2 41.126zm72.818-71.2a44.365 44.365 0 1 0 0 62.741 44.368 44.368 0 0 0 0-62.741zm-32.006-31.642q37.095 0 75.9 26.552v-178.964h-441.089v306.162a4.738 4.738 0 0 0 4.709 4.71h431.668a4.738 4.738 0 0 0 4.71-4.71v-56.862q-38.8 26.549-75.9 26.552-54.947 0-104.668-58.01a5.611 5.611 0 0 1 -.056-7.359q49.746-58.074 104.724-58.074zm-324.833-25.907a5.621 5.621 0 0 1 4.83-10.151l24.063 11.47a18.276 18.276 0 0 1 23.406-2.665l37.715-29.991a18.284 18.284 0 1 1 34.922-2.285l35.115 21.08a18.278 18.278 0 0 1 21.189-2.061l14.338-12.957a5.6 5.6 0 1 1 7.514 8.306l-14.341 12.96a18.284 18.284 0 1 1 -34.476 3.364l-35.115-21.08a18.276 18.276 0 0 1 -22.16 1.459l-37.714 29.99a18.283 18.283 0 1 1 -35.237 4.027zm177.058-3.75a7.031 7.031 0 1 1 -12 4.972 7.034 7.034 0 0 1 12-4.972zm-64.952-39a7.032 7.032 0 1 1 -12 4.973 7.036 7.036 0 0 1 12-4.973zm-64.954 51.651a7.031 7.031 0 1 1 -12 4.972 7.034 7.034 0 0 1 12-4.972zm164.8 118.67a5.625 5.625 0 0 1 0 11.25h-209.642a5.625 5.625 0 0 1 0-11.25h17.026v-67.428a5.625 5.625 0 0 1 5.625-5.625h34.43a5.625 5.625 0 0 1 5.625 5.625v67.433h19.272v-107.2a5.626 5.626 0 0 1 5.625-5.625h34.432a5.626 5.626 0 0 1 5.625 5.625v107.2h19.272v-87.464a5.625 5.625 0 0 1 5.625-5.625h34.433a5.626 5.626 0 0 1 5.625 5.625v87.464zm-181.363 0v-61.803h23.181v61.808zm64.953 0v-101.569h23.178v101.574zm64.953 0v-81.834h23.182v81.839zm128.205-239.57a61.427 61.427 0 0 1 61.425 61.426 5.625 5.625 0 0 1 -5.625 5.622h-4.887a51.222 51.222 0 1 1 -56.538-56.539v-4.887a5.625 5.625 0 0 1 5.625-5.625zm39.581 67.048a39.973 39.973 0 1 1 -45.2-45.2v39.577a5.625 5.625 0 0 0 5.619 5.623zm-4.1-41.1a50.025 50.025 0 0 1 14.383 29.855h-44.235v-44.24a50.025 50.025 0 0 1 29.855 14.385zm-318.627-91.588a5.625 5.625 0 1 1 -5.65 5.625 5.626 5.626 0 0 1 5.65-5.625zm33.925 0a5.625 5.625 0 1 1 -5.65 5.625 5.626 5.626 0 0 1 5.65-5.625zm33.925 0a5.625 5.625 0 1 1 -5.65 5.625 5.625 5.625 0 0 1 5.65-5.625zm39.447 11.25a5.625 5.625 0 0 1 0-11.25h241.994a5.625 5.625 0 1 1 0 11.25zm-153.207 28.638h441.087v-67.6a4.738 4.738 0 0 0 -4.71-4.71h-431.668a4.738 4.738 0 0 0 -4.709 4.71z" fill="url(#linear-gradient)" fill-rule="evenodd" data-original-color="linear-gradient" stroke="none" stroke-opacity="1"/></g></svg>