<svg id="Capa_1" enable-background="new 0 0 512 512" height="300" viewBox="0 0 512 512" width="300" xmlns="http://www.w3.org/2000/svg" version="1.1" xmlns:xlink="http://www.w3.org/1999/xlink" xmlns:svgjs="http://svgjs.dev/svgjs"><g width="100%" height="100%" transform="matrix(1,0,0,1,0,0)"><g><g><path d="m256 0c-107.52 0-195 87.48-195 195 0 47.57 9.74 80.52 35.93 121.59 26.68 41.84 71.86 94.25 146.7 181.06l12.37 14.35 11.36-13.18c75.22-87.25 120.62-139.91 147.53-182.08 26.32-41.23 36.11-74.22 36.11-121.74 0-107.52-87.48-195-195-195z" fill="#1c4584" fill-opacity="1" data-original-color="#ff8e8eff" stroke="none" stroke-opacity="1"/></g><path d="m451 195c0 47.52-9.79 80.51-36.11 121.74-26.91 42.17-72.31 94.83-147.53 182.08l-11.36 13.18v-512c107.52 0 195 87.48 195 195z" fill="#1c4584" fill-opacity="1" data-original-color="#ff4949ff" stroke="none" stroke-opacity="1"/><path d="m391 195c0 46.71-23.84 87.96-60 112.21h-150c-36.16-24.25-60-65.5-60-112.21 0-74.44 60.56-135 135-135s135 60.56 135 135z" fill="#ffffff" fill-opacity="1" data-original-color="#f2f2fcff" stroke="none" stroke-opacity="1"/><path d="m391 195c0 46.71-23.84 87.96-60 112.21h-75v-247.21c74.44 0 135 60.56 135 135z" fill="#ffffff" fill-opacity="1" data-original-color="#e2d9fbff" stroke="none" stroke-opacity="1"/><g><g><g><g><path d="m256 120c-24.81 0-45 20.19-45 45s20.19 45 45 45 45-20.19 45-45-20.19-45-45-45z" fill="#17ace4" fill-opacity="1" data-original-color="#6f3c83ff" stroke="none" stroke-opacity="1"/></g></g></g></g><path d="m331 285v22.21c-21.47 14.39-47.27 22.79-75 22.79s-53.53-8.4-75-22.79v-22.21c0-41.36 33.64-75 75-75s75 33.64 75 75z" fill="#17ace4" fill-opacity="1" data-original-color="#6f3c83ff" stroke="none" stroke-opacity="1"/><path d="m256 210v-90c24.81 0 45 20.19 45 45s-20.19 45-45 45z" fill="#17ace4" fill-opacity="1" data-original-color="#4a2f61ff" stroke="none" stroke-opacity="1"/><path d="m331 285v22.21c-21.47 14.39-47.27 22.79-75 22.79v-120c41.36 0 75 33.64 75 75z" fill="#17ace4" fill-opacity="1" data-original-color="#4a2f61ff" stroke="none" stroke-opacity="1"/><g><g><g><path d="m0 482h90v30h-90z" fill="#5172b0" fill-opacity="1" data-original-color="#91e6a9ff" stroke="none" stroke-opacity="1"/></g></g></g><g><path d="m120 482h90v30h-90z" fill="#5172b0" fill-opacity="1" data-original-color="#91e6a9ff" stroke="none" stroke-opacity="1"/></g><g><path d="m302 482h90v30h-90z" fill="#5172b0" fill-opacity="1" data-original-color="#26bfa6ff" stroke="none" stroke-opacity="1"/></g><g><g><g><path d="m422 482h90v30h-90z" fill="#5172b0" fill-opacity="1" data-original-color="#26bfa6ff" stroke="none" stroke-opacity="1"/></g></g></g></g></g></svg>