<svg id="Layer_1" enable-background="new 0 0 512 512" viewBox="0 0 512 512" xmlns="http://www.w3.org/2000/svg" width="300" height="300" version="1.1" xmlns:xlink="http://www.w3.org/1999/xlink" xmlns:svgjs="http://svgjs.dev/svgjs"><g width="100%" height="100%" transform="matrix(1,0,0,1,0,0)"><g><path d="m56.843 181.168c-.15 3.03-1.895 5.749-4.571 7.162l-37.727 19.837 12.29 45.874 65.187-31.506 15.48-7.483c-.974-2.537-1.809-5.128-2.505-7.762-11.123-41.484 13.575-84.264 55.048-95.376 41.474-11.102 84.274 13.607 95.408 55.08 4.528 16.904 3.255 34.376-3.233 49.963v32.224 9.303l60.016-29.023-8.736-8.072c-2.227-2.066-3.201-5.138-2.559-8.104 1.435-6.67 2.334-13.457 2.666-20.169.15-3.019 1.895-5.749 4.571-7.152l37.705-19.848-11.669-43.604-42.587 1.67c-3.019.107-5.877-1.36-7.526-3.897-3.726-5.749-7.901-11.177-12.419-16.144-2.034-2.248-2.74-5.406-1.841-8.307l12.654-40.703-39.085-22.557-28.937 31.292c-2.066 2.227-5.138 3.201-8.104 2.559-6.67-1.434-13.457-2.333-20.169-2.665-3.03-.15-5.749-1.895-7.162-4.571l-19.838-37.728-43.604 11.68 1.67 42.598c.118 3.019-1.36 5.877-3.908 7.526-5.738 3.726-11.166 7.901-16.133 12.419-2.248 2.034-5.406 2.741-8.308 1.842l-40.713-12.655-22.578 39.086 31.325 28.937c2.238 2.066 3.212 5.171 2.559 8.136-1.435 6.488-2.324 13.254-2.667 20.138z" fill="#17ace4" fill-opacity="1" data-original-color="#ff695aff" stroke="none" stroke-opacity="1"/><g fill="#2e3760"><path d="m406.842 120.338h70.25v17.204h-70.25z" fill="#2e3760" fill-opacity="1" data-original-color="#2e3760ff" stroke="none" stroke-opacity="1"/><path d="m314.205 20.312h96.654c23.552 0 42.713 19.161 42.713 42.713v24.307c0 4.735 3.838 8.573 8.573 8.573s8.573-3.838 8.573-8.573v-24.308c0-33.007-26.852-59.858-59.858-59.858h-96.654c-4.735 0-8.573 3.838-8.573 8.573s3.837 8.573 8.572 8.573z" fill="#2e3760" fill-opacity="1" data-original-color="#2e3760ff" stroke="none" stroke-opacity="1"/><path d="m426.913 95.904c4.735 0 8.573-3.838 8.573-8.573v-24.307c0-13.579-11.047-24.626-24.626-24.626h-61.422c-4.735 0-8.573 3.838-8.573 8.573s3.838 8.573 8.573 8.573h61.422c4.124 0 7.48 3.356 7.48 7.48v24.307c0 4.736 3.838 8.573 8.573 8.573z" fill="#2e3760" fill-opacity="1" data-original-color="#2e3760ff" stroke="none" stroke-opacity="1"/><path d="m502.936 362.595h-6.402-17.214l-17.204-207.913h-40.296l-17.215 207.913h-17.205-17.921-17.14v-133.477l-100.119 48.4v85.077h-17.14v-133.477l-100.151 48.41v85.067h-17.14v-133.477l-100.151 48.4v85.077h-8.563c-4.743 0-8.575 3.833-8.575 8.564v129.099c0 4.732 3.832 8.575 8.575 8.575h493.86c4.732 0 8.564-3.843 8.564-8.575v-129.098c.001-4.732-3.832-8.565-8.563-8.565zm-440.172 100.023v-53.806h53.806v53.806zm110.888 0v-53.806h53.839v53.806zm110.889 0v-53.806h53.838v53.806zm110.889 0v-53.806h53.839v53.806z" fill="#2e3760" fill-opacity="1" data-original-color="#2e3760ff" stroke="none" stroke-opacity="1"/></g></g></g></svg>