<svg clip-rule="evenodd" fill-rule="evenodd" height="300" image-rendering="optimizeQuality" shape-rendering="geometricPrecision" text-rendering="geometricPrecision" viewBox="0 0 2.83333 2.83333" width="300" xmlns="http://www.w3.org/2000/svg" version="1.1" xmlns:xlink="http://www.w3.org/1999/xlink" xmlns:svgjs="http://svgjs.dev/svgjs"><g width="100%" height="100%" transform="matrix(1,0,0,1,0,0)"><g id="Layer_x0020_1"><circle cx="1.417" cy="1.417" fill="#ac2614" r="1.417" fill-opacity="0" data-original-color="#ac2614ff" stroke="none" stroke-opacity="1"/><g id="_600358192" fill="#fafafa"><path id="_600359200" d="m1.18513 1.17026h-.590791c-.0147362 0-.0266693-.0119331-.0266693-.0266654v-.119819c0-.0807677.0657047-.146488.146488-.146488l.332189.00000787c.0159252.0977362.0581693.189413.12124.271126.00564961.00732283.0115039.0146024.0175433.0218386zm1.05387 0h-.590815c.0060315-.00722835.0118819-.0145079.0175236-.0218189.0630591-.0817205.105295-.173406.121228-.271146h.332232c.0807677 0 .146488.0657047.146488.146484v.119819c.00000787.0147165-.0119213.0266614-.0266575.0266614z" fill="#fafafa" fill-opacity="1" data-original-color="#fafafaff" stroke="none" stroke-opacity="1"/><path id="_600359152" d="m2.17778 2.26998h-1.52222c-.0147362 0-.0266654-.0119291-.0266654-.0266654v-.225091c0-.0147362.0119291-.0266654.0266654-.0266654h1.52222c.0147323 0 .0266654.0119291.0266654.0266654v.225091c0 .0147402-.0119409.0266654-.0266654.0266654z" fill="#fafafa" fill-opacity="1" data-original-color="#fafafaff" stroke="none" stroke-opacity="1"/><path id="_600358264" d="m1.41667 1.29511c-.00490157 0-.00980315-.00135039-.014126-.00405906-.0593583-.0370787-.353004-.238992-.304717-.573421.00115354-.00797244.00583071-.0149843.012752-.0190945.00691732-.00410236.0153465-.00487795.0228583-.00210236.0001378.00004331.0250709.00884646.0607362.00884646h.00001575c.0569409 0 .137744-.0223189.199394-.128638.00477953-.00822047.0135709-.0132913.0230709-.0132913.00951181 0 .0182953.00505512.0230709.0132913.0616378.106335.142469.128638.199386.128638.0356693 0 .060626-.00879134.060878-.00888583.00751181-.00269291.0159291-.00190157.0228031.00222047.00687008.00411811.0115669.0110945.0127087.0190276.0483031.334398-.245354.536335-.304705.573421-.0043189.00269685-.00922047.00404724-.014126.00404724z" fill="#fafafa" fill-opacity="1" data-original-color="#fafafaff" stroke="none" stroke-opacity="1"/><g><path id="_600358576" d="m.730059 1.93822v-.71463h.270611v.71463z" fill="#fafafa" fill-opacity="1" data-original-color="#fafafaff" stroke="none" stroke-opacity="1"/><path id="_600358360" d="m1.83268 1.93822v-.71463h.2706v.71463z" fill="#fafafa" fill-opacity="1" data-original-color="#fafafaff" stroke="none" stroke-opacity="1"/><path id="_600358240" d="m1.15824 1.93822v-.411783c0-.0147362.0119331-.0266654.0266693-.0266654h.463531c.0147362 0 .0266654.0119291.0266654.0266654v.411783h-.516866z" fill="#fafafa" fill-opacity="1" data-original-color="#fafafaff" stroke="none" stroke-opacity="1"/></g></g></g></g></svg>