<svg clip-rule="evenodd" fill-rule="evenodd" height="300" image-rendering="optimizeQuality" shape-rendering="geometricPrecision" text-rendering="geometricPrecision" viewBox="0 0 850 850" width="300" xmlns="http://www.w3.org/2000/svg" version="1.1" xmlns:xlink="http://www.w3.org/1999/xlink" xmlns:svgjs="http://svgjs.dev/svgjs"><g width="100%" height="100%" transform="matrix(1,0,0,1,0,0)"><g id="Layer_x0020_1"><circle cx="425" cy="425" fill="#673b8d" r="425.001" fill-opacity="0" data-original-color="#673b8dff" stroke="none" stroke-opacity="1"/><path d="m425 677.059c-58.506 0-114.646-27.9508-154.023-76.6902-62.0552-76.8119-79.5072-196.903-49.1481-338.157.837402-3.90591 4.45985-6.56812 8.44253-6.18662 4.19292.399213 8.5252.598819 12.8658.598819 87.6343 0 175.625-80.7627 176.499-81.5788 3.0189-2.80158 7.69725-2.8063 10.7162 0 .882284.817324 88.9843 81.5788 176.505 81.5788 4.3441 0 8.6693-.201969 12.8693-.598819 3.90945-.376772 7.60513 2.28071 8.44253 6.18662 30.3591 141.256 12.9071 261.35-49.1434 338.157-39.3804 48.7394-95.5158 76.6902-154.027 76.6902zm.00472441-49.5874h-.00472441c-41.563-.00472441-80.9103-19.1669-110.792-53.9563-49.6099-57.7642-67.5792-150.839-50.5937-262.088.525591-3.45709 3.27284-6.15355 6.74056-6.61772 5.35394-.718111 10.7894-1.64528 16.1551-2.7567 41.1485-8.52048 91.2154-32.1355 133.937-63.1631 2.76851-2.01378 6.52323-2.00669 9.28702.0200788 48.9721 35.902 102.212 59.2666 149.912 65.7851 3.45709.47126 6.19371 3.163 6.72402 6.613 17.0103 111.302-.943702 204.423-50.5678 262.203-29.8784 34.7977-69.2304 53.9611-110.797 53.9611zm-146.667-307.912c-14.8134 104.061 2.09173 190.445 47.8205 243.688 26.8429 31.2532 61.9477 48.463 98.8418 48.463 36.9024.00472441 72.0095-17.2099 98.8513-48.463 45.743-53.263 62.6457-139.701 47.7898-243.828-47.1709-7.65473-98.8028-30.3508-146.584-64.4552-43.9311 31.0512-92.9776 53.7426-135.349 62.5146-3.77244.784253-7.57914 1.47756-11.3705 2.0811zm158.921 227.827h-24.5173c-7.44213 0-13.4977-5.43898-15.4169-13.8614l-3.20315-14.015c-10.5768-3.75827-20.4933-9.48899-29.0705-16.8071l-13.7599 4.24134c-8.16379 2.51575-16.0288-.0401575-19.7126-6.41575l-12.2622-21.2386c-3.71575-6.44056-2.03032-14.4071 4.29567-20.2831l10.5354-9.78426c-1.01693-5.5252-1.52953-11.1543-1.52953-16.7953 0-5.64095.512599-11.2748 1.52953-16.7953l-10.5354-9.7819c-6.32599-5.87481-8.01615-13.8366-4.29567-20.2831l12.2551-21.2351c3.69095-6.38859 11.5606-8.9315 19.7209-6.42048l13.7599 4.24252c8.58308-7.3193 18.4937-13.05 29.0705-16.8083l3.20315-14.0114c1.92402-8.42245 7.97599-13.8614 15.4181-13.8614l24.515-.00236221c7.43859 0 13.4941 5.44016 15.4228 13.8626l3.20315 14.0102c10.5768 3.76181 20.4874 9.49371 29.067 16.813l13.7599-4.24134c8.14371-2.51575 16.0252.0366142 19.7173 6.42402l12.2587 21.2303c3.71693 6.44528 2.0315 14.4071-4.29567 20.2831l-10.539 9.78308c1.01693 5.52638 1.53071 11.1555 1.53071 16.7965 0 5.64567-.51378 11.2736-1.53071 16.7953l10.539 9.78426c6.32717 5.87599 8.01261 13.8343 4.29567 20.2831l-12.2587 21.2351c-3.68859 6.38859-11.5618 8.9315-19.7173 6.42166l-13.7599-4.2378c-8.57717 7.31575-18.4902 13.0465-29.0752 16.813l-3.19961 14.0055c-1.92402 8.41418-7.97599 13.8543-15.4181 13.8543zm-23.9788-15.7536h23.4484c.172441-.298819.414567-.832678.596457-1.62047l4.19174-18.3508c.63189-2.76969 2.70827-4.98071 5.42481-5.79331 11.3835-3.39685 21.9851-9.52914 30.6697-17.7307 2.06457-1.95236 5.01733-2.64685 7.73032-1.80118l18.0189 5.55355c.628347.19252 1.41851.33189 1.69725.296457l11.726-20.3079c-.172441-.298819-.51378-.774804-1.10669-1.3252l-13.8024-12.8126c-2.07874-1.93229-2.95866-4.82835-2.30551-7.59331 1.37126-5.77323 2.06339-11.7331 2.06339-17.7189 0-5.98229-.692127-11.9421-2.06339-17.7225-.65315-2.7567.226772-5.65867 2.30551-7.58977l13.8024-12.8126c.595276-.550394.931891-1.02165 1.10315-1.32638l-11.7083-20.2784c-.668505.00472441-1.1811.102756-1.71024.266929l-18.0272 5.55473c-2.69882.836221-5.66575.151181-7.72914-1.80236-8.68229-8.20513-19.2815-14.3351-30.6579-17.7272-2.72008-.812599-4.79646-3.02362-5.42717-5.79331l-4.19764-18.3543c-.179528-.787796-.422835-1.32047-.597638-1.6252l-23.4496.00236221c-.177166.303544-.419292.832678-.598819 1.61929l-4.19764 18.3543c-.630709 2.76496-2.70709 4.98071-5.42717 5.79331-11.3681 3.39213-21.9732 9.52206-30.6626 17.7272-2.06811 1.95-5.01733 2.63504-7.72914 1.80236l-18.0225-5.55473c-.627166-.191339-1.28858-.17126-1.69725-.298819l-11.726 20.3126c.172441.303544.51378.774804 1.10433 1.3252l13.8012 12.8126c2.07638 1.93229 2.95866 4.82835 2.30551 7.58977-1.36536 5.7815-2.06339 11.7461-2.06339 17.7236 0 5.97756.693308 11.9421 2.06339 17.7236.65315 2.76142-.229134 5.65749-2.30551 7.58977l-13.7965 12.8126c-.595276.550394-.931891 1.02165-1.10788 1.3252l11.7095 20.2784c.672048-.00472441 1.18583-.102756 1.71496-.266929l18.0213-5.55355c2.71299-.840946 5.66103-.147638 7.73032 1.80118 8.68465 8.20158 19.291 14.3303 30.6626 17.7236 2.7189.812599 4.79056 3.02362 5.42717 5.79213l4.19646 18.3591c.183071.787796.425197 1.32165.602363 1.62047zm11.7201-50.8382c-26.6705 0-48.3685-21.6945-48.3685-48.3662 0-26.6705 21.6981-48.3685 48.3685-48.3685 26.6717 0 48.3662 21.6992 48.3662 48.3685 0 26.6705-21.6945 48.3662-48.3662 48.3662zm0-80.9812c-17.9811 0-32.6138 14.6303-32.6138 32.615 0 17.9823 14.6291 32.6114 32.6138 32.6114 17.9823 0 32.6114-14.6291 32.6114-32.6114 0-17.9847-14.6291-32.615-32.6114-32.615z" fill="#fefefe" fill-opacity="1" data-original-color="#fefefeff" stroke="none" stroke-opacity="1"/></g></g></svg>