<svg clip-rule="evenodd" fill-rule="evenodd" height="300" image-rendering="optimizeQuality" shape-rendering="geometricPrecision" text-rendering="geometricPrecision" viewBox="0 0 2.83333 2.83333" width="300" xmlns="http://www.w3.org/2000/svg" version="1.1" xmlns:xlink="http://www.w3.org/1999/xlink" xmlns:svgjs="http://svgjs.dev/svgjs"><g width="100%" height="100%" transform="matrix(1,0,0,1,0,0)"><g id="Layer_x0020_1"><circle cx="1.417" cy="1.417" fill="#ff1248" r="1.417" fill-opacity="0" data-original-color="#ff1248ff" stroke="none" stroke-opacity="1"/><g id="_627375744" fill="#fff"><path id="_627376632" d="m1.5017 2.15959c-.107409 0-.209106-.0236378-.268465-.0457598-.0170551-.0063622-.037122-.00957087-.0596732-.00957087-.0132008 0-.0265787.0011063-.0397244.00295669.00168504-.0129409-.00087402-.026248-.00752756-.0377756l-.17915-.310291c-.0035-.00606299-.00791339-.0112795-.0129606-.0155866l.0115276-.00665354c.0829528-.056689.1725-.0854252.266169-.0854252.0937992 0 .156681.0294843.159307.0307323.0604803.023874.164472.0638858.180634.067311.0447638.0095.0749134.0386496.071689.0693031-.00119685.0112756-.0109016.0480787-.0861181.0480787-.0390236 0-.0888701-.00965354-.148209-.0286811-.0265945-.00852756-.036248-.00685827-.0392441-.00608268-.00059843.012374.0243031.0512283.0589134.0729567.0411181.0257756.0896457.0388583.144181.0388583.0624409 0 .10974-.017374.110228-.0175551l.237701-.0932244c.0165394-.00648819.0323189-.00977953.0468976-.00977953.0340394 0 .0599291.0182087.0675669.0474803.00829134.0318307-.00755512.0774646-.0616496.107697-.0335079.0187362-.0931732.0536772-.187024.113799-.0696417.0445709-.158831.0672126-.265071.0672126z" fill="#ffffff" fill-opacity="1" data-original-color="#ffffffff" stroke="none" stroke-opacity="1"/><path id="_627376944" d="m1.00822 2.14255c-.00695669 0-.0136496-.00365354-.0173307-.0100157l-.17261-.298972c-.00264961-.00458268-.00337402-.0100591-.002-.0151811.00137402-.00511024.00472441-.0095.0093189-.0121339l.0596063-.0344134c.00953937-.00552756.0217874-.00223622.027315.0073189l.17915.310291c.00309843.00535039.00352756.0118346.00119685.0175551-.00233465.00572047-.00719685.0100551-.0131378.0117047-.0266811.00744094-.0493976.0162205-.0637441.0222756-.00252362.00104331-.00516535.00157087-.00776378.00157087z" fill="#ffffff" fill-opacity="1" data-original-color="#ffffffff" stroke="none" stroke-opacity="1"/><path id="_627376536" d="m.894142 2.26993c-.00174016 0-.0034685-.00023622-.0051811-.00069291-.00512205-.00137402-.0095-.00472441-.0121535-.00931496l-.22652-.392358c-.00264961-.00457874-.00337402-.0100551-.002-.0151772.00137402-.00511417.00472441-.0095.00931496-.0121378l.140724-.0812402c.00955512-.00552756.0217874-.00223622.027315.00731496l.226524.392343c.00264961.00458268.00337402.0100551.002.0151772-.00137795.00511417-.00472441.00948425-.0093189.0121378l-.14072.0812559c-.00305512.00179134-.00651575.00269291-.00998425.00269291z" fill="#ffffff" fill-opacity="1" data-original-color="#ffffffff" stroke="none" stroke-opacity="1"/><path id="_627376560" d="m1.64232 1.75689.115177.00000394c.0382205 0 .0711575.0230787.0856181.0560276l-.193988.0760827c-.0196535.00708268-.044811.0116142-.0681614.0136732.0197362-.00423622.0385236-.0121142.0537835-.0256299.0156929-.0139016.0263425-.033063.0285551-.0540039.0006063-.00575197.00061024-.0115472.00001181-.0172992-.00196063-.0188937-.00968898-.0352244-.0209961-.0488543z" fill="#ffffff" fill-opacity="1" data-original-color="#ffffffff" stroke="none" stroke-opacity="1"/><path id="_627376464" d="m1.58276 1.71689c-.00745669-.0027126-.0150354-.00487008-.0225551-.00646457-.011685-.00272441-.0259724-.00834252-.0373858-.012374-.0229764-.00811811-.0458504-.016622-.0685945-.0253701-.0224843-.00864567-.044874-.0174921-.0669685-.0270866-.0368819-.0164843-.0804449-.0266457-.122831-.0312244.0151535-.0311969.0471535-.0527559.0840984-.0527559l.408984.00000787c.0515236 0 .0934528.0419252.0934528.0934488v.0483858c0 .0153307-.00371654.029811-.0102913.0425906-.0231575-.0184685-.0522953-.0291496-.0831772-.0291496l-.174732-.00000787z" fill="#ffffff" fill-opacity="1" data-original-color="#ffffffff" stroke="none" stroke-opacity="1"/><path id="_627377016" d="m1.26538 1.55074c-.00656693-.0127756-.0102795-.027248-.0102795-.0425669v-.0483858c0-.0515197.0419134-.0934331.0934331-.0934331l.40898-.00000787c.0515236 0 .0934528.0419134.0934528.093437v.0483858c0 .0153346-.00371654.0298189-.0102913.0425984-.0228268-.0182362-.0517362-.0291496-.0831614-.0291496l-.408984-.00000787c-.0308071 0-.0599567.0106299-.0831496.0291299z" fill="#ffffff" fill-opacity="1" data-original-color="#ffffffff" stroke="none" stroke-opacity="1"/><path id="_627375888" d="m1.55302 1.40635c-.16139 0-.292685-.131299-.292685-.292685 0-.16139.131295-.292685.292685-.292685.161386 0 .292701.131295.292701.292685.00000787.161386-.131315.292685-.292701.292685zm-.02-.423362v-.0127559c0-.0110394.00897244-.0199961.02-.0199961.0110276 0 .0199961.00895669.0199961.0199961v.0127638c.0326024.00882283.0566614.0386535.0566614.0740079 0 .0110354-.0089685.0199961-.0199961.0199961s-.02-.00896063-.02-.0199961c0-.0202205-.0164449-.0366654-.0366614-.0366654-.0202205 0-.0366654.0164567-.0366654.0366654 0 .0260551.0106102.0298976.0413031.0372165.0286811.00683465.0720354.0171535.0720354.076122 0 .0353465-.0240669.0651929-.0566772.0740118v.0127402c.00001575.0110551-.00895276.02-.0199961.02-.0110394 0-.02-.00896063-.02-.02v-.0127402c-.0326102-.00882283-.0566772-.0386693-.0566772-.0740276 0-.0110394.00897244-.02.02-.02.0110276 0 .0199961.00896063.0199961.02 0 .0201732.016374.0366063.0365315.0366772h.00013386l.00001575-.00000394.00013386.00000394c.0201496-.00008268.0365118-.0165.0365118-.0366772 0-.0260551-.0106063-.0298976-.0412874-.0372047-.0286811-.00683465-.0720512-.0171535-.0720512-.0761181 0-.0353622.0240748-.0652047.0566929-.0740157zm.02.346953c-.119256 0-.216276-.0970197-.216276-.216276 0-.119256.0970197-.216276.216276-.216276.119256 0 .216276.0970197.216276.216276 0 .119256-.0970197.216276-.216276.216276zm0-.392551c-.0972008 0-.17628.0790748-.17628.17628 0 .0972047.0790748.17628.17628.17628.0972047 0 .176264-.0790748.176264-.17628 0-.0972047-.0790669-.17628-.176264-.17628z" fill="#ffffff" fill-opacity="1" data-original-color="#ffffffff" stroke="none" stroke-opacity="1"/><path id="_627376128" d="m1.07382 1.48885c-.00530709 0-.0103898-.0021063-.0141378-.0058622l-.118835-.11885c-.00572047-.00572047-.00743307-.0143189-.00434646-.0217874.00309843-.0074685.0103898-.0123465.0184882-.0123465h.0370315v-.266795c0-.0110394.00896063-.02.0199961-.02h.12363c.0110354 0 .0199961.00896063.0199961.02v.266795h.0370354c.00810236 0 .015374.00487795.0184882.0123465.00309843.0074685.00138976.0160827-.00434646.0217874l-.11885.11885c-.00376378.00375591-.00885039.0058622-.0141496.0058622z" fill="#ffffff" fill-opacity="1" data-original-color="#ffffffff" stroke="none" stroke-opacity="1"/><path id="_627376080" d="m2.04691 1.48885c-.00511417 0-.0102362-.00195669-.0141496-.0058622l-.118854-.11885c-.00570472-.00572047-.00742913-.0143189-.00433465-.0217874.00309843-.0074685.0103898-.0123465.0184724-.0123465h.0370236v-.266795c0-.0110394.00897244-.02.02-.02h.123626c.0110394 0 .02.00896063.02.02v.266795h.0370236c.00808661 0 .015374.00487795.0184724.0123465.00311417.0074685.00138976.0160827-.00433465.0217874l-.11885.11885c-.00385827.00392126-.00898425.0058622-.0140945.0058622z" fill="#ffffff" fill-opacity="1" data-original-color="#ffffffff" stroke="none" stroke-opacity="1"/><path id="_627375816" d="m1.55302.782039c-.0110394 0-.02-.00896063-.02-.02v-.134098c0-.0110394.00897244-.02.02-.02.0110276 0 .0199961.00896063.0199961.02v.134098c.00001575.0110551-.00895276.02-.0199961.02z" fill="#ffffff" fill-opacity="1" data-original-color="#ffffffff" stroke="none" stroke-opacity="1"/><path id="_627376248" d="m1.44172.737516c-.0110394 0-.0199961-.00895669-.0199961-.0199961v-.134114c0-.0110394.00895669-.02.0199961-.02.0110394 0 .02.00896063.02.02v.134098c0 .0110551-.00895669.0200118-.02.0200118z" fill="#ffffff" fill-opacity="1" data-original-color="#ffffffff" stroke="none" stroke-opacity="1"/><path id="_627376008" d="m1.66431.737516c-.0110354 0-.0199961-.00895669-.0199961-.0199961v-.134114c0-.0110394.0089685-.02.0199961-.02s.02.00896063.02.02v.134098c0 .0110551-.00896063.0200118-.02.0200118z" fill="#ffffff" fill-opacity="1" data-original-color="#ffffffff" stroke="none" stroke-opacity="1"/></g></g></g></svg>