<svg id="Layer_1" viewBox="0 0 512 512" xmlns="http://www.w3.org/2000/svg" xmlns:xlink="http://www.w3.org/1999/xlink" data-name="Layer 1" width="300" height="300" version="1.1" xmlns:svgjs="http://svgjs.dev/svgjs"><g width="100%" height="100%" transform="matrix(1,0,0,1,0,0)"><linearGradient id="linear-gradient" gradientUnits="userSpaceOnUse" x1="26.973" x2="485.027" y1="256" y2="256"><stop stop-opacity="1" stop-color="#17ace4" offset="0"/><stop stop-opacity="1" stop-color="#5172b0" offset="1"/></linearGradient><path d="m372.867 266.745a86.132 86.132 0 1 0 86.133 86.131 86.13 86.13 0 0 0 -86.132-86.131zm12.816 80.635h27.722a5.5 5.5 0 0 1 0 10.993h-27.722a13.943 13.943 0 1 1 -18.312-18.312v-37.434a5.5 5.5 0 1 1 10.993 0v37.434a13.993 13.993 0 0 1 7.319 7.319zm-18.312 77.087a5.5 5.5 0 1 1 10.993 0v2.515a5.5 5.5 0 1 1 -10.993 0zm-66.094-77.087a5.5 5.5 0 1 1 0 10.993h-2.516a5.5 5.5 0 1 1 0-10.993zm143.181 10.993a5.5 5.5 0 1 1 0-10.993h2.516a5.5 5.5 0 0 1 0 10.993zm-66.094-77.087a5.5 5.5 0 1 1 -10.993 0v-2.516a5.5 5.5 0 0 1 10.993 0zm-5.5-40.569a112.16 112.16 0 1 0 112.16 112.159 112.157 112.157 0 0 0 -112.16-112.159zm-68.673 43.483a97.123 97.123 0 1 1 0 137.353 97.121 97.121 0 0 1 0-137.353zm84.731-126.714h-361.949v232.614c0 8.428 7.152 14.858 15.38 16.271-17.166-39.571 11.771-84.3 55.317-84.3 43.691 0 72.629 45 55.18 84.608h109.21a123.189 123.189 0 0 1 126.862-175.917zm-292.916 96.22h34.6c6.7 0 12.544 5.126 12.544 11.834v31.111c0 6.708-5.846 11.834-12.544 11.834h-34.6c-6.7 0-12.543-5.126-12.543-11.834v-31.111c0-6.708 5.846-11.834 12.543-11.834zm94.643 0h34.6c6.7 0 12.544 5.126 12.544 11.834v31.111c0 6.708-5.846 11.834-12.544 11.834h-34.6c-6.7 0-12.543-5.126-12.543-11.834v-31.111c0-6.708 5.846-11.834 12.543-11.834zm93.935-75.4h36.016a11.855 11.855 0 0 1 11.835 11.834v31.11a11.856 11.856 0 0 1 -11.835 11.831h-36.016a11.89 11.89 0 0 1 -11.835-11.835v-31.11a11.889 11.889 0 0 1 11.835-11.836zm-94.643 0h36.014a11.855 11.855 0 0 1 11.835 11.834v31.11a11.856 11.856 0 0 1 -11.835 11.835h-36.014a11.89 11.89 0 0 1 -11.835-11.835v-31.11a11.889 11.889 0 0 1 11.835-11.84zm-94.643 0h36.014a11.992 11.992 0 0 1 8.362 3.472 11.8 11.8 0 0 1 3.473 8.362v31.11a11.8 11.8 0 0 1 -3.473 8.363 11.992 11.992 0 0 1 -8.362 3.472h-36.012a12 12 0 0 1 -8.363-3.472 11.805 11.805 0 0 1 -3.472-8.363v-31.11a11.8 11.8 0 0 1 3.472-8.362 12 12 0 0 1 8.363-3.478zm94.643 150.804h36.014a11.856 11.856 0 0 1 11.835 11.835v31.11a11.856 11.856 0 0 1 -11.835 11.834h-36.014a11.889 11.889 0 0 1 -11.835-11.834v-31.11a11.889 11.889 0 0 1 11.835-11.835zm36.859 11.835v31.11a.857.857 0 0 1 -.841.841h-36.018a.826.826 0 0 1 -.841-.841v-31.11a.825.825 0 0 1 .841-.841h36.014a.856.856 0 0 1 .845.841zm0-75.4v31.111c0 .395-.789.841-1.55.841h-34.6c-.76 0-1.549-.446-1.549-.841v-31.116c0-.394.788-.841 1.549-.841h34.6c.757.001 1.55.447 1.55.841zm-94.643 0v31.111c0 .395-.789.841-1.55.841h-34.6c-.76 0-1.55-.446-1.55-.841v-31.116c0-.394.79-.841 1.55-.841h34.6c.757.001 1.546.447 1.546.841zm189.286-75.4v31.11a.856.856 0 0 1 -.841.841h-36.018a.825.825 0 0 1 -.841-.841v-31.11a.826.826 0 0 1 .841-.841h36.016a.857.857 0 0 1 .839.832zm-94.643 0v31.11a.856.856 0 0 1 -.841.841h-36.018a.825.825 0 0 1 -.841-.841v-31.11a.826.826 0 0 1 .841-.841h36.014a.857.857 0 0 1 .845.832zm-94.883-.6-.011.011a.836.836 0 0 1 .251.59v31.11a.838.838 0 0 1 -.251.591l.011.01a.86.86 0 0 1 -.6.24h-36.017a.864.864 0 0 1 -.6-.24l.011-.011a.835.835 0 0 1 -.252-.59v-31.11a.839.839 0 0 1 .252-.59l-.011-.01a.861.861 0 0 1 .6-.241h36.014a.864.864 0 0 1 .599.23zm237.949-107.252c9.859 0 19.056 6.967 19.056 16.584v47.615h-361.949v-47.615c0-9.617 9.2-16.584 19.055-16.584h42.459v8.407a23.4 23.4 0 0 0 6.889 16.576c14.843 14.844 40.041 4.1 40.041-16.576v-8.407h49.065v8.407a23.4 23.4 0 0 0 6.889 16.576c14.843 14.844 40.041 4.1 40.041-16.576v-8.407h49.065v8.407a23.393 23.393 0 0 0 6.889 16.576c14.843 14.844 40.041 4.1 40.041-16.576v-8.407zm-53.452-22.858v31.265a12.432 12.432 0 0 1 -3.668 8.8c-7.928 7.929-21.275 2.121-21.275-8.8v-31.265a12.472 12.472 0 0 1 24.943 0zm-95.995 0v31.265a12.432 12.432 0 0 1 -3.668 8.8c-7.928 7.929-21.275 2.121-21.275-8.8v-31.265a12.472 12.472 0 0 1 24.943 0zm-95.995 0v31.265a12.432 12.432 0 0 1 -3.668 8.8c-7.928 7.929-21.275 2.121-21.275-8.8v-31.265a12.472 12.472 0 0 1 24.943 0zm245.495 293.441c0-3.851 5.857-3.965 5.9.027-.039 3.864-5.9 3.84-5.9-.027zm-304.564 35a5.49 5.49 0 0 1 6.785-8.632l19.5 15.333 30.806-35.577a5.48 5.48 0 1 1 8.288 7.172l-34.034 39.304a5.5 5.5 0 0 1 -7.742.967l-23.603-18.563zm-2.541-40.376a49.294 49.294 0 1 0 69.713 0 49.3 49.3 0 0 0 -69.713 0z" fill="url(#linear-gradient)" fill-rule="evenodd" data-original-color="linear-gradient" stroke="none" stroke-opacity="1"/></g></svg>