<svg clip-rule="evenodd" fill-rule="evenodd" height="300" image-rendering="optimizeQuality" shape-rendering="geometricPrecision" text-rendering="geometricPrecision" viewBox="0 0 2.83333 2.83333" width="300" xmlns="http://www.w3.org/2000/svg" version="1.1" xmlns:xlink="http://www.w3.org/1999/xlink" xmlns:svgjs="http://svgjs.dev/svgjs"><g width="100%" height="100%" transform="matrix(1,0,0,1,0,0)"><g id="Layer_x0020_1"><circle cx="1.417" cy="1.417" fill="#29af33" r="1.417" fill-opacity="0" data-original-color="#29af33ff" stroke="none" stroke-opacity="1"/><g id="_639369896"><g><path id="_639370808" d="m1.2024 1.84143c-.163705.00001575-.327354-.0622913-.451992-.186925-.249217-.249217-.249217-.654736 0-.903957.0569724-.0569685.122984-.102055.196217-.13398.020252-.00880315.0438228.00042913.0526654.0206811.00883465.020252-.00042913.0438307-.0206811.0526654-.0640157.0279173-.12176.0673504-.171622.11722-.218039.218039-.218039.572795 0 .790831.21802.218012.572791.217996.790827 0 .10561-.10561.163787-.246051.163787-.395425 0-.149358-.0581654-.289799-.163787-.395409-.129413-.129398-.314398-.187287-.494791-.154902-.0218071.00393307-.0425394-.0105551-.0464449-.0322913-.00390157-.0217362.0105551-.0425394.0322913-.0464449.206177-.0370709.417579.0291535.565504.177067.120732.120732.187217.281244.187217.451976s-.0664843.331256-.187217.451976c-.124594.124598-.288311.186909-.451972.186917z" fill="#fefefe" fill-opacity="1" data-original-color="#fefefeff" stroke="none" stroke-opacity="1"/></g><g><path id="_639369752" d="m1.2024 1.68247c-.128193 0-.248728-.0499291-.339386-.140579-.0906496-.0906378-.140563-.211161-.140563-.339354 0-.128189.0499134-.248728.140563-.339382.0906496-.0906575.211177-.140567.339386-.140567s.24872.0499173.33937.140567c.015626.015626.015626.0409409 0 .056563-.0155984.0156142-.0409291.0156142-.0565551 0-.0755433-.0755394-.175972-.11715-.282799-.11715s-.20726.0416102-.282799.11715c-.0755354.0755433-.11715.175972-.11715.282799s.0416102.20726.11715.282799c.0755433.0755236.175972.11715.282799.11715s.20726-.0416102.282799-.11715c.0155945-.0156299.0409252-.0156299.0565551 0 .015626.0156102.015626.0409409 0 .0565551-.0906535.0906693-.211177.140598-.33937.140598z" fill="#fefefe" fill-opacity="1" data-original-color="#fefefeff" stroke="none" stroke-opacity="1"/></g><g><path id="_639370160" d="m1.6078 1.96606c-.0106102 0-.0207756-.00422047-.0282756-.0117205l-.171677-.171677c-.00940157-.00940157-.0135276-.022874-.0109724-.0359409.00253937-.0130394.0114173-.024.0236811-.0291811.0663189-.0280669.125953-.0683031.177272-.119594.0512756-.0512717.0915236-.110925.119594-.177272.0051811-.012252.016126-.021122.0291929-.0236693.0130709-.00253937.0265433.00157087.0359331.0109724l.171665.171677c.015626.0156102.015626.0409449 0 .0565551l-.318118.31813c-.00750394.0075-.017685.0117205-.0282953.0117205zm-.103425-.200012.103429.103433.261551-.261567-.103433-.103429c-.0294567.0550276-.0668307.105303-.111539.150012-.0447205.0447362-.0949961.0820945-.150008.111551z" fill="#fefefe" fill-opacity="1" data-original-color="#fefefeff" stroke="none" stroke-opacity="1"/></g><g><path id="_639370040" d="m2.09059 2.26995c-.0480236 0-.0930669-.0185984-.126843-.052374l-.104319-.104315c-.015626-.0156142-.015626-.0409449 0-.0565551.0156299-.0156299.0409291-.0156299.0565551 0l.104319.104315c.0186654.0186693.0436378.0289449.0702913.0289449.0266535-.00001575.0516142-.0102913.0702795-.0289606.0186811-.0186811.0289606-.0436339.0289606-.0702913 0-.0266535-.0102795-.0516102-.0289449-.0702756l-.295437-.295441-.140567.140555.0925827.0925984c.015626.0156102.015626.0409409 0 .0565551-.015626.015626-.0409291.015626-.0565551 0l-.120874-.120874c-.00750394-.00750394-.0117244-.0176693-.0117244-.0282795 0-.0106063.00422047-.0207756.0117244-.0282756l.197134-.197122c.015626-.015626.0409291-.015626.0565551 0l.323732.323732c.0337874.0337638.0523701.0788189.0523701.126843 0 .0480236-.0185984.0930709-.0523701.126843-.0337913.0337795-.0788425.052378-.12687.052378z" fill="#fefefe" fill-opacity="1" data-original-color="#fefefeff" stroke="none" stroke-opacity="1"/></g></g></g></g></svg>