<svg id="OBJECT" viewBox="0 0 32 32" xmlns="http://www.w3.org/2000/svg" xmlns:xlink="http://www.w3.org/1999/xlink" width="300" height="300" version="1.1" xmlns:svgjs="http://svgjs.dev/svgjs"><g width="100%" height="100%" transform="matrix(1,0,0,1,0,0)"><linearGradient id="New_Gradient_Swatch" gradientUnits="userSpaceOnUse" x1="-5.74" x2="33.56" y1="23" y2="23" data-name="New Gradient Swatch"><stop offset="0" stop-color="#7738c8"/><stop offset="1" stop-color="#461d93"/></linearGradient><linearGradient id="New_Gradient_Swatch-2" xlink:href="#New_Gradient_Swatch" y1="18.5" y2="18.5" data-name="New Gradient Swatch"/><linearGradient id="New_Gradient_Swatch-3" xlink:href="#New_Gradient_Swatch" y1="14" y2="14" data-name="New Gradient Swatch"/><linearGradient id="New_Gradient_Swatch-4" x2="33.56" xlink:href="#New_Gradient_Swatch" y1="16" y2="16" data-name="New Gradient Swatch"/><linearGradient id="New_Gradient_Swatch-5" x2="33.56" xlink:href="#New_Gradient_Swatch" y1="21" y2="21" data-name="New Gradient Swatch"/><linearGradient id="New_Gradient_Swatch-6" x2="33.56" xlink:href="#New_Gradient_Swatch" y1="6" y2="6" data-name="New Gradient Swatch"/><path d="m14 22h-8c-.55 0-1 .45-1 1s.45 1 1 1h8c.55 0 1-.45 1-1s-.45-1-1-1z" fill="#ffffff" data-original-color="New_Gradient_Swatch" stroke="none" stroke-opacity="1" fill-opacity="1"/><path d="m14 17.5h-8c-.55 0-1 .45-1 1s.45 1 1 1h8c.55 0 1-.45 1-1s-.45-1-1-1z" fill="#ffffff" data-original-color="New_Gradient_Swatch" stroke="none" stroke-opacity="1" fill-opacity="1"/><path d="m14 13h-8c-.55 0-1 .45-1 1s.45 1 1 1h8c.55 0 1-.45 1-1s-.45-1-1-1z" fill="#ffffff" data-original-color="New_Gradient_Swatch" stroke="none" stroke-opacity="1" fill-opacity="1"/><path d="m30.66 14.4c-.21-.19-.5-.28-.78-.24-2.67.33-5.06-2.74-5.08-2.77-.38-.49-1.21-.49-1.59 0-.01.01-.47.6-1.21 1.23v-4.62c0-.27-.11-.52-.29-.71l-6-6c-.19-.19-.44-.29-.71-.29h-11.5c-1.38 0-2.5 1.12-2.5 2.5v22c0 1.38 1.12 2.5 2.5 2.5h16c.1 0 .2-.02.3-.03l3.58 2.82c.18.14.4.21.62.21s.44-.07.62-.21l3.71-2.91c1.7-1.34 2.67-3.34 2.67-5.5v-7.22c0-.29-.12-.56-.34-.75zm-14.66-9.99 2.59 2.59h-2.09c-.28 0-.5-.22-.5-.5zm2.12 9.75c-.28-.04-.57.05-.78.24s-.34.46-.34.75v7.22c0 1.31.36 2.55 1.02 3.63h-14.52c-.28 0-.5-.22-.5-.5v-22c0-.28.22-.5.5-.5h10.5v3.5c0 1.38 1.12 2.5 2.5 2.5h3.5v4.88c-.59.23-1.23.36-1.88.28zm10.88 8.21c0 1.54-.7 2.98-1.91 3.93l-3.09 2.43-3.09-2.43c-1.21-.95-1.91-2.39-1.91-3.93v-6.2c2.2-.19 4.01-1.67 5-2.67.99.99 2.8 2.47 5 2.67z" fill="#ffffff" data-original-color="New_Gradient_Swatch" stroke="none" stroke-opacity="1" fill-opacity="1"/><path d="m22.48 19.96c-.38-.41-1.01-.43-1.41-.05-.41.38-.43 1.01-.05 1.41l1.72 1.86c.19.2.46.32.73.32s.54-.12.73-.32l2.78-3c.38-.41.35-1.04-.06-1.41-.41-.38-1.04-.35-1.41.06l-2.04 2.21-.99-1.07z" fill="#ffffff" data-original-color="New_Gradient_Swatch" stroke="none" stroke-opacity="1" fill-opacity="1"/><g fill="url(#New_Gradient_Swatch-6)"><path d="m6 7h.5c.55 0 1-.45 1-1s-.45-1-1-1h-.5c-.55 0-1 .45-1 1s.45 1 1 1z" fill="#ffffff" data-original-color="New_Gradient_Swatch" stroke="none" stroke-opacity="1" fill-opacity="1"/><path d="m10 7h.5c.55 0 1-.45 1-1s-.45-1-1-1h-.5c-.55 0-1 .45-1 1s.45 1 1 1z" fill="#ffffff" data-original-color="New_Gradient_Swatch" stroke="none" stroke-opacity="1" fill-opacity="1"/></g></g></svg>