<svg id="Layer_1" viewBox="0 0 512 512" xmlns="http://www.w3.org/2000/svg" xmlns:xlink="http://www.w3.org/1999/xlink" data-name="Layer 1" width="300" height="300" version="1.1" xmlns:svgjs="http://svgjs.dev/svgjs"><g width="100%" height="100%" transform="matrix(1,0,0,1,0,0)"><linearGradient id="linear-gradient" gradientUnits="userSpaceOnUse" x1="16" x2="496" y1="256" y2="256"><stop stop-opacity="1" stop-color="#1c4584" offset="0"/><stop stop-opacity="1" stop-color="#17ace4" offset="1"/></linearGradient><path d="m256 16a240 240 0 1 1 -169.7 70.3 239.263 239.263 0 0 1 169.7-70.3zm68.692 178.29h-13.849l-.021 4.617a5.427 5.427 0 0 1 -3.851 5.191q-1.614.49-3.384 1.225-1.547.642-2.871 1.325a5.447 5.447 0 0 1 -6.8-.726l-3.267-3.267-9.793 9.794 3.253 3.281a5.427 5.427 0 0 1 .949 6.389q-.793 1.487-1.535 3.273-.635 1.53-1.089 2.948a5.449 5.449 0 0 1 -5.327 4.305h-4.616v13.849l4.616.021a5.427 5.427 0 0 1 5.191 3.851q.49 1.614 1.225 3.384.642 1.547 1.326 2.871a5.448 5.448 0 0 1 -.727 6.8l-3.266 3.267 9.793 9.793 3.281-3.252a5.425 5.425 0 0 1 6.39-.95q1.486.793 3.273 1.536 1.53.635 2.947 1.088a5.45 5.45 0 0 1 4.306 5.327v4.616h13.849l.021-4.616a5.425 5.425 0 0 1 3.851-5.191q1.613-.49 3.383-1.226 1.548-.64 2.872-1.325a5.448 5.448 0 0 1 6.8.727l3.266 3.266 9.794-9.793-3.253-3.281a5.428 5.428 0 0 1 -.95-6.39q.8-1.486 1.537-3.273.633-1.529 1.088-2.947a5.448 5.448 0 0 1 5.326-4.306h4.617v-13.846l-4.617-.02a5.429 5.429 0 0 1 -5.191-3.852c-.326-1.075-.737-2.2-1.225-3.383q-.642-1.548-1.326-2.871a5.448 5.448 0 0 1 .727-6.8l3.267-3.267-9.794-9.794-3.28 3.253a5.429 5.429 0 0 1 -6.39.95q-1.487-.8-3.272-1.536-1.532-.635-2.948-1.089a5.447 5.447 0 0 1 -4.306-5.326zm-6.925 19.759a25.521 25.521 0 1 0 18.046 7.475 25.446 25.446 0 0 0 -18.046-7.475zm-230.517 121.592h337.5v-207.174h-337.5zm207.084-48.185a8.689 8.689 0 0 0 2.483-1.739l2.079-2.079 1.054.437v2.94a8.757 8.757 0 0 0 8.727 8.727h18.181a8.777 8.777 0 0 0 8.727-8.727v-2.94l1.054-.437c2.121 2.121 5.1 4.632 8.249 4.632a8.7 8.7 0 0 0 6.171-2.553l12.841-12.866a8.709 8.709 0 0 0 .01-12.331l-2.078-2.079.437-1.054h2.939a8.779 8.779 0 0 0 8.728-8.727v-18.18a8.819 8.819 0 0 0 -2.56-6.168 8.7 8.7 0 0 0 -6.168-2.559h-2.94l-.437-1.054 2.069-2.09a8.709 8.709 0 0 0 .01-12.331l-12.856-12.856a8.742 8.742 0 0 0 -11.862-.422 33.769 33.769 0 0 0 -2.553 2.5l-1.054-.437v-2.94a8.753 8.753 0 0 0 -8.727-8.728h-18.181a8.777 8.777 0 0 0 -8.727 8.728v2.94l-1.054.437c-1.411-1.4-2.734-2.952-4.562-3.81v-24.372a12.406 12.406 0 0 0 -12.385-12.385h-131.5a12.407 12.407 0 0 0 -12.385 12.385v131.5a12.407 12.407 0 0 0 12.385 12.385h131.5a12.406 12.406 0 0 0 12.385-12.385zm-55.571-121.63v42.548a5.454 5.454 0 0 1 -9.812 3.257l-12.751-15.42-12.93 15.631a5.447 5.447 0 0 1 -9.631-3.468l-.007-42.548h-43.187a1.512 1.512 0 0 0 -1.492 1.492v131.5a1.511 1.511 0 0 0 1.492 1.492h131.5a1.51 1.51 0 0 0 1.492-1.492v-14.135l-11.817-11.821a8.732 8.732 0 0 1 .011-12.331l2.068-2.09-.437-1.054h-2.94a8.632 8.632 0 0 1 -8.727-8.727v-18.18a8.776 8.776 0 0 1 8.727-8.727h2.94l.437-1.054-2.079-2.079a8.735 8.735 0 0 1 0-12.342l11.821-11.821v-27.139a1.51 1.51 0 0 0 -1.492-1.492zm-79.479 109.252h27.542a5.447 5.447 0 0 0 0-10.893h-27.542a5.447 5.447 0 0 0 0 10.893zm0 17.63h27.542a5.447 5.447 0 0 0 0-10.893h-27.542a5.447 5.447 0 0 0 0 10.893zm45.241-126.882v27.427l7.419-8.97a5.45 5.45 0 0 1 8.445-.076l7.481 9.046v-27.427zm123.587 63.4a14.633 14.633 0 1 0 4.288 10.344 14.585 14.585 0 0 0 -4.283-10.344zm96.638 117.308h-337.5v27.177h337.5zm-316.45 19.966c3.475 0 6.6-1.433 6.6-5.446s-3.128-5.447-6.6-5.447a5.447 5.447 0 1 0 0 10.893zm172.013 18.1h-48.625v18.578h48.625zm56.253 29.471h-161.132a7.981 7.981 0 0 0 0 15.962h161.132a7.981 7.981 0 0 0 0-15.962z" fill="url(#linear-gradient)" fill-rule="evenodd" data-original-color="linear-gradient" stroke="none" stroke-opacity="1"/></g></svg>