<svg id="Layer_1" enable-background="new 0 0 512 512" height="300" viewBox="0 0 512 512" width="300" xmlns="http://www.w3.org/2000/svg" xmlns:xlink="http://www.w3.org/1999/xlink" version="1.1" xmlns:svgjs="http://svgjs.dev/svgjs"><g width="100%" height="100%" transform="matrix(1,0,0,1,0,0)"><linearGradient id="SVGID_1_" gradientUnits="userSpaceOnUse" x1="256" x2="256" y1="512" y2="0"><stop offset="0" stop-color="#5558ff"/><stop offset="1" stop-color="#00c0ff"/></linearGradient><linearGradient id="SVGID_00000030462068371180418200000008965385701172381883_" gradientUnits="userSpaceOnUse" x1="195" x2="195" y1="482" y2="152"><stop offset="0" stop-color="#addcff"/><stop offset=".5028" stop-color="#eaf6ff"/><stop offset="1" stop-color="#eaf6ff"/></linearGradient><g><path d="m511.847 73.692c-1.172 8.201-8.77 13.9-16.97 12.728l-42.073-6.01-22.981 22.981 19.8 2.828c8.201 1.172 13.899 8.769 12.728 16.97s-8.769 13.9-16.97 12.728l-42.074-6.01-60.29 60.29c29.271 34.119 46.983 78.429 46.983 126.803 0 107.523-87.477 195-195 195s-195-87.477-195-195 87.477-195 195-195c48.374 0 92.685 17.713 126.803 46.984l60.29-60.29-6.011-42.073c-1.172-8.201 4.527-15.799 12.728-16.971s15.799 4.527 16.97 12.728l2.829 19.8 22.982-22.982-6.011-42.073c-1.172-8.201 4.527-15.799 12.728-16.971s15.799 4.527 16.97 12.728l5.48 38.361 38.361 5.48c8.202 1.172 13.9 8.77 12.728 16.971z" fill="#ffffff" data-original-color="SVGID_1_" stroke="none" stroke-opacity="1" fill-opacity="1"/><path d="m257.543 275.671 21.52-21.52c13.143 17.535 20.937 39.299 20.937 62.849 0 57.897-47.103 105-105 105s-105-47.103-105-105 47.103-105 105-105c23.551 0 45.314 7.794 62.849 20.938l-21.52 21.52c-11.859-7.863-26.065-12.458-41.329-12.458-41.355 0-75 33.645-75 75s33.645 75 75 75 75-33.645 75-75c0-15.264-4.594-29.47-12.457-41.329zm72.457 41.329c0 74.439-60.561 135-135 135s-135-60.56-135-135 60.561-135 135-135c31.827 0 61.112 11.078 84.216 29.571l21.311-21.311c-28.625-23.874-65.425-38.26-105.527-38.26-90.981 0-165 74.019-165 165s74.019 165 165 165 165-74.019 165-165c0-40.101-14.386-76.902-38.26-105.527l-21.311 21.311c18.493 23.104 29.571 52.389 29.571 84.216zm-145.606 10.607c-5.858-5.858-5.858-15.355 0-21.213l29.996-29.996c-5.876-2.817-12.451-4.398-19.39-4.398-24.813 0-45 20.187-45 45s20.187 45 45 45 45-20.187 45-45c0-6.939-1.581-13.514-4.398-19.389l-29.996 29.996c-5.857 5.858-15.355 5.858-21.212 0z" fill="#2563eb" data-original-color="SVGID_00000030462068371180418200000008965385701172381883_" stroke="none" stroke-opacity="1" fill-opacity="1"/></g></g></svg>