<svg id="Layer_1" enable-background="new 0 0 512 512" viewBox="0 0 512 512" xmlns="http://www.w3.org/2000/svg" xmlns:xlink="http://www.w3.org/1999/xlink" width="300" height="300" version="1.1" xmlns:svgjs="http://svgjs.dev/svgjs"><g width="100%" height="100%" transform="matrix(1,0,0,1,0,0)"><linearGradient id="SVGID_1_" gradientUnits="userSpaceOnUse" x1="256" x2="256" y1="15" y2="497"><stop offset="0" stop-color="#a03a8d"/><stop offset="1" stop-color="#1f3c8d"/></linearGradient><path d="m486.5 15h-323.03c-5.79 0-10.5 4.71-10.5 10.5v24.33c0 5.79 4.71 10.5 10.5 10.5h15.18v54.53h-108.46c-14.86 0-28.88 5.85-39.47 16.46-10.17 10.19-15.75 23.37-15.72 37.11l.06 60.85c0 12.08 9.51 21.98 21.43 22.62v87.52c0 13.92 11.32 25.24 25.24 25.24 7.71 0 14.61-3.48 19.24-8.94 4.64 5.46 11.54 8.94 19.23 8.94 13.92 0 25.24-11.32 25.24-25.24v-171.32c0-4.38 3.56-7.94 7.94-7.94h45.27v83.71c0 15.05 12.24 27.29 27.29 27.29h113.05v15.37c-9.1 2.61-15.78 11-15.78 20.93 0 12.01 9.77 21.78 21.78 21.78s21.78-9.77 21.78-21.78c0-9.93-6.68-18.32-15.78-20.93v-15.37h113.05c15.05 0 27.29-12.24 27.29-27.29v-183.55h15.18c5.79 0 10.5-4.71 10.5-10.5v-24.32c-.01-5.79-4.72-10.5-10.51-10.5zm-151.74 292.46c0 5.39-4.39 9.78-9.78 9.78s-9.78-4.39-9.78-9.78 4.39-9.78 9.78-9.78 9.78 4.39 9.78 9.78zm-221.32-139.36v171.32c0 7.3-5.94 13.24-13.24 13.24-7.25 0-13.19-5.9-13.24-13.15 0-.01 0-.02 0-.03 0-.02 0-.04 0-.05v-97.71c0-3.31-2.69-6-6-6s-6 2.69-6 6v97.71c0 7.3-5.94 13.24-13.24 13.24s-13.24-5.94-13.24-13.24v-90.23c7.06-3.84 11.87-11.33 11.87-19.92v-62.53c0-3.31-2.69-6-6-6s-6 2.69-6 6v62.53c0 5.87-4.78 10.65-10.65 10.65s-10.65-4.78-10.65-10.66l-.05-60.86c-.02-10.54 4.31-20.7 12.21-28.62 8.33-8.34 19.33-12.94 30.98-12.94h143.73c5.87 0 10.65 4.78 10.65 10.65s-4.78 10.65-10.65 10.65h-80.54c-11 .01-19.94 8.96-19.94 19.95zm345.88 75.77c0 8.43-6.86 15.29-15.29 15.29h-238.09c-8.43 0-15.29-6.86-15.29-15.29v-83.71h23.27c12.49 0 22.65-10.16 22.65-22.65s-10.16-22.65-22.65-22.65h-23.27v-54.54h268.67zm25.68-195.55h-320.03v-21.32h320.03zm-404.03 60.36c25.83 0 46.84-21.01 46.84-46.84s-21.02-46.84-46.84-46.84-46.84 21.01-46.84 46.84 21.01 46.84 46.84 46.84zm0-81.68c19.21 0 34.84 15.63 34.84 34.84s-15.63 34.84-34.84 34.84-34.84-15.63-34.84-34.84 15.63-34.84 34.84-34.84zm388.22 349.27c0-17.95-14.6-32.55-32.55-32.55s-32.55 14.6-32.55 32.55 14.6 32.55 32.55 32.55 32.55-14.61 32.55-32.55zm-53.1 0c0-11.33 9.22-20.55 20.55-20.55s20.55 9.22 20.55 20.55-9.22 20.55-20.55 20.55-20.55-9.22-20.55-20.55zm20.55 39.87c-33.28 0-60.36 27.08-60.36 60.36v2.8c0 9.76 7.94 17.69 17.69 17.69h85.33c9.76 0 17.69-7.94 17.69-17.69v-2.8c.01-33.28-27.07-60.36-60.35-60.36zm48.36 63.17c0 3.14-2.55 5.69-5.69 5.69h-85.33c-3.14 0-5.69-2.55-5.69-5.69v-2.8c0-26.67 21.69-48.36 48.36-48.36s48.36 21.69 48.36 48.36v2.8zm-139.16-103.04c0-17.95-14.6-32.55-32.55-32.55s-32.55 14.6-32.55 32.55 14.6 32.55 32.55 32.55 32.55-14.61 32.55-32.55zm-53.1 0c0-11.33 9.22-20.55 20.55-20.55s20.55 9.22 20.55 20.55-9.22 20.55-20.55 20.55-20.55-9.22-20.55-20.55zm20.55 39.87c-33.28 0-60.36 27.08-60.36 60.36v2.8c0 9.76 7.94 17.69 17.69 17.69h85.33c9.76 0 17.69-7.94 17.69-17.69v-2.8c.01-33.28-27.07-60.36-60.35-60.36zm48.36 63.17c0 3.14-2.55 5.69-5.69 5.69h-85.33c-3.14 0-5.69-2.55-5.69-5.69v-2.8c0-26.67 21.69-48.36 48.36-48.36s48.36 21.69 48.36 48.36v2.8zm-139.16-103.04c0-17.95-14.6-32.55-32.55-32.55s-32.55 14.6-32.55 32.55 14.6 32.55 32.55 32.55 32.55-14.61 32.55-32.55zm-53.1 0c0-11.33 9.22-20.55 20.55-20.55s20.55 9.22 20.55 20.55-9.22 20.55-20.55 20.55-20.55-9.22-20.55-20.55zm20.55 39.87c-33.28 0-60.36 27.08-60.36 60.36v2.8c0 9.76 7.94 17.69 17.69 17.69h85.33c9.76 0 17.69-7.94 17.69-17.69v-2.8c.01-33.28-27.07-60.36-60.35-60.36zm48.36 63.17c0 3.14-2.55 5.69-5.69 5.69h-85.33c-3.14 0-5.69-2.55-5.69-5.69v-2.8c0-26.67 21.69-48.36 48.36-48.36s48.36 21.69 48.36 48.36v2.8zm84.19-236.53c.79.36 1.64.54 2.49.54s1.7-.18 2.49-.54c28.85-13.18 50.4-29.32 61.76-65.26 2.38-7.51 3.43-14.35 3.43-22.18v-53.2c0-3.07-2.32-5.64-5.37-5.97-29.86-3.16-48.86-9.14-58.1-18.28-2.34-2.31-6.1-2.31-8.44 0-9.24 9.14-28.24 15.12-58.1 18.28-3.05.32-5.37 2.9-5.37 5.97v53.2c0 7.82 1.06 14.66 3.43 22.18 11.38 35.94 32.93 52.08 61.78 65.26zm-53.19-135.28c26.43-3.23 44.41-8.84 55.69-17.42 11.28 8.57 29.25 14.19 55.69 17.42v47.84c0 6.63-.86 12.18-2.88 18.56-8.57 27.12-23 42.72-52.81 56.8-29.81-14.08-44.24-29.69-52.81-56.8-2.02-6.38-2.88-11.93-2.88-18.56zm55.69 94.82c25.43 0 46.12-20.69 46.12-46.12s-20.69-46.12-46.12-46.12-46.12 20.69-46.12 46.12 20.68 46.12 46.12 46.12zm0-80.25c18.82 0 34.12 15.31 34.12 34.12 0 18.82-15.31 34.12-34.12 34.12s-34.12-15.31-34.12-34.12c-.01-18.81 15.3-34.12 34.12-34.12zm-22.5 38.75c-2.34-2.34-2.34-6.14 0-8.49 2.34-2.34 6.14-2.34 8.49 0l7.67 7.67 20.35-20.34c2.34-2.34 6.14-2.34 8.49 0 2.34 2.34 2.34 6.14 0 8.48l-24.59 24.59c-1.12 1.13-2.65 1.76-4.24 1.76s-3.12-.63-4.24-1.76z" fill="#ffffff" data-original-color="SVGID_1_" stroke="none" stroke-opacity="1" fill-opacity="1"/></g></svg>